<?xml version="1.0" encoding="utf-8"?>
<!-- Generator: Adobe Illustrator 16.0.0, SVG Export Plug-In . SVG Version: 6.00 Build 0)  -->
<!DOCTYPE svg PUBLIC "-//W3C//DTD SVG 1.1//EN" "http://www.w3.org/Graphics/SVG/1.1/DTD/svg11.dtd">
<svg version="1.1" id="Layer_1" xmlns="http://www.w3.org/2000/svg" xmlns:xlink="http://www.w3.org/1999/xlink" x="0px" y="0px"
	 width="24px" height="24px" viewBox="-2 -2 24 24" enable-background="new -2 -2 24 24" xml:space="preserve">
<path fill-rule="evenodd" clip-rule="evenodd" d="M18,5.625c0,2.916,0,5.833,0,8.75c-0.011,0.013-0.028,0.025-0.03,0.04
	c-0.006,0.046,0.006,0.097-0.01,0.137c-0.07,0.181-0.136,0.359-0.257,0.521c-0.101,0.133-0.218,0.245-0.351,0.328
	c-0.18,0.111-0.38,0.195-0.601,0.206c-0.05,0.003-0.099,0.018-0.148,0.018c-4.402,0.001-8.805,0.001-13.207,0
	c-0.13,0-0.256-0.028-0.381-0.062c-0.141-0.038-0.274-0.099-0.393-0.18c-0.133-0.091-0.254-0.197-0.345-0.336
	c-0.128-0.194-0.239-0.392-0.248-0.632c-0.001-0.014-0.02-0.027-0.03-0.04c0-2.917,0-5.834,0-8.75
	c0.011-0.014,0.028-0.026,0.03-0.041c0.006-0.046-0.007-0.097,0.01-0.137c0.07-0.181,0.136-0.359,0.257-0.521
	c0.101-0.133,0.218-0.245,0.351-0.328c0.18-0.111,0.38-0.195,0.6-0.206c0.05-0.003,0.1-0.018,0.149-0.018
	c4.402-0.001,8.805-0.001,13.207,0c0.13,0,0.256,0.028,0.38,0.062c0.142,0.038,0.275,0.099,0.394,0.18
	c0.133,0.091,0.253,0.197,0.345,0.336c0.128,0.194,0.239,0.392,0.248,0.632C17.971,5.598,17.989,5.612,18,5.625z M16.393,5.313
	c-4.265,0-8.507,0-12.749,0c-0.004,0-0.009,0.005-0.012,0.009C3.63,5.325,3.63,5.329,3.629,5.333
	c1.988,1.988,3.977,3.977,5.965,5.964c0.021,0.022,0.042,0.047,0.066,0.066c0.078,0.062,0.16,0.113,0.269,0.106
	c0.082-0.004,0.165,0,0.248,0c0.118-0.039,0.19-0.134,0.271-0.215c1.94-1.941,3.881-3.881,5.821-5.822
	C16.305,5.398,16.341,5.364,16.393,5.313z M3.636,14.684c4.241,0,8.486,0,12.75,0c-1.338-1.338-2.664-2.665-3.991-3.991
	c-0.003-0.003-0.009-0.004-0.014-0.004c-0.005-0.001-0.011,0-0.021,0c-0.144,0.144-0.288,0.293-0.438,0.437
	c-0.325,0.311-0.62,0.652-0.967,0.941c-0.127,0.106-0.261,0.192-0.413,0.251c-0.153,0.059-0.31,0.106-0.479,0.091
	c-0.077-0.008-0.156-0.003-0.234-0.001c-0.065,0.002-0.127-0.011-0.19-0.03c-0.169-0.05-0.33-0.109-0.472-0.219
	c-0.091-0.07-0.188-0.133-0.271-0.215c-0.397-0.397-0.795-0.795-1.192-1.192c-0.024-0.024-0.05-0.048-0.069-0.066
	C6.297,12.021,4.969,13.35,3.636,14.684z M2.942,5.99c0,2.668,0,5.353,0,8.021C4.278,12.675,5.62,11.334,6.953,10
	C5.62,8.667,4.278,7.326,2.942,5.99z M17.057,14.011c0-2.668,0-5.353,0-8.021C15.722,7.326,14.38,8.667,13.047,10
	C14.38,11.334,15.721,12.675,17.057,14.011z"/>
</svg>
