<?xml version="1.0" encoding="utf-8"?>
<!-- Generator: Adobe Illustrator 16.0.0, SVG Export Plug-In . SVG Version: 6.00 Build 0)  -->
<!DOCTYPE svg PUBLIC "-//W3C//DTD SVG 1.1//EN" "http://www.w3.org/Graphics/SVG/1.1/DTD/svg11.dtd">
<svg version="1.1" id="Layer_1" xmlns="http://www.w3.org/2000/svg" xmlns:xlink="http://www.w3.org/1999/xlink" x="0px" y="0px"
	 width="105px" height="105px" viewBox="0 0 105 105" enable-background="new 0 0 105 105" xml:space="preserve">
<g>
	<path fill="#13365B" d="M27.803,103l43.111-11.352H15.398c-1.183,0-2.137-1.271-2.137-2.838l0,0V41.025l21.924,47.785h11.262
		V16.188c0-1.563,0.955-2.838,2.137-2.838l0,0h26.583L54.302,2H43.766c-4.717,0-8.543,5.084-8.543,11.35l0,0V64.07L13.264,16.188H2
		v75.461C2,97.915,5.827,103,10.542,103l0,0H27.803z"/>
	<polyline fill="#D72538" points="64.715,59.682 59.196,68.063 59.196,88.813 48.58,88.813 48.58,16.188 59.196,16.188 
		59.196,49.107 63.867,40.079 76.994,16.188 90.052,16.188 71.757,48.46 90.58,88.813 77.947,88.813 64.715,59.682 	"/>
	<path fill="#D72538" d="M94.459,2H54.302l20.865,11.35h10.75v0.001h3.769c1.18,0,2.137,1.272,2.137,2.838v36.313v36.313
		c0,1.563-0.953,2.831-2.13,2.837H70.914L27.803,103l58.114-0.001V103h5.905c0.005,0,0.01-0.001,0.014-0.001h2.623
		c4.715,0,8.541-5.084,8.541-11.351V13.35C103,7.084,99.174,2,94.459,2z"/>
</g>
</svg>
