<svg aria-hidden="true" style="position: absolute; width: 0; height: 0; overflow: hidden;" version="1.1"
  xmlns="http://www.w3.org/2000/svg"
  xmlns:xlink="http://www.w3.org/1999/xlink">
  <defs>
    <svg id="icon-ionic">
      <title>ionic</title>
      <path fill="#5078BC" d="M22.919,7.027l-0.103-0.23l-0.168,0.188c-0.408,0.464-0.929,0.82-1.506,1.036l-0.158,0.061l0.065,0.155 c0.474,1.107,0.75,2.396,0.75,3.75c0,0.003,0,0.007,0,0.01v0c0,5.405-4.397,9.805-9.807,9.805c-5.409,0-9.802-4.396-9.802-9.801 s4.402-9.807,9.807-9.807c1.467,0,2.883,0.319,4.2,0.948l0.155,0.075l0.066-0.155c0.253-0.582,0.629-1.069,1.098-1.447l0.008-0.006 l0.197-0.159l-0.225-0.117C15.909,0.493,14.025,0,12.028,0c-0.01,0-0.02,0-0.029,0H12C5.381,0,0,5.381,0,12s5.381,12,12,12 c6.619,0,12-5.381,12-12C24,10.27,23.64,8.597,22.919,7.027L22.919,7.027z M11.997,6.53C8.978,6.534,6.53,8.98,6.527,12l0,0 c0.004,3.02,2.45,5.467,5.47,5.47l0,0c3.019-0.004,5.467-2.45,5.47-5.47l0,0C17.462,8.981,15.016,6.535,11.997,6.53L11.997,6.53 L11.997,6.53z M22.342,4.523c0,1.378-1.116,2.494-2.494,2.494c-1.377,0-2.494-1.117-2.494-2.494l0,0 c0-1.378,1.117-2.494,2.494-2.494C21.226,2.029,22.342,3.146,22.342,4.523L22.342,4.523z" />
    </svg>
    <svg id="icon-mysql">
      <title>mysql</title>
      <path fill="#4579A1" d="M16.404,5.5c-0.113,0-0.191,0.014-0.273,0.033v0.013h0.015c0.054,0.104,0.146,0.18,0.214,0.273 c0.054,0.107,0.1,0.213,0.154,0.32l0.014-0.015c0.094-0.066,0.14-0.172,0.14-0.333c-0.04-0.047-0.046-0.094-0.079-0.14 c-0.041-0.067-0.127-0.1-0.181-0.153L16.404,5.5z M5.77,18.694H4.843c-0.03-1.563-0.123-3.03-0.27-4.411H4.565l-1.41,4.411H2.45 l-1.4-4.411H1.04c-0.103,1.324-0.168,2.794-0.195,4.411H0c0.055-1.966,0.192-3.811,0.41-5.53h1.15l1.335,4.064h0.008l1.347-4.064 h1.095c0.242,2.016,0.384,3.86,0.428,5.53H5.77z M9.787,14.614c-0.378,2.045-0.876,3.533-1.492,4.46 c-0.482,0.716-1.01,1.073-1.583,1.073c-0.153,0-0.34-0.046-0.566-0.138v-0.495c0.11,0.018,0.24,0.026,0.386,0.026 c0.268,0,0.483-0.075,0.647-0.222c0.198-0.18,0.295-0.382,0.295-0.604c0-0.155-0.077-0.471-0.23-0.945L6.23,14.614h0.91l0.727,2.36 c0.165,0.536,0.233,0.909,0.205,1.123c0.4-1.064,0.678-2.228,0.835-3.483h0.88H9.787z M22.112,18.694h-2.63v-5.53h0.885v4.851h1.745 V18.694z M18.793,18.829l-1.017-0.5c0.089-0.076,0.177-0.158,0.255-0.25c0.433-0.506,0.647-1.258,0.647-2.253 c0-1.83-0.718-2.746-2.154-2.746c-0.704,0-1.255,0.232-1.649,0.696c-0.431,0.509-0.646,1.257-0.646,2.246 c0,0.971,0.19,1.686,0.574,2.14c0.35,0.41,0.876,0.614,1.583,0.614c0.264,0,0.505-0.032,0.726-0.099l1.324,0.772l0.36-0.622 L18.793,18.829z M15.5,17.587c-0.225-0.359-0.336-0.939-0.336-1.736c0-1.393,0.424-2.09,1.27-2.09c0.443,0,0.77,0.167,0.977,0.5 c0.226,0.362,0.337,0.937,0.337,1.723c0,1.404-0.424,2.108-1.271,2.108c-0.444,0-0.77-0.167-0.978-0.501L15.5,17.587z M13.842,17.162c0,0.47-0.172,0.855-0.516,1.155c-0.344,0.301-0.803,0.45-1.384,0.45c-0.542,0-1.064-0.172-1.572-0.516l0.237-0.477 c0.438,0.22,0.833,0.328,1.19,0.328c0.332,0,0.593-0.073,0.783-0.22c0.188-0.146,0.299-0.354,0.299-0.615 c0-0.329-0.23-0.609-0.648-0.845c-0.388-0.213-1.163-0.657-1.163-0.657c-0.422-0.307-0.632-0.636-0.632-1.177 c0-0.45,0.157-0.811,0.47-1.085c0.315-0.278,0.72-0.415,1.22-0.415c0.512,0,0.98,0.136,1.4,0.41l-0.213,0.477 c-0.36-0.152-0.715-0.23-1.064-0.23c-0.283,0-0.501,0.068-0.654,0.206c-0.153,0.137-0.249,0.31-0.249,0.524 c0,0.328,0.234,0.609,0.666,0.85c0.393,0.216,1.188,0.67,1.188,0.67c0.433,0.306,0.648,0.63,0.648,1.168L13.842,17.162z M23.224,11.31c-0.534-0.015-0.95,0.04-1.296,0.188c-0.1,0.04-0.261,0.04-0.274,0.167c0.055,0.053,0.063,0.14,0.11,0.214 c0.08,0.134,0.218,0.313,0.346,0.407c0.141,0.11,0.279,0.215,0.427,0.309c0.26,0.16,0.555,0.255,0.81,0.417 c0.145,0.094,0.294,0.213,0.44,0.313c0.073,0.05,0.12,0.141,0.214,0.172v-0.021c-0.045-0.06-0.06-0.146-0.105-0.214 c-0.065-0.066-0.133-0.126-0.2-0.192c-0.193-0.261-0.434-0.486-0.694-0.675c-0.214-0.146-0.683-0.35-0.771-0.595l-0.013-0.014 c0.146-0.013,0.32-0.066,0.459-0.105c0.228-0.06,0.436-0.047,0.67-0.106c0.106-0.027,0.214-0.06,0.32-0.094v-0.06 c-0.12-0.12-0.209-0.283-0.334-0.395c-0.339-0.295-0.716-0.582-1.103-0.823c-0.211-0.134-0.478-0.22-0.697-0.334 c-0.081-0.04-0.214-0.06-0.261-0.126c-0.12-0.146-0.189-0.34-0.275-0.514c-0.191-0.369-0.38-0.775-0.547-1.163 c-0.12-0.262-0.192-0.523-0.34-0.763c-0.689-1.137-1.437-1.826-2.585-2.5c-0.247-0.14-0.544-0.2-0.856-0.274 c-0.167-0.008-0.334-0.02-0.5-0.027c-0.11-0.047-0.215-0.174-0.309-0.235c-0.381-0.24-1.365-0.76-1.645-0.072 c-0.181,0.434,0.268,0.862,0.422,1.082c0.115,0.153,0.26,0.328,0.34,0.5c0.047,0.116,0.06,0.234,0.107,0.356 c0.105,0.294,0.207,0.622,0.348,0.897c0.072,0.14,0.152,0.288,0.246,0.414c0.054,0.072,0.146,0.107,0.167,0.227 c-0.094,0.136-0.1,0.334-0.153,0.5c-0.24,0.757-0.146,1.693,0.193,2.25c0.107,0.166,0.363,0.534,0.703,0.393 c0.301-0.12,0.234-0.5,0.32-0.834c0.02-0.081,0.006-0.133,0.047-0.187v0.015c0.095,0.188,0.189,0.367,0.274,0.555 c0.207,0.328,0.567,0.668,0.867,0.895c0.16,0.12,0.287,0.328,0.486,0.402V11.64h-0.015c-0.042-0.057-0.1-0.086-0.153-0.132 c-0.12-0.12-0.255-0.267-0.351-0.4c-0.279-0.377-0.527-0.79-0.747-1.218c-0.109-0.21-0.202-0.436-0.29-0.643 c-0.039-0.08-0.039-0.2-0.107-0.24c-0.1,0.146-0.247,0.273-0.32,0.453c-0.127,0.288-0.141,0.642-0.188,1.01 c-0.027,0.007-0.015,0-0.027,0.015c-0.215-0.052-0.287-0.274-0.367-0.46c-0.199-0.475-0.232-1.238-0.059-1.785 c0.046-0.14,0.245-0.583,0.166-0.716c-0.043-0.127-0.174-0.2-0.246-0.303c-0.088-0.124-0.18-0.285-0.24-0.427 c-0.159-0.374-0.24-0.788-0.414-1.162c-0.08-0.173-0.22-0.354-0.334-0.513c-0.126-0.18-0.267-0.307-0.367-0.52 c-0.034-0.073-0.081-0.194-0.027-0.274c0.014-0.054,0.041-0.075,0.094-0.09c0.087-0.072,0.334,0.022,0.422,0.062 c0.246,0.1,0.455,0.195,0.662,0.334c0.094,0.066,0.195,0.193,0.315,0.226h0.14c0.214,0.047,0.455,0.015,0.654,0.073 c0.355,0.114,0.675,0.28,0.963,0.459c0.876,0.556,1.596,1.345,2.085,2.286c0.08,0.154,0.114,0.295,0.188,0.456 c0.141,0.33,0.313,0.663,0.456,0.981c0.141,0.315,0.275,0.636,0.476,0.897c0.1,0.14,0.503,0.213,0.682,0.286 c0.133,0.06,0.34,0.115,0.46,0.188c0.231,0.14,0.454,0.3,0.671,0.454c0.109,0.076,0.442,0.243,0.462,0.378L23.224,11.31z" />
    </svg>
    <svg id="icon-sass">
      <title>sass</title>
      <path fill="#CF659B" d="M20.66,13.335c-0.839,0.005-1.565,0.206-2.175,0.507c-0.225-0.445-0.45-0.835-0.487-1.125 c-0.043-0.337-0.094-0.543-0.043-0.947c0.052-0.403,0.286-0.975,0.286-1.022c-0.004-0.042-0.051-0.249-0.534-0.253 c-0.482-0.005-0.9,0.094-0.947,0.22s-0.141,0.417-0.201,0.717c-0.084,0.44-0.966,2.001-1.468,2.822 c-0.164-0.318-0.305-0.6-0.332-0.825c-0.043-0.337-0.094-0.543-0.043-0.947c0.052-0.403,0.286-0.975,0.286-1.022 c-0.005-0.042-0.052-0.248-0.534-0.253s-0.9,0.094-0.947,0.22s-0.099,0.427-0.201,0.717c-0.099,0.291-1.271,2.896-1.576,3.577 c-0.154,0.347-0.291,0.623-0.389,0.811c-0.098,0.188-0.004,0.014-0.014,0.033c-0.084,0.159-0.131,0.248-0.131,0.248v0.005 c-0.066,0.117-0.136,0.229-0.169,0.229c-0.023,0-0.07-0.314,0.009-0.745c0.174-0.905,0.596-2.316,0.591-2.367 c0-0.023,0.08-0.272-0.272-0.398c-0.342-0.127-0.464,0.084-0.492,0.084c-0.028,0-0.051,0.075-0.051,0.075s0.379-1.589-0.727-1.589 c-0.693,0-1.65,0.755-2.124,1.444c-0.3,0.164-0.938,0.511-1.612,0.881c-0.258,0.141-0.525,0.291-0.778,0.427l-0.052-0.056 c-1.341-1.43-3.821-2.442-3.717-4.365C1.853,9.74,2.096,7.897,6.578,5.666c3.671-1.829,6.61-1.327,7.122-0.211 c0.727,1.594-1.571,4.557-5.387,4.983c-1.453,0.164-2.217-0.398-2.409-0.609c-0.202-0.22-0.23-0.229-0.305-0.188 c-0.122,0.066-0.047,0.263,0,0.38c0.112,0.295,0.581,0.82,1.378,1.083c0.699,0.229,2.405,0.356,4.468-0.441 c2.311-0.895,4.116-3.38,3.586-5.457c-0.539-2.114-4.046-2.808-7.36-1.631c-1.974,0.703-4.111,1.8-5.649,3.239 c-1.828,1.707-2.119,3.197-1.997,3.816c0.427,2.208,3.469,3.647,4.688,4.711c-0.061,0.032-0.117,0.065-0.169,0.094 c-0.609,0.3-2.93,1.514-3.511,2.799c-0.656,1.453,0.104,2.498,0.609,2.639c1.566,0.437,3.169-0.347,4.037-1.636 c0.862-1.289,0.759-2.963,0.361-3.727l-0.014-0.028l0.479-0.281c0.309-0.184,0.614-0.352,0.881-0.497 c-0.15,0.407-0.258,0.891-0.314,1.594c-0.065,0.825,0.272,1.894,0.717,2.315c0.197,0.184,0.431,0.188,0.577,0.188 c0.516,0,0.75-0.426,1.008-0.938c0.319-0.623,0.6-1.345,0.6-1.345s-0.352,1.954,0.609,1.954c0.352,0,0.703-0.454,0.863-0.688v0.005 c0,0,0.009-0.015,0.028-0.047c0.038-0.057,0.057-0.09,0.057-0.09v-0.009c0.141-0.244,0.455-0.802,0.923-1.726 c0.605-1.19,1.186-2.682,1.186-2.682s0.057,0.366,0.23,0.966c0.103,0.356,0.328,0.745,0.501,1.125 c-0.141,0.197-0.225,0.31-0.225,0.31l0.005,0.005c-0.113,0.15-0.239,0.31-0.371,0.469c-0.478,0.572-1.05,1.224-1.125,1.411 c-0.089,0.221-0.07,0.385,0.103,0.516c0.126,0.094,0.352,0.112,0.591,0.094c0.431-0.028,0.731-0.136,0.881-0.201 c0.234-0.085,0.502-0.211,0.76-0.399c0.469-0.347,0.755-0.839,0.727-1.495c-0.015-0.36-0.132-0.717-0.276-1.055 c0.042-0.061,0.084-0.122,0.126-0.188c0.741-1.083,1.313-2.273,1.313-2.273s0.057,0.366,0.23,0.966 c0.089,0.305,0.267,0.638,0.426,0.966c-0.693,0.566-1.129,1.224-1.279,1.654c-0.276,0.797-0.062,1.158,0.347,1.242 c0.183,0.038,0.445-0.047,0.643-0.131c0.243-0.08,0.539-0.216,0.811-0.417c0.469-0.348,0.919-0.83,0.896-1.481 c-0.014-0.301-0.094-0.596-0.201-0.877c0.591-0.244,1.354-0.385,2.325-0.268c2.086,0.244,2.498,1.548,2.419,2.091 c-0.08,0.544-0.516,0.844-0.661,0.938c-0.146,0.09-0.192,0.122-0.178,0.188c0.019,0.099,0.084,0.094,0.211,0.075 c0.173-0.028,1.097-0.445,1.134-1.448C24.055,14.728,22.831,13.321,20.66,13.335L20.66,13.335z M4.571,18.759 c-0.689,0.755-1.66,1.041-2.072,0.797c-0.445-0.258-0.271-1.368,0.577-2.17c0.516-0.488,1.186-0.938,1.627-1.215 c0.098-0.061,0.249-0.149,0.427-0.258c0.028-0.019,0.047-0.027,0.047-0.027c0.033-0.02,0.07-0.043,0.107-0.066 C5.598,16.964,5.298,17.967,4.571,18.759L4.571,18.759z M9.611,15.332c-0.239,0.586-0.746,2.091-1.05,2.007 c-0.262-0.07-0.422-1.21-0.051-2.335c0.188-0.567,0.586-1.242,0.82-1.505c0.38-0.422,0.792-0.562,0.896-0.389 C10.347,13.335,9.761,14.967,9.611,15.332z M13.77,17.319c-0.104,0.052-0.197,0.09-0.239,0.062 c-0.033-0.019,0.042-0.089,0.042-0.089s0.521-0.559,0.727-0.816c0.117-0.149,0.258-0.323,0.408-0.52v0.056 C14.707,16.687,14.06,17.137,13.77,17.319z M16.976,16.589c-0.075-0.057-0.065-0.23,0.188-0.773 c0.099-0.216,0.323-0.577,0.713-0.919c0.047,0.141,0.075,0.276,0.07,0.403C17.941,16.144,17.342,16.457,16.976,16.589z" />
    </svg>
    <svg id="icon-css">
      <title>css</title>
      <path fill="#1673B6" d="M1.5,0h21l-1.91,21.563L11.977,24l-8.565-2.438L1.5,0z M18.59,4.413L5.41,4.41l0.213,2.622l10.125,0.002 L15.494,9.75h-6.64l0.24,2.574h6.183l-0.366,3.522L12,16.65L9.044,15.84L8.856,13.73h-2.61l0.29,3.855l5.465,1.702l5.374-1.53 L18.59,4.413z" />
    </svg>
    <svg id="icon-typescript">
      <title>typescript</title>
      <path fill="#2479BF" d="M0,12v12h24V0H0V12z M19.341,11.044c0.61,0.152,1.075,0.423,1.501,0.864c0.221,0.237,0.549,0.666,0.576,0.77 c0.007,0.031-1.037,0.73-1.669,1.124c-0.023,0.015-0.114-0.084-0.217-0.236c-0.31-0.45-0.633-0.644-1.128-0.678 c-0.729-0.051-1.197,0.33-1.191,0.967c-0.001,0.011-0.001,0.023-0.001,0.036c0,0.151,0.038,0.294,0.104,0.419l-0.002-0.005 c0.16,0.33,0.459,0.529,1.391,0.933c1.718,0.741,2.453,1.228,2.91,1.921c0.51,0.773,0.624,2.008,0.278,2.925 c-0.381,0.999-1.325,1.677-2.655,1.899c-0.41,0.074-1.387,0.063-1.828-0.018c-0.963-0.171-1.878-0.647-2.441-1.272 c-0.222-0.243-0.652-0.88-0.625-0.925c0.012-0.016,0.109-0.077,0.22-0.141c0.108-0.061,0.511-0.294,0.892-0.516l0.69-0.399 l0.146,0.214c0.201,0.308,0.642,0.73,0.909,0.871c0.766,0.404,1.816,0.348,2.334-0.117c0.192-0.162,0.314-0.404,0.314-0.675 c0-0.017-0.001-0.031-0.001-0.047v0.003c0-0.278-0.035-0.4-0.181-0.61c-0.187-0.266-0.567-0.489-1.649-0.96 c-1.238-0.533-1.771-0.863-2.259-1.39c-0.294-0.333-0.521-0.735-0.653-1.177L15.1,14.801c-0.091-0.338-0.114-1.188-0.042-1.531 c0.255-1.196,1.158-2.029,2.46-2.276c0.424-0.081,1.406-0.051,1.822,0.053L19.341,11.044z M13.707,12.045l0.008,0.984H10.59v8.876 H8.38v-8.876H5.257v-0.964c0-0.534,0.011-0.98,0.026-0.99c0.012-0.016,1.914-0.024,4.217-0.02l4.194,0.012L13.707,12.045z" />
    </svg>
    <svg id="icon-angular">
      <title>angular</title>
      <path fill="#DD1E34" d="M9.931,12.646h4.137l-2.07-4.909L9.931,12.646z M11.999,0L0.68,3.981l1.726,14.771L11.999,24l9.595-5.242 L23.32,3.984L11.999,0L11.999,0z M19.061,18.312h-2.637l-1.422-3.504H8.995l-1.421,3.504h-2.64L12,2.651L19.061,18.312z" />
    </svg>
    <svg id="icon-laravel">
      <title>laravel</title>
      <path fill="#E84631" d="M6.459,13.266L0.069,2.59C0.358,1.105,1.647,0,3.194,0C3.195,0,3.198,0,3.2,0h17.62 c1.32,0,2.45,0.801,2.931,1.94c-0.521-0.48-0.831-0.36-1.2-0.3c-0.46,0.06-5.7,0.94-6.3,1.05c-0.621,0.1-1,0.341-0.621,0.871 l4.53,6.423L6.459,13.266L6.459,13.266z M5.55,15.426L0,16.876v3.932C0.006,22.572,1.437,24,3.2,24l0,0h7.19 c-0.94-1.531-3.5-6.153-4.83-8.563h-0.01L5.55,15.426z M15.8,23.99h5.021c1.68,0,3.05-1.301,3.17-2.932L15.8,23.99z M4.44,13.355 L0.02,5.723v9.104l4.33-1.041C4.7,13.705,4.61,13.666,4.44,13.355z M23.37,3.111c-0.25-0.34-0.43-0.29-0.63-0.24 c-0.201,0.051-4.771,0.87-5.05,0.9c-0.28,0.05-0.19,0.2-0.069,0.36l3.999,5.502L24,9.063V3.922 c-0.159-0.193-0.365-0.454-0.567-0.717L23.37,3.121V3.111z M20.799,11.454L7.44,14.937c0,0,4.101,7.103,4.41,7.553 c0.321,0.46,0.51,0.42,0.76,0.32c0.18-0.08,7.801-2.661,11.391-3.872v-3.811l-2.56-3.502c-0.16-0.25-0.25-0.3-0.64-0.171H20.799z M22.75,11.095L24,12.775v-2.191l-1.35,0.37L22.75,11.095z" />
    </svg>
    <svg id="icon-webpack">
      <title>webpack</title>
      <path fill="#8FD5F6" d="M22.324,18.498L12.434,24v-4.286l6.163-3.333L22.324,18.498L22.324,18.498z M23,17.896V6.389l-3.618,2.054 v7.396L23,17.896z M1.677,18.498L11.566,24v-4.286l-6.162-3.333L1.677,18.498L1.677,18.498z M1,17.896V6.389l3.62,2.054v7.396 L1,17.896z M1.423,5.644L11.566,0v4.144L5.019,7.687L1.423,5.644L1.423,5.644z M22.577,5.644L12.434,0v4.144l6.549,3.543 L22.577,5.644L22.577,5.644z M11.566,18.739l-6.08-3.287V8.938l6.079,3.454v6.349L11.566,18.739z M12.434,18.739l6.079-3.287V8.938 l-6.079,3.454v6.349V18.739z M5.898,8.185l6.103-3.301l6.103,3.301l-6.103,3.466L5.898,8.185z" />
    </svg>
    <svg id="icon-ckeditor">
      <title>ckeditor</title>
      <g>
        <path fill="#FFFFFF" d="M15.428,4.134c-0.283,0.601-0.43,1.264-0.429,1.935c0,2.407,1.851,4.359,4.134,4.359 c0.029,0,0.059,0,0.088,0v6.105c0,0.735-0.371,1.413-0.973,1.777l-7.312,4.452c-0.603,0.367-1.342,0.367-1.945,0l-7.312-4.452 c-0.601-0.364-0.972-1.042-0.973-1.777V7.629c0-0.733,0.37-1.41,0.973-1.777L8.991,1.4c0.603-0.366,1.343-0.366,1.945,0 L15.428,4.134z" />
        <path fill="#34B562" d="M16.123,3.296c-0.309,0.658-0.469,1.383-0.469,2.119c0,2.637,2.027,4.775,4.528,4.775 c0.032,0,0.064,0,0.097-0.001v6.687c-0.001,0.806-0.408,1.548-1.065,1.947l-8.009,4.875c-0.66,0.402-1.471,0.402-2.131,0 l-8.008-4.875C0.408,18.424,0.001,17.681,0,16.876V7.124C0,6.322,0.406,5.58,1.065,5.178l8.009-4.876 c0.66-0.402,1.471-0.402,2.131,0L16.123,3.296z M5.733,7.755C5.439,7.755,5.2,8.007,5.2,8.317v0.268 c0,0.311,0.239,0.562,0.533,0.562h8.995c0.295,0,0.533-0.251,0.533-0.562V8.317c0-0.31-0.238-0.562-0.533-0.562H5.733L5.733,7.755z M5.733,11.215c-0.294,0-0.533,0.252-0.533,0.562v0.268c0,0.311,0.239,0.562,0.533,0.562h6.521c0.294,0,0.533-0.251,0.533-0.562 v-0.268c0-0.31-0.239-0.562-0.533-0.562H5.733z M5.733,14.675c-0.294,0-0.533,0.252-0.533,0.563v0.268 c0,0.311,0.239,0.563,0.533,0.563h8.995c0.295,0,0.533-0.252,0.533-0.563v-0.268c0-0.311-0.238-0.563-0.533-0.563H5.733 L5.733,14.675z M20.271,9.253c-2.061,0-3.729-1.761-3.729-3.932c0-2.172,1.668-3.933,3.729-3.933C22.33,1.389,24,3.149,24,5.321 S22.33,9.254,20.271,9.253L20.271,9.253z" />
        <path fill="#FFFFFF" d="M21.479,5.999c0-0.175-0.029-0.328-0.088-0.459c-0.057-0.128-0.14-0.241-0.242-0.33 c-0.107-0.092-0.23-0.16-0.362-0.199c-0.145-0.044-0.294-0.066-0.444-0.065c-0.047,0-0.1,0.002-0.158,0.007 c-0.053,0.003-0.105,0.013-0.156,0.026l0.025-0.525h1.267V3.777h-1.929l-0.074,1.898c0.111-0.043,0.24-0.079,0.383-0.105 c0.145-0.027,0.272-0.04,0.385-0.04c0.077,0,0.154,0.008,0.231,0.023s0.146,0.042,0.206,0.082s0.111,0.092,0.148,0.157 c0.039,0.066,0.059,0.146,0.059,0.244c0,0.159-0.047,0.279-0.141,0.36c-0.092,0.081-0.21,0.124-0.33,0.122 c-0.125,0-0.232-0.038-0.322-0.112c-0.09-0.075-0.151-0.17-0.185-0.286L19.072,6.34c0.035,0.131,0.09,0.249,0.166,0.354 s0.166,0.193,0.271,0.265c0.105,0.071,0.222,0.127,0.351,0.166s0.266,0.058,0.406,0.058c0.154,0,0.305-0.024,0.449-0.072 s0.275-0.121,0.389-0.218c0.116-0.099,0.209-0.225,0.273-0.368C21.445,6.376,21.479,6.201,21.479,5.999L21.479,5.999z" />
      </g>
    </svg>
    <svg id="icon-javascript">
      <title>javascript</title>
      <g>
        <path fill="#F6DF1B" d="M0,0h24v24H0V0z" />
        <path fill="#010101" d="M6.311,20.057l1.836-1.111c0.354,0.628,0.677,1.16,1.45,1.16c0.741,0,1.208-0.291,1.208-1.418v-7.669h2.255 v7.7c0,2.336-1.369,3.4-3.367,3.4C7.889,22.119,6.842,21.184,6.311,20.057 M14.285,19.814l1.837-1.063 c0.483,0.789,1.112,1.369,2.224,1.369c0.934,0,1.53-0.467,1.53-1.111c0-0.773-0.612-1.047-1.644-1.498l-0.563-0.242 c-1.628-0.693-2.706-1.563-2.706-3.399c0-1.691,1.288-2.98,3.303-2.98c1.434,0,2.465,0.499,3.205,1.805l-1.756,1.128 c-0.387-0.693-0.806-0.967-1.45-0.967c-0.66,0-1.079,0.419-1.079,0.967c0,0.676,0.419,0.95,1.385,1.369l0.564,0.242 c1.917,0.821,2.996,1.658,2.996,3.543c0,2.031-1.595,3.143-3.737,3.143C16.299,22.119,14.946,21.12,14.285,19.814" />
      </g>
    </svg>
 >
    <svg id="icon-npm">
      <title>npm</title>
      <g>
        <path fill="#CC3937" d="M6.672,16.68v-1.339H0V7.32h24v8.021H12v1.339H6.672z" />
        <path fill="#FFFFFF" d="M10.703,15.341v-1.349h2.641V8.669H8.025v6.672H10.703z" />
        <path fill="#CC3937" d="M10.703,10.008H12v2.641h-1.297V10.008z" />
        <path fill="#FFFFFF" d="M3.984,13.992v-3.984h1.344v3.984h1.344V8.669H1.354v5.323H3.984z M17.328,13.992v-3.984h1.344v3.984h1.344 v-3.984h1.344v3.984h1.344V8.669h-8.016v5.323H17.328z" />
      </g>
    </svg>
    <svg id="icon-npm-square">
      <title>npm-square</title>
      <path fill="#CC3A37" d="M0,24V0h24v24H0z M4.5,4.5v15H12v-12h4.5v12h3v-15H4.5z" />
    </svg>
    <svg id="icon-vue">
      <title>vue</title>
      <path fill="#54BE8E" d="M19.197,1.611l0.002-0.006h-4.424L12,6.405l-2.772-4.8H4.803V1.61H0l12,20.786L24,1.611L19.197,1.611z"/>
    </svg>
    <svg id="icon-git">
      <title>git</title>
      <path fill="#F42534" d="M19.698,11.288l-6.985-6.985c-0.402-0.403-1.055-0.403-1.457,0L9.805,5.753l1.841,1.84
		c0.428-0.145,0.918-0.047,1.259,0.293c0.343,0.343,0.438,0.837,0.29,1.267l1.774,1.773c0.429-0.148,0.924-0.052,1.267,0.291
		c0.479,0.479,0.479,1.255,0,1.734c-0.479,0.479-1.255,0.479-1.734,0c-0.36-0.361-0.449-0.89-0.267-1.333L12.58,9.964v4.353
		c0.116,0.058,0.227,0.135,0.324,0.231c0.479,0.479,0.479,1.255,0,1.734c-0.479,0.479-1.256,0.479-1.733,0
		c-0.479-0.479-0.479-1.256,0-1.734c0.118-0.118,0.255-0.208,0.4-0.268V9.888c-0.146-0.06-0.282-0.148-0.4-0.268
		c-0.363-0.363-0.451-0.895-0.265-1.34L9.092,6.465l-4.79,4.79c-0.402,0.402-0.402,1.055,0,1.458l6.986,6.985
		c0.402,0.402,1.055,0.402,1.457,0l6.953-6.953C20.101,12.343,20.101,11.69,19.698,11.288z"/>
    </svg>
  </defs>
</svg>


