<?xml version="1.0" encoding="utf-8"?> <svg width="48" height="48" viewBox="0 0 48 48" xmlns="http://www.w3.org/2000/svg" xmlns:xlink="http://www.w3.org/1999/xlink"> <svg id="icon-back" xmlns="http://www.w3.org/2000/svg" viewBox="0 0 24 24"> <path d="M20 14.6c0 1.4-.6 3.2-1.1 4.5-.1.2-.2.6-.3.8-.1.1-.1.2-.2.2-.2.0-.3-.2-.3-.3.0-.2.0-.3.0-.5.0-.4.0-.8.0-1.2.0-4.8-2.5-5.6-6.4-5.6h-2v2.6c0 .4-.3.6-.6.6-.2.0-.3-.1-.4-.2l-4.6-5.1C4.1 10.1 4 9.9 4 9.8 4 9.6 4.1 9.4 4.2 9.3l4.6-5.1C8.8 4.1 9 4 9.1 4c.3.0.6.3.6.6V7.2h2c2.9.0 6.6.6 7.8 4C19.9 12.3 20 13.4 20 14.6v0z"/> </svg> <svg id="icon-check" xmlns="http://www.w3.org/2000/svg" viewBox="0 0 24 24"> <path d="M19.914 7.97c0 .315-.079.552-.316.788l-8.748 9.459c-.158.236-.473.314-.709.314-.237.0-.473-.078-.709-.314l-5.044-5.518c-.157-.158-.236-.395-.236-.71.0-.315.079-.552.315-.788l1.419-1.498c.157-.236.472-.315.709-.315.236.0.473.079.709.315l2.995 3.232 6.7-7.251c.158-.236.474-.315.71-.315s.473.079.709.315l1.419 1.497c.157.237.315.473.315.789H19.914z"/> </svg> <svg id="icon-document-add" xmlns="http://www.w3.org/2000/svg" viewBox="0 0 24 24"> <path d="M12.49 10H11.53V12.479H9.05V13.521H11.53V16H12.49V13.521H15.05V12.479H12.49z"/> <path d="M17.85 8.16l-4-4C13.771 4.08 13.61 4 13.53 4H7.05C6.49 4 6.01 4.48 6.01 5.04v14c0 .48.48.96 1.04.96h10c.561.0 1.04-.479 1.04-.96V8.48C18.01 8.4 17.931 8.24 17.85 8.16zM14.01 5.68 16.33 8h-2.32V5.68zM17.05 19.04v0h-10v-14h6V8c0 .56.48 1.04 1.04 1.04h3.04v10H17.05z"/> </svg> <svg id="icon-document-preview" xmlns="http://www.w3.org/2000/svg" viewBox="0 0 24 24"> <path d="M17.439 15.84c.961-1.279.881-3.119-.319-4.32-.24-.24-.56-.48-.88-.64V8l-4-4H4v16h12.24v-3.12c.16-.08.399-.24.56-.319l2.479 2.56L20 18.4 17.439 15.84zM12.479 5.6l2.16 2.16h-2.16V5.6zM15.279 19.04H4.96V4.96h6.64v3.76h3.76v1.92c-.96-.16-2 .16-2.8.96-1.28 1.28-1.28 3.36.0 4.64.719.72 1.76 1.039 2.8.96v1.84H15.279zM16.479 15.521c-.88.88-2.399.88-3.279.0-.88-.881-.88-2.4.0-3.281.88-.879 2.399-.879 3.279.0C17.439 13.12 17.439 14.64 16.479 15.521z"/> <path d="M5.84 9.68h6.64v.959H5.84z"/> <path d="M5.84 11.52h4.72v.959H5.84z"/> <path d="M5.84 15.279h4.72v.961H5.84z"/> <path d="M5.84 13.439h4.72v.961H5.84z"/> </svg> <svg id="icon-enter" xmlns="http://www.w3.org/2000/svg" viewBox="0 0 24 24"> <path d="M9.6 12H4.8v-2h4.8V8l2.879 3.04L9.6 14V12zm9.6-8v13.04L13.439 20v-2.96H7.68v-4H8.64V16h4.8V7.04l3.84-2H8.64v4H7.68V4H19.2z"/> </svg> <svg id="icon-exit" xmlns="http://www.w3.org/2000/svg" viewBox="0 0 24 24"> <path d="M16.32 14v-2h-4.8v-2h4.8V8l2.88 3.04L16.32 14zM15.36 13.04v4h-4.8V20L4.8 17.04V4H15.36v5.04H14.4v-4H6.72l3.84 2V16h3.84v-2.96H15.36z"/> </svg> <svg id="icon-forward" xmlns="http://www.w3.org/2000/svg" viewBox="0 0 24 24"> <path d="M20 10.24c0 .16-.08.24-.16.4l-4.561 4.081C15.2 14.8 15.04 14.88 14.88 14.88c-.319.0-.56-.24-.56-.479V12.32h-2c-3.84.0-6.4.64-6.4 4.48.0.32.0.64.08.96.0.08.0.24.0.4.0.08-.08.24-.32.24-.16.0-.16-.08-.24-.16-.16-.16-.24-.4-.32-.641C4.64 16.64 4 15.2 4 14.08c0-.88.08-1.84.48-2.64 1.28-2.72 4.88-3.2 7.84-3.2h2V6.08c0-.24.24-.48.56-.48.16.0.32.08.399.16l4.561 4.08C19.92 9.92 20 10.08 20 10.24v0z"/> </svg> <svg id="icon-heart-outline" xmlns="http://www.w3.org/2000/svg" viewBox="0 0 24 24"> <path d="M18.88 9.12c0-2.72-1.68-3.28-3.12-3.28-1.359.0-2.8 1.521-3.28 2.16-.24.24-.64.24-.879.0-.48-.56-2-2.16-3.28-2.16C6.88 5.84 5.2 6.4 5.2 9.12c0 1.76 1.68 3.359 1.68 3.359L12 17.84l5.2-5.36C17.2 12.479 18.88 10.88 18.88 9.12zM20 9.12c0 2.32-2 4.24-2.08 4.319l-5.6 5.761c-.08.079-.24.16-.4.16-.16.0-.32-.081-.4-.16l-5.6-5.761C6 13.36 4 11.44 4 9.12c0-2.8 1.6-4.48 4.24-4.48 1.6.0 3.041 1.28 3.76 2.08.721-.72 2.16-2.08 3.76-2.08C18.4 4.64 20 6.32 20 9.12v0z"/> </svg> <svg id="icon-heart" xmlns="http://www.w3.org/2000/svg" viewBox="0 0 24 24"> <path d="M12 19.36c-.16.0-.32-.081-.4-.16L6 13.439c0-.079-2-2-2-4.319.0-2.8 1.6-4.48 4.24-4.48 1.6.0 3.041 1.28 3.76 2.08.721-.72 2.16-2.08 3.76-2.08C18.4 4.64 20 6.32 20 9.12c0 2.32-2 4.24-2.08 4.319l-5.6 5.761C12.32 19.279 12.16 19.36 12 19.36v0z"/> </svg> <svg id="icon-info" xmlns="http://www.w3.org/2000/svg" viewBox="0 0 24 24"> <path d="M12 4c-4.4 0-8 3.6-8 8s3.6 8 8 8c4.4 0 8-3.6 8-8S16.4 4 12 4zM13.9 16.8c-0.4 0.2-0.7 0.3-1 0.4 -0.2 0.1-0.5 0.1-0.9 0.1 -0.5 0-0.9-0.1-1.2-0.4 -0.3-0.3-0.4-0.6-0.4-1 0-0.2 0-0.3 0-0.5 0-0.2 0.1-0.3 0.1-0.6l0.5-2c0-0.2 0.1-0.4 0.1-0.5 0-0.2 0-0.3 0-0.5 0-0.3 0-0.4-0.1-0.5 -0.1-0.1-0.3-0.1-0.6-0.1 -0.1 0-0.3 0-0.4 0.1 -0.1 0-0.3 0.1-0.4 0.1l0.1-0.6c0.3-0.1 0.7-0.3 1-0.4 0.3-0.1 0.6-0.2 0.9-0.2 0.5 0 0.9 0.1 1.1 0.4 0.3 0.3 0.4 0.6 0.4 1 0 0.1 0 0.2 0 0.5 0 0.2-0.1 0.4-0.1 0.6l-0.5 2c0 0.2-0.1 0.3-0.1 0.5 0 0.2 0 0.4 0 0.5 0 0.3 0.1 0.4 0.2 0.5 0.1 0.1 0.3 0.1 0.6 0.1 0.1 0 0.3 0 0.4-0.1 0.2 0 0.3-0.1 0.3-0.1L13.9 16.8zM13.8 8.8c-0.2 0.2-0.5 0.4-0.9 0.4s-0.6-0.1-0.9-0.4 -0.4-0.5-0.4-0.9c0-0.3 0.1-0.6 0.4-0.9C12.3 6.8 12.6 6.7 12.9 6.7s0.6 0.1 0.9 0.4c0.2 0.2 0.4 0.5 0.4 0.9C14.2 8.3 14.1 8.6 13.8 8.8z"/> </svg> <svg id="icon-menu-open" xmlns="http://www.w3.org/2000/svg" viewBox="0 0 24 24"> <path d="M4 17.333h11.556v-1.777H4V17.333zM4 12.889h8.889v-1.777H4V12.889zM4 6.667v1.778h11.556V6.667H4zM20 15.191 16.817 12 20 8.809l-1.254-1.253L14.302 12l4.444 4.444L20 15.191z"/> </svg> <svg id="icon-menu" xmlns="http://www.w3.org/2000/svg" viewBox="0 0 24 24"> <path d="M4 17.333h16v-1.777H4V17.333zM4 12.889h16v-1.777H4V12.889zM4 6.667v1.778h16V6.667H4z"/> </svg> <svg id="icon-minus" xmlns="http://www.w3.org/2000/svg" viewBox="0 0 24 24"> <path d="M20 10.88v2.16c0 .64-.479 1.12-1.12 1.12H5.12C4.48 14.16 4 13.68 4 13.12v-2.16c0-.64.48-1.12 1.12-1.12h13.84C19.521 9.84 20 10.32 20 10.88z"/> </svg> <svg id="icon-plus" xmlns="http://www.w3.org/2000/svg" viewBox="0 0 24 24"> <path d="M20 10.88v2.16c0 .64-.479 1.12-1.12 1.12h-4.72v4.72c0 .641-.48 1.12-1.12 1.12h-2.16c-.64.0-1.12-.479-1.12-1.12v-4.72H5.12C4.48 14.16 4 13.68 4 13.12v-2.16c0-.64.48-1.12 1.12-1.12h4.72V5.12C9.84 4.48 10.32 4 10.88 4h2.16c.64.0 1.12.48 1.12 1.12v4.72h4.72C19.521 9.84 20 10.32 20 10.88z"/> </svg> <svg id="icon-question-outline" xmlns="http://www.w3.org/2000/svg" viewBox="0 0 24 24"> <path d="M13.2 15.2v1.68c0 .16-.16.32-.32.32H11.2c-.16.0-.32-.16-.32-.32V15.2c0-.16.16-.32.32-.32h1.68C13.04 14.8 13.2 14.96 13.2 15.2zM15.84 10c0 1.44-1.04 2.08-1.76 2.479-.56.32-.88.48-.88.881v.319c0 .16-.16.32-.32.32H11.2c-.16.0-.32-.16-.32-.32v-.72c0-1.28.88-1.68 1.681-2C13.2 10.64 13.6 10.48 13.6 10c0-.64-.8-1.04-1.439-1.04-.4.0-.72.08-.96.32-.24.16-.48.4-.8.88-.24.0-.32.0-.4.0s-.16.0-.16-.08l-1.2-.8C8.48 9.2 8.48 8.96 8.56 8.8c.88-1.36 2.08-2 3.6-2v0C13.92 6.8 15.84 8.16 15.84 10v0zM12 5.36C8.32 5.36 5.36 8.32 5.36 12c0 3.68 2.959 6.64 6.64 6.64 3.68.0 6.64-2.96 6.64-6.64C18.64 8.32 15.68 5.36 12 5.36zM20 12c0 4.4-3.6 8-8 8-4.4.0-8-3.6-8-8 0-4.4 3.6-8 8-8v0C16.4 4 20 7.6 20 12z"/> </svg> <svg id="icon-question" xmlns="http://www.w3.org/2000/svg" viewBox="0 0 24 24"> <path d="M13.36 17.04v-2c0-.16-.16-.319-.32-.319h-2c-.16.0-.32.159-.32.319v2c0 .16.16.32.32.32h2C13.2 17.36 13.36 17.2 13.36 17.04zM16 10c0-1.92-2-3.36-3.76-3.36-1.68.0-2.959.721-3.84 2.24-.16.16-.08.32.0.48l1.36 1.04c.08.08.16.08.16.08.08.0.16-.08.24-.16.479-.64.72-.8.88-.959.16-.16.56-.24.88-.24.641.0 1.28.4 1.28.88.0.56-.32.8-.88 1.12-.72.32-1.76 1.2-1.76 2.24v.399c0 .16.16.32.32.32h2c.16.0.32-.16.32-.32v0c0-.239.32-.72.8-1.039C14.88 12.16 16 11.6 16 10v0zm4 2c0 4.4-3.6 8-8 8-4.4.0-8-3.6-8-8 0-4.4 3.6-8 8-8C16.4 4 20 7.6 20 12z"/> </svg> <svg id="icon-save" xmlns="http://www.w3.org/2000/svg" viewBox="0 0 24 24"> <path d="M8 18.6h8v-4H8v4zM17.4 18.6h1.4V9.3c0-.2-.2-.6-.3-.8l-3-2.9c-.2-.2-.6-.3-.8-.3v4.3c0 .6-.5 1-1 1h-6c-.6.0-1-.5-1-1V5.4H5.4v13.3H6.7v-4.3c0-.6.5-1 1-1h8.6c.6.0 1 .5 1 1L17.4 18.6v0zM13.4 9V5.7c0-.2-.2-.3-.3-.3h-2c-.2.0-.3.2-.3.3V9c0 .2.2.3.3.3h2C13.2 9.3 13.4 9.2 13.4 9zM20 9.3v9.6C20 19.5 19.5 20 19 20H5C4.5 19.9 4 19.4 4 19V5c0-.5.5-1 1-1h9.7c.6.0 1.3.3 1.7.7l2.9 2.9C19.7 8 20 8.8 20 9.3v0z"/> </svg> <svg id="icon-search" xmlns="http://www.w3.org/2000/svg" viewBox="0 0 24 24"> <path d="M15.18 13.808h-.723l-.256-.246c.896-1.044 1.437-2.397 1.437-3.87.0-3.284-2.662-5.946-5.946-5.946S3.745 6.407 3.745 9.691s2.662 5.946 5.946 5.946c1.473.0 2.826-.54 3.87-1.437l.246.256v.723l4.574 4.565 1.363-1.363L15.18 13.808zM9.691 13.808c-2.278.0-4.117-1.838-4.117-4.116.0-2.278 1.839-4.117 4.117-4.117 2.277.0 4.116 1.838 4.116 4.117C13.808 11.969 11.969 13.808 9.691 13.808z"/> </svg> <svg id="icon-star-half-empty" xmlns="http://www.w3.org/2000/svg" viewBox="0 0 24 24"> <path d="M15.445 13.36l2.482-2.561-4.084-.64-.319-.64-1.521-3.2V16l.561.32L15.605 18l-.561-3.6-.08-.641L15.445 13.36zM19.77 10.72l-3.523 3.601.801 5.04c.08.399.0.64-.32.64-.08.0-.24-.08-.4-.16l-4.323-2.319L7.679 19.92c-.16.0-.24.08-.4.08-.32.0-.48-.24-.4-.721l.8-5.039L4.236 10.72c-.4-.48-.24-.88.32-.959l4.804-.72 2.162-4.56c.16-.32.32-.48.48-.48v0c.16.0.32.16.48.4l2.162 4.56 4.804.72C20.089 9.84 20.17 10.24 19.77 10.72v0z"/> </svg> <svg id="icon-star-half" xmlns="http://www.w3.org/2000/svg" viewBox="0 0 24 24"> <path d="M10.502 4.448 8.354 9.064 3.577 9.781c-.239.0-.557.159-.557.478.0.159.159.319.238.478l3.503 3.583-.796 5.015c0 .079.0.159.0.238.0.239.159.478.398.478.159.0.239-.079.398-.158l4.219-2.389V4.05C10.742 4.05 10.582 4.289 10.502 4.448z"/> </svg> <svg id="icon-star-outline" xmlns="http://www.w3.org/2000/svg" viewBox="0 0 24 24"> <path d="M14.96 13.841l2.96-2.945-4.08-.637L12 6.358l-1.84 3.821-4.08.637 2.96 2.946L8.32 17.98l3.6-1.99 3.601 1.99L14.96 13.841zM20 10.259c0 .159-.16.319-.239.478L16.24 14.32l.8 5.015c0 .079.0.159.0.238.0.239-.08.478-.399.478-.161.0-.241-.079-.4-.079L12 17.503l-4.32 2.389c-.161.0-.24.079-.4.079-.241.0-.4-.239-.4-.478.0-.08.0-.159.0-.239l.8-5.015-3.52-3.583c0-.079-.16-.239-.16-.398C4 9.94 4.32 9.861 4.56 9.781l4.8-.717 2.16-4.537C11.6 4.289 11.76 4.05 12 4.05s.4.239.48.398l2.16 4.538 4.801.716C19.68 9.781 20 9.94 20 10.259v0z"/> </svg> <svg id="icon-star" xmlns="http://www.w3.org/2000/svg" viewBox="0 0 24 24"> <path d="M20 10.259c0 .159-.16.319-.24.478l-3.52 3.583.8 5.015c0 .079.0.159.0.238.0.239-.08.478-.4.478-.16.0-.239-.079-.399-.079L12 17.503l-4.32 2.389c-.16.0-.24.079-.4.079-.24.0-.4-.239-.4-.478.0-.08.0-.159.0-.239l.8-5.015-3.52-3.583c0-.079-.16-.239-.16-.398C4 9.94 4.32 9.861 4.56 9.781l4.8-.717 2.16-4.537C11.6 4.289 11.76 4.05 12 4.05s.4.239.479.398l2.16 4.538 4.8.716C19.68 9.781 20 9.94 20 10.259v0z"/> </svg> <svg id="icon-user-circle-outline" xmlns="http://www.w3.org/2000/svg" viewBox="0 0 24 24"> <path d="M12 4c4.4.0 8 3.6 8 8 0 4.4-3.6 8-8 8-4.4.0-8-3.6-8-8C4 7.6 7.6 4 12 4zM17.521 16.08c.8-1.12 1.359-2.56 1.359-4.08.0-3.76-3.12-6.88-6.88-6.88-3.76.0-6.88 3.12-6.88 6.88.0 1.521.48 2.88 1.36 4.08C6.8 14.479 7.6 13.2 9.2 13.2c.72.72 1.68 1.12 2.8 1.12s2.08-.4 2.8-1.12C16.4 13.12 17.2 14.479 17.521 16.08zM15.439 10.32c0-1.92-1.52-3.44-3.439-3.44S8.56 8.4 8.56 10.32s1.52 3.44 3.44 3.44S15.439 12.16 15.439 10.32z"/> </svg> <svg id="icon-user-circle" xmlns="http://www.w3.org/2000/svg" viewBox="0 0 24 24"> <path d="M17.6 15.92c-.239-1.68-.879-3.12-2.399-3.359C14.4 13.439 13.279 14 12 14c-1.28.0-2.4-.561-3.2-1.439C7.28 12.8 6.64 14.24 6.4 15.92c1.28 1.76 3.28 2.96 5.6 2.96C14.32 18.88 16.32 17.68 17.6 15.92zM15.439 9.68c0-1.92-1.52-3.44-3.439-3.44S8.56 7.76 8.56 9.68s1.52 3.44 3.44 3.44S15.439 11.6 15.439 9.68zM20 12c0 4.4-3.6 8-8 8-4.4.0-8-3.6-8-8 0-4.4 3.6-8 8-8C16.4 4 20 7.6 20 12z"/> </svg> <svg id="icon-warning" xmlns="http://www.w3.org/2000/svg" viewBox="0 0 24 24"> <path d="M12 4c4.4.0 8 3.6 8 8 0 4.4-3.6 8-8 8-4.4.0-8-3.6-8-8C4 7.6 7.6 4 12 4zM13.36 16.96v-2c0-.16-.16-.32-.32-.32h-2c-.16.0-.32.16-.32.32v2c0 .16.16.319.32.319h2C13.2 17.36 13.36 17.2 13.36 16.96zM13.279 13.439l.16-6.479c0-.08.0-.16-.079-.16-.081-.08-.16-.08-.24-.08H10.8c-.08.0-.16.0-.24.08-.08.08-.08.08-.08.16l.16 6.479c0 .16.16.24.32.24h1.92c.16.0.32-.08.32-.24H13.279z"/> </svg> <svg id="icon-warning-triangle" xmlns="http://www.w3.org/2000/svg" viewBox="0 0 24 24"> <path d="M13.118 16.87v-1.753c0-.16-.159-.319-.318-.319h-1.674c-.159.0-.318.159-.318.319v1.673c0 .16.159.319.318.319H12.8C13.038 17.109 13.118 17.029 13.118 16.87zM13.118 13.522l.159-4.065c0-.079.0-.159-.079-.159-.08-.08-.16-.08-.239-.08h-1.993c-.08.0-.159.08-.239.08-.08.08-.08.159-.08.159l.16 4.065c0 .08.159.239.318.239H12.8C12.959 13.762 13.118 13.682 13.118 13.522v0zM13.038 5.233l6.855 12.514c.158.318.158.797.0 1.115-.24.319-.559.558-.957.558H5.148c-.398.0-.797-.238-.956-.558-.239-.318-.239-.797.0-1.115l6.854-12.514c.16-.398.558-.558 1.037-.558C12.401 4.596 12.8 4.835 13.038 5.233z"/> </svg> <svg id="icon-upload" xmlns="http://www.w3.org/2000/svg" viewBox="0 0 24 24"> <path d="M16.3 17.6c0-0.3-0.3-0.6-0.6-0.6 -0.3 0-0.6 0.3-0.6 0.6s0.3 0.6 0.6 0.6C16 18.2 16.3 17.9 16.3 17.6zM18.8 17.6c0-0.3-0.3-0.6-0.6-0.6 -0.3 0-0.6 0.3-0.6 0.6s0.3 0.6 0.6 0.6C18.5 18.2 18.8 17.9 18.8 17.6zM20 15.5v2.9c0 0.5-0.4 0.9-0.9 0.9H4.9C4.4 19.3 4 18.9 4 18.5v-2.9c0-0.5 0.4-0.9 0.9-0.9h4.1c0.3 0.7 0.9 1.2 1.7 1.2h2.5c0.8 0 1.5-0.5 1.7-1.2h4.1C19.6 14.6 20 15 20 15.5zM16.9 9.6c-0.1 0.2-0.3 0.4-0.6 0.4h-2.5v4.1c0 0.3-0.3 0.6-0.6 0.6h-2.5c-0.3 0-0.6-0.3-0.6-0.6V9.9H7.7c-0.2 0-0.5-0.1-0.6-0.4C7 9.4 7.1 9.1 7.3 8.9l4.3-4.1C11.7 4.7 11.8 4.7 12 4.7c0.2 0 0.3 0.1 0.4 0.2l4.3 4.1C16.9 9.1 17 9.4 16.9 9.6z"/> </svg> <svg id="icon-trash-outline" xmlns="http://www.w3.org/2000/svg" viewBox="0 0 24 24"> <path d="M10 10.3v6c0 0.2-0.1 0.3-0.3 0.3H9c-0.2 0-0.3-0.1-0.3-0.3v-6C8.7 10.1 8.8 10 9 10h0.7C9.9 10 10 10.1 10 10.3zM12.7 10.3v6c0 0.2-0.1 0.3-0.3 0.3h-0.7c-0.2 0-0.3-0.1-0.3-0.3v-6c0-0.2 0.1-0.3 0.3-0.3h0.7C12.5 10 12.7 10.1 12.7 10.3zM15.3 10.3v6c0 0.2-0.1 0.3-0.3 0.3h-0.7c-0.2 0-0.3-0.1-0.3-0.3v-6C14 10.1 14.1 10 14.3 10H15C15.2 10 15.3 10.1 15.3 10.3zM16.7 17.9V8H7.3v9.9c0 0.5 0.3 0.8 0.3 0.8h8.7C16.4 18.7 16.7 18.4 16.7 17.9zM9.7 6.7h4.7l-0.5-1.2c0 0-0.1-0.1-0.2-0.1h-3.3c-0.1 0-0.1 0.1-0.2 0.1L9.7 6.7zM19.3 7v0.7C19.3 7.9 19.2 8 19 8h-1v9.9C18 19 17.3 20 16.3 20H7.7C6.8 20 6 19.1 6 17.9V8H5C4.8 8 4.7 7.9 4.7 7.7V7c0-0.2 0.1-0.3 0.3-0.3h3.2l0.7-1.7C9.2 4.4 9.8 4 10.3 4h3.3c0.6 0 1.2 0.4 1.4 0.9l0.7 1.7H19C19.2 6.7 19.3 6.8 19.3 7L19.3 7z"/> </svg> <svg id="icon-trash" xmlns="http://www.w3.org/2000/svg" viewBox="0 0 24 24"> <path d="M10 17V9.7c0-0.2-0.1-0.3-0.3-0.3H9c-0.2 0-0.3 0.1-0.3 0.3V17c0 0.2 0.1 0.3 0.3 0.3h0.7C9.9 17.3 10 17.2 10 17zM12.7 17V9.7c0-0.2-0.1-0.3-0.3-0.3h-0.7c-0.2 0-0.3 0.1-0.3 0.3V17c0 0.2 0.1 0.3 0.3 0.3h0.7C12.5 17.3 12.7 17.2 12.7 17zM15.3 17V9.7c0-0.2-0.1-0.3-0.3-0.3h-0.7c-0.2 0-0.3 0.1-0.3 0.3V17c0 0.2 0.1 0.3 0.3 0.3H15C15.2 17.3 15.3 17.2 15.3 17zM9.7 6.7h4.7l-0.5-1.2c0 0-0.1-0.1-0.2-0.1h-3.3c-0.1-0.1-0.2 0-0.2 0L9.7 6.7zM19.3 7v0.7C19.3 7.9 19.2 8 19 8h-1v9.9c0 1.1-0.7 2.1-1.7 2.1H7.7C6.8 20 6 19.1 6 17.9V8H5C4.8 8 4.7 7.9 4.7 7.7V7c0-0.2 0.1-0.3 0.3-0.3h3.2L8.9 5c0.3-0.6 0.9-1 1.4-1h3.3C14.2 4 14.8 4.4 15 4.9l0.7 1.7H19C19.2 6.7 19.3 6.8 19.3 7L19.3 7z"/> </svg> <svg id="icon-buildings" xmlns="http://www.w3.org/2000/svg" viewBox="0 0 24 24"> <path d="M13.3 10l5.9 1.2c0.5 0.1 0.8 0.5 0.8 1v6.8c0 0.6-0.4 1-1 1h-6c0.2 0 0.3-0.1 0.3-0.3v-0.3H19c0.2 0 0.3-0.1 0.3-0.3V12.1c0-0.2-0.1-0.3-0.3-0.3l-5.7-1.1V10z"/> <path d="M17 13.3c0.2 0 0.3 0.1 0.3 0.3 0 0.2-0.1 0.3-0.3 0.3h-1.3c-0.2 0-0.3-0.1-0.3-0.3 0-0.2 0.1-0.3 0.3-0.3H17z"/> <path d="M17 15.3c0.2 0 0.3 0.1 0.3 0.3 0 0.2-0.1 0.3-0.3 0.3h-1.3c-0.2 0-0.3-0.1-0.3-0.3 0-0.2 0.1-0.3 0.3-0.3H17z"/> <path d="M17 17.3c0.2 0 0.3 0.1 0.3 0.3 0 0.2-0.1 0.3-0.3 0.3h-1.3c-0.2 0-0.3-0.1-0.3-0.3 0-0.2 0.1-0.3 0.3-0.3H17z"/> <path d="M13.3 19.6c0 0.2-0.1 0.3-0.3 0.3 -0.2 0-0.3-0.1-0.3-0.3v-0.3 -9c0-0.1 0-0.2 0.1-0.3 0.1-0.1 0.2-0.1 0.3-0.1L13.3 10v0.7 8.6V19.6z"/> <path d="M12.7 19.3v0.3c0 0.2 0.1 0.3 0.3 0.3h-2.7c0.2 0 0.3-0.1 0.3-0.3v-0.3H12.7z"/> <path d="M11 7.3c0.2 0 0.3 0.1 0.3 0.3 0 0.2-0.1 0.3-0.3 0.3H9.7c-0.2 0-0.3-0.1-0.3-0.3 0-0.2 0.1-0.3 0.3-0.3H11z"/> <path d="M11.3 9.6c0 0.2-0.1 0.3-0.3 0.3H9.7c-0.2 0-0.3-0.1-0.3-0.3 0-0.2 0.1-0.3 0.3-0.3H11C11.2 9.3 11.3 9.4 11.3 9.6z"/> <path d="M11 11.3c0.2 0 0.3 0.1 0.3 0.3 0 0.2-0.1 0.3-0.3 0.3H9.7c-0.2 0-0.3-0.1-0.3-0.3 0-0.2 0.1-0.3 0.3-0.3H11z"/> <path d="M11 13.3c0.2 0 0.3 0.1 0.3 0.3 0 0.2-0.1 0.3-0.3 0.3H9.7c-0.2 0-0.3-0.1-0.3-0.3 0-0.2 0.1-0.3 0.3-0.3H11z"/> <path d="M8 13.6c0 0.2-0.1 0.3-0.3 0.3H6.3C6.1 13.9 6 13.8 6 13.6c0-0.2 0.1-0.3 0.3-0.3h1.3C7.9 13.3 8 13.4 8 13.6z"/> <path d="M7.7 7.3C7.9 7.3 8 7.4 8 7.6 8 7.8 7.9 7.9 7.7 7.9H6.3C6.1 7.9 6 7.8 6 7.6 6 7.4 6.1 7.3 6.3 7.3H7.7z"/> <path d="M7.7 9.3C7.9 9.3 8 9.4 8 9.6 8 9.8 7.9 9.9 7.7 9.9H6.3C6.1 9.9 6 9.8 6 9.6 6 9.4 6.1 9.3 6.3 9.3H7.7z"/> <path d="M7.7 11.3C7.9 11.3 8 11.4 8 11.6c0 0.2-0.1 0.3-0.3 0.3H6.3C6.1 11.9 6 11.8 6 11.6c0-0.2 0.1-0.3 0.3-0.3H7.7z"/> <path d="M10 16.3c0-0.2-0.2-0.3-0.3-0.3h-2c-0.2 0-0.3 0.1-0.3 0.3v3H6.7v-3c0-0.6 0.4-1 1-1h2c0.6 0 1 0.4 1 1v3H10V16.3z"/> <path d="M7.3 19.3H10h0.7v0.3c0 0.2-0.1 0.3-0.3 0.3H7c-0.2 0-0.3-0.1-0.3-0.3v-0.3H7.3z"/> <path d="M5.2 4.1l7.3 1.1c0.5 0.1 0.8 0.5 0.8 1V10l-0.3-0.1c-0.1 0-0.2 0-0.3 0.1 -0.1 0.1-0.1 0.2-0.1 0.3v-4.1c0-0.2-0.1-0.3-0.3-0.3L5.1 4.7C5 4.7 5 4.7 5 4.7c-0.1 0-0.2 0-0.2 0.1 -0.1 0.1-0.1 0.2-0.1 0.3v13.9c0 0.2 0.2 0.3 0.3 0.3h1.7v0.3c0 0.2 0.1 0.3 0.3 0.3H5c-0.6 0-1-0.4-1-1V5.1C4 4.8 4.1 4.5 4.4 4.3 4.6 4.1 4.9 4 5.2 4.1z"/> </svg> <svg id="icon-certificate" xmlns="http://www.w3.org/2000/svg" viewBox="0 0 24 24"> <g> <path fill="none" d="M14.684 16.344c-.034.08-.072.158-.113.234-.017.033-.035.064-.053.096-.037.063-.075.123-.117.183-.027.04-.058.082-.088.122-.037.046-.073.092-.111.136-.042.048-.084.093-.128.138-.034.034-.068.067-.104.1-.028.025-.056.057-.083.08s-.059.042-.085.064c-.015.012-.026.023-.04.035-.027.02-.054.037-.08.055-.037.026-.072.053-.109.077-.076.05-.156.097-.236.139-.029.015-.059.028-.088.042-.072.035-.145.066-.22.096-.02.008-.039.016-.06.023-.101.036-.204.066-.309.091h-.002l.957 1.163.54-1.27c.033-.079.101-.137.183-.156l1.32-.322-.957-1.162C14.695 16.318 14.688 16.33 14.684 16.344z" /> <path fill="none" d="M12.721 17.47c.035-.011.072-.024.103-.036s.061-.022.091-.035c.021-.009.043-.02.064-.029.042-.018.082-.037.121-.059.011-.006.02-.012.03-.017.05-.027.099-.056.147-.087l.003-.002c.054-.035.104-.07.159-.112.055-.042.105-.089.156-.134.06-.056.117-.113.172-.174.021-.023.044-.045.064-.068.074-.09.142-.185.202-.283.011-.016.019-.031.026-.047.057-.096.106-.195.149-.299.004-.008.009-.018.012-.027.048-.119.085-.241.113-.366.001-.005.004-.009.005-.013.04-.179.061-.361.061-.544-.001-1.351-1.076-2.444-2.402-2.444C10.673 12.694 9.6 13.79 9.6 15.141c0 .181.02.361.059.537.001.006.005.01.005.014.028.125.066.248.114.367.003.008.008.018.011.027.043.104.093.203.149.301.01.015.018.03.027.045.061.1.128.193.203.283.02.024.043.047.064.07.054.06.11.117.17.171.051.046.102.093.157.135.1.076.204.146.314.204l.021.013c.042.022.086.043.13.063.02.01.038.018.058.026.031.014.063.025.095.037.033.013.066.024.1.035.02.007.039.012.059.017.046.014.094.027.141.037l.022.006c.122.025.245.042.37.049h.004c.042.002.084.006.127.006.042.0.084-.004.126-.006h.004c.124-.007.249-.023.371-.05l.021-.005c.049-.01.096-.023.144-.037C12.684 17.48 12.702 17.477 12.721 17.47zM12 17.043c-1.03-.002-1.865-.853-1.867-1.902.0-1.051.836-1.902 1.867-1.902s1.867.852 1.867 1.902S13.031 17.043 12 17.043z"/> <ellipse fill="none" cx="12" cy="15.141" rx="1.334" ry="1.358"/> <path fill="none" d="M11.031 17.961c-.021-.008-.041-.016-.063-.023-.072-.028-.144-.06-.215-.094-.03-.015-.062-.029-.092-.045-.079-.041-.157-.086-.232-.136-.041-.024-.078-.054-.117-.081-.023-.018-.049-.034-.073-.053-.014-.01-.024-.021-.038-.032-.028-.022-.057-.04-.087-.065-.03-.026-.056-.055-.085-.082-.034-.031-.068-.064-.102-.098-.044-.045-.089-.094-.128-.139-.038-.045-.075-.09-.11-.136-.031-.041-.061-.081-.09-.122-.041-.061-.08-.121-.116-.184-.019-.031-.036-.063-.054-.094-.041-.077-.078-.154-.113-.236-.006-.012-.012-.023-.018-.035L8.342 17.47l1.32.321c.082.02.149.078.183.156l.54 1.27.957-1.164-.002-.001C11.235 18.027 11.133 17.997 11.031 17.961z" /> <path fill="none" d="M4.533 14.869H9.08c.127-1.439 1.246-2.58 2.658-2.709 1.612-.146 3.037 1.065 3.182 2.709h4.547V4.543H4.533V14.869zM17.6 5.087h1.066c.148.0.268.122.268.271v1.087H18.4V5.631H17.6V5.087zm0 8.695H18.4v-.815h.533v1.087c0 .149-.119.271-.268.271H17.6V13.782zM8.8 6.988h6.4v.544H8.8V6.988zM7.2 8.619h9.6v.543H7.2V8.619zM5.066 5.358c0-.149.119-.271.268-.271H6.4v.544H5.6v.814H5.066V5.358zM5.066 12.967H5.6v.815H6.4v.543H5.334c-.148.0-.268-.122-.268-.271V12.967z"/> <path d="M19.733 4H4.267C4.119 4 4 4.121 4 4.271V15.14c0 .15.119.271.267.271h4.815c.008.091.021.18.037.268l-1.463 1.777c-.095.114-.08.285.032.383.032.026.069.046.11.056l1.609.392.658 1.549c.059.138.216.201.352.142.037-.017.071-.042.098-.075l1.461-1.773c.008.0.016.0.023.0s.016.0.023.0l1.461 1.773c.094.115.263.131.375.034.032-.027.057-.062.074-.101l.658-1.549 1.609-.392c.144-.034.232-.181.198-.327-.01-.041-.028-.08-.056-.111l-1.463-1.777c.016-.088.029-.177.037-.268h4.815c.147.0.267-.121.267-.271V4.271C20 4.121 19.881 4 19.733 4zM10.385 19.217l-.54-1.27c-.033-.078-.101-.137-.183-.156l-1.32-.321.957-1.163c.006.012.012.023.018.035.035.082.072.159.113.236.018.031.035.063.054.094.036.063.075.123.116.184.029.041.059.081.09.122.035.046.072.091.11.136.039.045.084.094.128.139.033.033.067.066.102.098.029.027.055.056.085.082.03.025.059.043.087.065.014.011.024.022.038.032.024.019.05.035.073.053.039.027.076.057.117.081.075.05.153.095.232.136.03.016.062.03.092.045.071.034.143.065.215.094.021.008.041.016.063.023.102.036.204.066.309.091l.002.001L10.385 19.217zM12.501 17.528c-.122.026-.247.043-.371.05h-.004c-.042.002-.084.006-.126.006-.043.0-.085-.004-.127-.006h-.004c-.125-.007-.248-.023-.37-.049l-.022-.006c-.047-.01-.095-.023-.141-.037-.02-.005-.039-.01-.059-.017-.033-.011-.066-.022-.1-.035-.032-.012-.063-.023-.095-.037-.02-.009-.038-.017-.058-.026-.044-.021-.088-.041-.13-.063l-.021-.013c-.11-.059-.215-.128-.314-.204-.056-.042-.106-.089-.157-.135-.06-.054-.116-.111-.17-.171-.021-.023-.045-.046-.064-.07-.075-.09-.143-.184-.203-.283-.01-.015-.018-.03-.027-.045-.057-.098-.106-.197-.149-.301-.003-.01-.008-.02-.011-.027-.048-.119-.086-.242-.114-.367.0-.004-.004-.008-.005-.014C9.619 15.502 9.6 15.321 9.6 15.141c0-1.351 1.073-2.446 2.398-2.447 1.326.0 2.401 1.094 2.402 2.444.0.183-.021.365-.061.544-.001.004-.004.008-.005.013-.028.125-.065.247-.113.366-.003.01-.008.02-.012.027-.043.104-.093.203-.149.299-.008.016-.016.031-.026.047-.061.099-.128.193-.202.283-.021.023-.043.045-.064.068-.055.061-.112.118-.172.174-.051.045-.102.092-.156.134-.056.042-.105.077-.159.112l-.003.002c-.049.031-.098.06-.147.087-.011.005-.02.011-.03.017-.039.021-.079.041-.121.059-.021.01-.043.021-.064.029-.03.013-.061.023-.091.035s-.067.025-.103.036c-.019.007-.037.011-.056.017-.048.014-.095.027-.144.037L12.501 17.528zM15.658 17.469l-1.32.322c-.082.02-.149.077-.183.156l-.54 1.27-.957-1.163h.002c.104-.024.208-.055.309-.091.021-.008.04-.016.06-.023.075-.029.147-.061.22-.096.029-.014.059-.027.088-.042.08-.042.16-.089.236-.139.037-.024.072-.051.109-.077.026-.018.053-.035.08-.055.014-.012.025-.023.04-.035.026-.022.058-.041.085-.064s.055-.055.083-.08c.035-.032.069-.065.104-.1.044-.045.086-.09.128-.138.038-.044.074-.09.111-.136.03-.04.061-.082.088-.122.042-.06.08-.12.117-.183.018-.031.036-.063.053-.096.041-.076.079-.154.113-.234.005-.014.012-.025.018-.037L15.658 17.469zM19.467 14.869H14.92c-.145-1.644-1.569-2.855-3.182-2.709-1.412.129-2.531 1.27-2.658 2.709H4.533V4.543h14.934V14.869z"/> <path d="M5.6 5.631H6.4V5.087H5.334c-.148.0-.268.122-.268.271v1.087H5.6V5.631z"/> <path d="M18.4 6.445h.533V5.358c0-.149-.119-.271-.268-.271H17.6v.544H18.4V6.445z"/> <path d="M18.934 14.054v-1.087H18.4v.815H17.6v.543h1.066C18.814 14.325 18.934 14.203 18.934 14.054z"/> <path d="M5.334 14.325H6.4v-.543H5.6v-.815H5.066v1.087C5.066 14.203 5.186 14.325 5.334 14.325z"/> <path d="M8.8 6.988h6.4v.544H8.8z"/> <path d="M7.2 8.619h9.6v.543H7.2z"/> <path d="M13.867 15.141c0-1.051-.836-1.902-1.867-1.902s-1.867.852-1.867 1.902c.002 1.05.837 1.9 1.867 1.902C13.031 17.043 13.867 16.191 13.867 15.141zM12 16.499c-.736.0-1.334-.608-1.334-1.358.002-.75.598-1.357 1.334-1.358.736.0 1.334.608 1.334 1.358S12.736 16.499 12 16.499z"/> </g> </svg> <svg id="icon-download" xmlns="http://www.w3.org/2000/svg" viewBox="0 0 24 24"> <path d="M16.3 17.5c0-0.3-0.3-0.6-0.6-0.6 -0.3 0-0.6 0.3-0.6 0.6 0 0.3 0.3 0.6 0.6 0.6C16 18.1 16.3 17.8 16.3 17.5zM18.8 17.5c0-0.3-0.3-0.6-0.6-0.6 -0.3 0-0.6 0.3-0.6 0.6 0 0.3 0.3 0.6 0.6 0.6C18.5 18.1 18.8 17.8 18.8 17.5zM20 15.4v3.1c0 0.5-0.4 0.9-0.9 0.9H4.9C4.4 19.3 4 18.9 4 18.4v-3.1c0-0.5 0.4-0.9 0.9-0.9h4.5l1.3 1.3c0.4 0.3 0.8 0.5 1.3 0.5s1-0.2 1.3-0.5l1.3-1.3h4.5C19.6 14.4 20 14.9 20 15.4zM16.9 9.9c0.1 0.2 0 0.5-0.1 0.7l-4.3 4.3c-0.1 0.1-0.3 0.2-0.4 0.2 -0.2 0-0.3-0.1-0.4-0.2L7.3 10.6c-0.2-0.2-0.2-0.4-0.1-0.7 0.1-0.2 0.3-0.4 0.6-0.4h2.5V5.3c0-0.3 0.3-0.6 0.6-0.6h2.5c0.3 0 0.6 0.3 0.6 0.6v4.3h2.5C16.6 9.6 16.8 9.7 16.9 9.9z"/> </svg> <svg id="icon-id-badge" xmlns="http://www.w3.org/2000/svg" viewBox="0 0 24 24"> <path d="M19.7 11.6h-6.9l0.7-0.9C14.5 9.6 15.3 8.1 16 6.1l0.5-1.3c0.1-0.1 0-0.3-0.2-0.3 -0.1-0.1-0.3 0-0.3 0.2l-0.5 1.3c-0.7 1.9-1.5 3.4-2.3 4.5l-1 1.2h-0.3l-1-1.2c-0.9-1-1.7-2.5-2.3-4.5L8 4.6C7.9 4.4 7.8 4.4 7.7 4.4c-0.2 0.1-0.2 0.2-0.2 0.3L8 6.1c0.7 2 1.5 3.5 2.4 4.6l0.7 0.9H4.3C4.1 11.6 4 11.7 4 11.9v7.5c0 0.2 0.1 0.3 0.3 0.3h15.5c0.2 0 0.3-0.1 0.3-0.3v-7.5C20 11.7 19.9 11.6 19.7 11.6zM13.3 12.7c0 0.3-0.2 0.5-0.5 0.5H11.2c-0.3 0-0.5-0.2-0.5-0.5 0-0.3 0.2-0.5 0.5-0.5h0.5 0.5H12.8C13.1 12.1 13.3 12.4 13.3 12.7zM19.5 19.1H4.5v-6.9h5.7c-0.1 0.2-0.1 0.3-0.1 0.5 0 0.6 0.5 1.1 1.1 1.1H12.8c0.6 0 1.1-0.5 1.1-1.1 0-0.2-0.1-0.4-0.1-0.5h5.7V19.1z"/> <path d="M14.4 18.3h0.1 4.1 0.1c0.2 0 0.3-0.1 0.3-0.3v-4.8c0-0.2-0.1-0.3-0.3-0.3H14.4c-0.2 0-0.3 0.1-0.3 0.3v4.8C14.1 18.2 14.2 18.3 14.4 18.3zM14.9 17.7c0.3-0.5 1-1.1 1.7-1.1s1.3 0.5 1.6 1.1H14.9zM16.5 16.1c-0.5 0-0.8-0.3-0.8-0.8 0-0.5 0.3-0.8 0.8-0.8 0.5 0 0.8 0.3 0.8 0.8C17.3 15.8 17 16.1 16.5 16.1zM18.4 13.5v3.7c-0.3-0.3-0.6-0.6-1-0.8 0.3-0.2 0.4-0.6 0.4-1 0-0.7-0.6-1.3-1.3-1.3 -0.7 0-1.3 0.6-1.3 1.3 0 0.4 0.2 0.8 0.5 1 -0.4 0.2-0.7 0.5-1 0.8v-3.7H18.4z"/> <path d="M5.6 14.8h4c0.2 0 0.3-0.1 0.3-0.3 0-0.2-0.1-0.3-0.3-0.3h-4c-0.2 0-0.3 0.1-0.3 0.3C5.3 14.7 5.4 14.8 5.6 14.8z"/> <path d="M12.3 14.3H10.9c-0.2 0-0.3 0.1-0.3 0.3 0 0.2 0.1 0.3 0.3 0.3h1.3c0.2 0 0.3-0.1 0.3-0.3C12.5 14.4 12.4 14.3 12.3 14.3z"/> <path d="M6.9 17.5H5.6c-0.2 0-0.3 0.1-0.3 0.3S5.4 18 5.6 18h1.3c0.2 0 0.3-0.1 0.3-0.3S7.1 17.5 6.9 17.5z"/> <path d="M12.3 15.9H5.6c-0.2 0-0.3 0.1-0.3 0.3S5.4 16.4 5.6 16.4h6.7c0.2 0 0.3-0.1 0.3-0.3S12.4 15.9 12.3 15.9z"/> <path d="M12.3 17.5h-4C8.1 17.5 8 17.6 8 17.7s0.1 0.3 0.3 0.3h4c0.2 0 0.3-0.1 0.3-0.3S12.4 17.5 12.3 17.5z"/> </svg> <svg id="icon-close" xmlns="http://www.w3.org/2000/svg" viewBox="0 0 24 24"> <path d="M14.6 12l5-4.9c0.5-0.5 0.5-1.4 0-2l-0.7-0.7c-0.5-0.5-1.4-0.5-2 0L12 9.4 7.1 4.4c-0.5-0.5-1.4-0.5-2 0L4.4 5.1c-0.5 0.5-0.5 1.4 0 2 0 0 0 0 0 0L9.4 12l-4.9 5c-0.5 0.5-0.5 1.4 0 2l0.7 0.7c0.5 0.5 1.4 0.5 2 0L12 14.6l5 5c0.5 0.5 1.4 0.5 2 0l0.7-0.7c0.5-0.5 0.5-1.4 0-2L14.6 12z"/> </svg> <svg id="icon-dashboard" xmlns="http://www.w3.org/2000/svg" viewBox="0 0 24 24"> <path d="M7.4 13.8c0-0.7-0.5-1.2-1.1-1.2 -0.6 0-1.1 0.5-1.1 1.2 0 0.7 0.5 1.2 1.1 1.2S7.4 14.5 7.4 13.8zM9.1 9.6c0-0.7-0.5-1.2-1.1-1.2s-1.1 0.5-1.1 1.2c0 0.7 0.5 1.2 1.1 1.2S9.1 10.2 9.1 9.6zM13 14.1l0.9-3.6c0.1-0.3-0.1-0.7-0.4-0.7l0 0c-0.3-0.1-0.6 0.1-0.7 0.4l-0.9 3.6c-0.7 0.1-1.3 0.6-1.5 1.3 -0.2 1 0.3 2 1.2 2.2 0.9 0.3 1.9-0.3 2.1-1.3C13.9 15.3 13.5 14.6 13 14.1zM18.9 13.8c0-0.7-0.5-1.2-1.1-1.2 -0.6 0-1.1 0.5-1.1 1.2 0 0.7 0.5 1.2 1.1 1.2C18.3 15 18.9 14.5 18.9 13.8zM13.1 7.8c0-0.7-0.5-1.2-1.1-1.2 -0.6 0-1.1 0.5-1.1 1.2S11.4 9 12 9C12.6 9 13.1 8.4 13.1 7.8zM17.1 9.6c0-0.7-0.5-1.2-1.1-1.2s-1.1 0.5-1.1 1.2c0 0.7 0.5 1.2 1.1 1.2S17.1 10.2 17.1 9.6zM20 13.8c0 1.6-0.4 3.2-1.3 4.6 -0.1 0.2-0.3 0.3-0.5 0.3H5.7c-0.2 0-0.4-0.1-0.5-0.3C4.4 17 4 15.4 4 13.8c0-4.7 3.6-8.5 8-8.5C16.4 5.3 20 9.1 20 13.8z"/> </svg> <svg id="icon-cart" xmlns="http://www.w3.org/2000/svg" viewBox="0 0 24 24"> <path d="M7 17.6C7.5 17.6 8 18.2 8 18.8S7.5 20 7 20c-0.5 0-1-0.6-1-1.2S6.4 17.6 7 17.6zM18.1 17.6c0.6 0 1 0.6 1 1.2s-0.5 1.2-1 1.2c-0.5 0-1-0.6-1-1.2S17.6 17.6 18.1 17.6zM19.5 6.2C19.5 6 19.2 5.9 19.1 5.9H7.3 7.2V5.8L6.5 4H4.8C4.3 4 4 4.4 4 4.9c0 0.6 0.4 1 0.8 1h0.6H5.5L5.6 6l3.5 9.5 0.1 0.2 -0.1 0.1L8.5 16.3C8.2 16.6 8.2 17.2 8.5 17.6 8.6 17.8 8.9 18 9.1 18c0.2 0 0.4-0.1 0.5-0.2l0.9-0.8 0.1-0.1h0.1 7.8c0.4 0 0.8-0.4 0.8-0.9s-0.3-0.9-0.8-0.9H11h-0.1v-0.1c0-0.1-0.1-0.1-0.1-0.1l-0.1-0.1v-0.1L10.6 14.4v-0.2l0.2-0.1L19.2 12c0.3-0.1 0.5-0.4 0.5-0.7L20 6.9C19.7 6.6 19.6 6.4 19.5 6.2zM18.2 7.6v0.2l-0.1 1.6h-3L14.7 7.6h3.4H18.2L18.2 7.6zM12.3 11.8l-0.4-1.7h2.7l0.2 1L12.3 11.8zM14 7.6l0.5 1.8h-2.7L11.3 7.6H14zM7.8 7.6h0.3 2.5v0.1l0.5 1.8H8.5l0 0L7.9 7.9 7.8 7.6zM9.8 12.5l-0.2 0.1L9.6 12.4l-0.8-2.2h2.4l0.4 1.8L9.8 12.5zM18 10.5l-0.2 0.1 -2.4 0.6 -0.2-0.9h2.7v0.1V10.5z"/> </svg> <svg id="icon-terminal" xmlns="http://www.w3.org/2000/svg" viewBox="0 0 24 24"> <path d="M4 5v14h16V5H4zM19 18H5V6h14V18zM18 7H6v10h12V7zM11 12h-1v1H9v1H8v-1h1v-1h1v-1H9v-1H8V9h1v1h1v1h1V12zM15 14h-3v-1h3V14z"/> </svg> <svg id="icon-facebook-simple" xmlns="http://www.w3.org/2000/svg" viewBox="0 0 24 24"> <path d="M15.4 11.7H13.3V20h-3.2v-8.3H8.2V9.1h1.9V7.6C10.1 5.3 11 4 13.7 4h2.2v2.6h-1.5c-1 0-1.1 0.4-1.1 1.1V9.1h2.6L15.4 11.7z"/> </svg> </svg>