<svg aria-hidden="true" style="position: absolute; width: 0; height: 0; overflow: hidden;" version="1.1"
  xmlns="http://www.w3.org/2000/svg"
  xmlns:xlink="http://www.w3.org/1999/xlink">
  <defs>


    <svg id="icon-git"
      xmlns="http://www.w3.org/2000/svg" viewBox="0 0 24 24">
      <path fill="#F42534" d="M19.698,11.288l-6.985-6.985c-0.402-0.403-1.055-0.403-1.457,0L9.805,5.753l1.841,1.84
		c0.428-0.145,0.918-0.047,1.259,0.293c0.343,0.343,0.438,0.837,0.29,1.267l1.774,1.773c0.429-0.148,0.924-0.052,1.267,0.291
		c0.479,0.479,0.479,1.255,0,1.734c-0.479,0.479-1.255,0.479-1.734,0c-0.36-0.361-0.449-0.89-0.267-1.333L12.58,9.964v4.353
		c0.116,0.058,0.227,0.135,0.324,0.231c0.479,0.479,0.479,1.255,0,1.734c-0.479,0.479-1.256,0.479-1.733,0
		c-0.479-0.479-0.479-1.256,0-1.734c0.118-0.118,0.255-0.208,0.4-0.268V9.888c-0.146-0.06-0.282-0.148-0.4-0.268
		c-0.363-0.363-0.451-0.895-0.265-1.34L9.092,6.465l-4.79,4.79c-0.402,0.402-0.402,1.055,0,1.458l6.986,6.985
		c0.402,0.402,1.055,0.402,1.457,0l6.953-6.953C20.101,12.343,20.101,11.69,19.698,11.288z"/>
    </svg>
    <svg id="icon-ssh"
      xmlns="http://www.w3.org/2000/svg" viewBox="0 0 24 24">
      <path d="M4 5v14h16V5H4zM19 18H5V6h14V18zM18 7H6v10h12V7zM11 12h-1v1H9v1H8v-1h1v-1h1v-1H9v-1H8V9h1v1h1v1h1V12zM15 14h-3v-1h3V14z"/>
    </svg>
    <svg id="icon-laravel"
      xmlns="http://www.w3.org/2000/svg" viewBox="0 0 24 24">
      <path fill="#E84631" d="M8.306,12.844l-4.26-7.117C4.239,4.737,5.099,4,6.129,4C6.13,4,6.132,4,6.134,4H17.88
		c0.881,0,1.633,0.534,1.954,1.293c-0.347-0.32-0.554-0.24-0.8-0.2c-0.307,0.04-3.8,0.627-4.2,0.7
		C14.42,5.86,14.167,6.021,14.42,6.374l3.021,4.282L8.306,12.844L8.306,12.844z M7.7,14.284L4,15.251v2.621
		C4.004,19.048,4.958,20,6.134,20l0,0h4.793c-0.627-1.021-2.333-4.102-3.22-5.708H7.7V14.284z M14.533,19.993h3.347
		c1.121,0,2.034-0.867,2.114-1.954L14.533,19.993z M6.96,12.903L4.014,7.815v6.069L6.9,13.19C7.134,13.137,7.073,13.11,6.96,12.903z
		 M19.58,6.074c-0.167-0.227-0.287-0.193-0.42-0.16c-0.134,0.034-3.181,0.58-3.367,0.6c-0.187,0.033-0.126,0.133-0.046,0.24
		l2.666,3.668L20,10.042V6.615c-0.106-0.129-0.243-0.303-0.378-0.478L19.58,6.081V6.074z M17.866,11.636L8.96,13.958
		c0,0,2.734,4.735,2.94,5.035c0.214,0.307,0.34,0.28,0.506,0.214c0.12-0.054,5.201-1.774,7.594-2.582v-2.54l-1.706-2.335
		C18.188,11.583,18.128,11.55,17.866,11.636L17.866,11.636z M19.167,11.396L20,12.517v-1.46l-0.899,0.247L19.167,11.396z"/>
    </svg>
    <svg id="icon-github"
      xmlns="http://www.w3.org/2000/svg" viewBox="0 0 24 24">
      	<path d="M12,4c-4.418,0-8,3.672-8,8.202c0,3.624,2.292,6.699,5.472,7.783c0.399,0.075,0.547-0.179,0.547-0.396
		c0-0.195-0.008-0.841-0.011-1.526c-2.227,0.496-2.696-0.967-2.696-0.967c-0.363-0.948-0.888-1.201-0.888-1.201
		c-0.727-0.51,0.056-0.499,0.056-0.499c0.803,0.058,1.226,0.847,1.226,0.847c0.714,1.254,1.872,0.891,2.328,0.681
		c0.071-0.53,0.278-0.892,0.508-1.097c-1.777-0.207-3.645-0.911-3.645-4.053c0-0.896,0.313-1.627,0.825-2.202
		C7.638,9.364,7.362,8.53,7.797,7.401c0,0,0.673-0.221,2.201,0.84c0.638-0.182,1.322-0.272,2.003-0.276
		c0.679,0.003,1.364,0.095,2.004,0.276c1.526-1.061,2.197-0.84,2.197-0.84c0.436,1.13,0.161,1.964,0.078,2.17
		c0.514,0.573,0.824,1.306,0.824,2.202c0,3.149-1.873,3.843-3.653,4.046c0.287,0.256,0.542,0.754,0.542,1.52
		c0,1.098-0.01,1.98-0.01,2.25c0,0.218,0.145,0.476,0.549,0.395C17.71,18.898,20,15.825,20,12.203C20,7.672,16.418,4,12,4z"/>
    </svg>
    <!-- <svg id="icon-ssh"
      xmlns="http://www.w3.org/2000/svg" viewBox="0 0 24 24">
      <path d="M4 5v14h16V5H4zM19 18H5V6h14V18zM18 7H6v10h12V7zM11 12h-1v1H9v1H8v-1h1v-1h1v-1H9v-1H8V9h1v1h1v1h1V12zM15 14h-3v-1h3V14z"/>
    </svg> -->

  </defs>

</svg>


