<svg id="Layer_1" xmlns="http://www.w3.org/2000/svg" xmlns:xlink="http://www.w3.org/1999/xlink" width="24" height="24" viewBox="0 0 24 24" enable-background="new 0 0 24 24"><path d="M18.88 9.12c0-2.72-1.68-3.28-3.12-3.28-1.359.0-2.8 1.521-3.28 2.16-.24.24-.64.24-.879.0-.48-.56-2-2.16-3.28-2.16C6.88 5.84 5.2 6.4 5.2 9.12c0 1.76 1.68 3.359 1.68 3.359L12 17.84l5.2-5.36C17.2 12.479 18.88 10.88 18.88 9.12zM20 9.12c0 2.32-2 4.24-2.08 4.319l-5.6 5.761c-.08.079-.24.16-.4.16-.16.0-.32-.081-.4-.16l-5.6-5.761C6 13.36 4 11.44 4 9.12c0-2.8 1.6-4.48 4.24-4.48 1.6.0 3.041 1.28 3.76 2.08.721-.72 2.16-2.08 3.76-2.08C18.4 4.64 20 6.32 20 9.12v0z"/></svg>