<svg xmlns="http://www.w3.org/2000/svg" width="24" height="24" viewBox="0 0 24 24"><path d="M13.3 10l5.9 1.2c0.5 0.1 0.8 0.5 0.8 1v6.8c0 0.6-0.4 1-1 1h-6c0.2 0 0.3-0.1 0.3-0.3v-0.3H19c0.2 0 0.3-0.1 0.3-0.3V12.1c0-0.2-0.1-0.3-0.3-0.3l-5.7-1.1V10z"/><path d="M17 13.3c0.2 0 0.3 0.1 0.3 0.3 0 0.2-0.1 0.3-0.3 0.3h-1.3c-0.2 0-0.3-0.1-0.3-0.3 0-0.2 0.1-0.3 0.3-0.3H17z"/><path d="M17 15.3c0.2 0 0.3 0.1 0.3 0.3 0 0.2-0.1 0.3-0.3 0.3h-1.3c-0.2 0-0.3-0.1-0.3-0.3 0-0.2 0.1-0.3 0.3-0.3H17z"/><path d="M17 17.3c0.2 0 0.3 0.1 0.3 0.3 0 0.2-0.1 0.3-0.3 0.3h-1.3c-0.2 0-0.3-0.1-0.3-0.3 0-0.2 0.1-0.3 0.3-0.3H17z"/><path d="M13.3 19.6c0 0.2-0.1 0.3-0.3 0.3 -0.2 0-0.3-0.1-0.3-0.3v-0.3 -9c0-0.1 0-0.2 0.1-0.3 0.1-0.1 0.2-0.1 0.3-0.1L13.3 10v0.7 8.6V19.6z"/><path d="M12.7 19.3v0.3c0 0.2 0.1 0.3 0.3 0.3h-2.7c0.2 0 0.3-0.1 0.3-0.3v-0.3H12.7z"/><path d="M11 7.3c0.2 0 0.3 0.1 0.3 0.3 0 0.2-0.1 0.3-0.3 0.3H9.7c-0.2 0-0.3-0.1-0.3-0.3 0-0.2 0.1-0.3 0.3-0.3H11z"/><path d="M11.3 9.6c0 0.2-0.1 0.3-0.3 0.3H9.7c-0.2 0-0.3-0.1-0.3-0.3 0-0.2 0.1-0.3 0.3-0.3H11C11.2 9.3 11.3 9.4 11.3 9.6z"/><path d="M11 11.3c0.2 0 0.3 0.1 0.3 0.3 0 0.2-0.1 0.3-0.3 0.3H9.7c-0.2 0-0.3-0.1-0.3-0.3 0-0.2 0.1-0.3 0.3-0.3H11z"/><path d="M11 13.3c0.2 0 0.3 0.1 0.3 0.3 0 0.2-0.1 0.3-0.3 0.3H9.7c-0.2 0-0.3-0.1-0.3-0.3 0-0.2 0.1-0.3 0.3-0.3H11z"/><path d="M8 13.6c0 0.2-0.1 0.3-0.3 0.3H6.3C6.1 13.9 6 13.8 6 13.6c0-0.2 0.1-0.3 0.3-0.3h1.3C7.9 13.3 8 13.4 8 13.6z"/><path d="M7.7 7.3C7.9 7.3 8 7.4 8 7.6 8 7.8 7.9 7.9 7.7 7.9H6.3C6.1 7.9 6 7.8 6 7.6 6 7.4 6.1 7.3 6.3 7.3H7.7z"/><path d="M7.7 9.3C7.9 9.3 8 9.4 8 9.6 8 9.8 7.9 9.9 7.7 9.9H6.3C6.1 9.9 6 9.8 6 9.6 6 9.4 6.1 9.3 6.3 9.3H7.7z"/><path d="M7.7 11.3C7.9 11.3 8 11.4 8 11.6c0 0.2-0.1 0.3-0.3 0.3H6.3C6.1 11.9 6 11.8 6 11.6c0-0.2 0.1-0.3 0.3-0.3H7.7z"/><path d="M10 16.3c0-0.2-0.2-0.3-0.3-0.3h-2c-0.2 0-0.3 0.1-0.3 0.3v3H6.7v-3c0-0.6 0.4-1 1-1h2c0.6 0 1 0.4 1 1v3H10V16.3z"/><path d="M7.3 19.3H10h0.7v0.3c0 0.2-0.1 0.3-0.3 0.3H7c-0.2 0-0.3-0.1-0.3-0.3v-0.3H7.3z"/><path d="M5.2 4.1l7.3 1.1c0.5 0.1 0.8 0.5 0.8 1V10l-0.3-0.1c-0.1 0-0.2 0-0.3 0.1 -0.1 0.1-0.1 0.2-0.1 0.3v-4.1c0-0.2-0.1-0.3-0.3-0.3L5.1 4.7C5 4.7 5 4.7 5 4.7c-0.1 0-0.2 0-0.2 0.1 -0.1 0.1-0.1 0.2-0.1 0.3v13.9c0 0.2 0.2 0.3 0.3 0.3h1.7v0.3c0 0.2 0.1 0.3 0.3 0.3H5c-0.6 0-1-0.4-1-1V5.1C4 4.8 4.1 4.5 4.4 4.3 4.6 4.1 4.9 4 5.2 4.1z"/></svg>
