<svg id="Layer_1" xmlns="http://www.w3.org/2000/svg" xmlns:xlink="http://www.w3.org/1999/xlink" width="24" height="24" viewBox="0 0 24 24" enable-background="new 0 0 24 24"><g><path fill="none" d="M14.684 16.344c-.034.08-.072.158-.113.234-.017.033-.035.064-.053.096-.037.063-.075.123-.117.183-.027.04-.058.082-.088.122-.037.046-.073.092-.111.136-.042.048-.084.093-.128.138-.034.034-.068.067-.104.1-.028.025-.056.057-.083.08s-.059.042-.085.064c-.015.012-.026.023-.04.035-.027.02-.054.037-.08.055-.037.026-.072.053-.109.077-.076.05-.156.097-.236.139-.029.015-.059.028-.088.042-.072.035-.145.066-.22.096-.02.008-.039.016-.06.023-.101.036-.204.066-.309.091h-.002l.957 1.163.54-1.27c.033-.079.101-.137.183-.156l1.32-.322-.957-1.162C14.695 16.318 14.688 16.33 14.684 16.344z"
		/><path fill="none" d="M12.721 17.47c.035-.011.072-.024.103-.036s.061-.022.091-.035c.021-.009.043-.02.064-.029.042-.018.082-.037.121-.059.011-.006.02-.012.03-.017.05-.027.099-.056.147-.087l.003-.002c.054-.035.104-.07.159-.112.055-.042.105-.089.156-.134.06-.056.117-.113.172-.174.021-.023.044-.045.064-.068.074-.09.142-.185.202-.283.011-.016.019-.031.026-.047.057-.096.106-.195.149-.299.004-.008.009-.018.012-.027.048-.119.085-.241.113-.366.001-.005.004-.009.005-.013.04-.179.061-.361.061-.544-.001-1.351-1.076-2.444-2.402-2.444C10.673 12.694 9.6 13.79 9.6 15.141c0 .181.02.361.059.537.001.006.005.01.005.014.028.125.066.248.114.367.003.008.008.018.011.027.043.104.093.203.149.301.01.015.018.03.027.045.061.1.128.193.203.283.02.024.043.047.064.07.054.06.11.117.17.171.051.046.102.093.157.135.1.076.204.146.314.204l.021.013c.042.022.086.043.13.063.02.01.038.018.058.026.031.014.063.025.095.037.033.013.066.024.1.035.02.007.039.012.059.017.046.014.094.027.141.037l.022.006c.122.025.245.042.37.049h.004c.042.002.084.006.127.006.042.0.084-.004.126-.006h.004c.124-.007.249-.023.371-.05l.021-.005c.049-.01.096-.023.144-.037C12.684 17.48 12.702 17.477 12.721 17.47zM12 17.043c-1.03-.002-1.865-.853-1.867-1.902.0-1.051.836-1.902 1.867-1.902s1.867.852 1.867 1.902S13.031 17.043 12 17.043z"/><ellipse fill="none" cx="12" cy="15.141" rx="1.334" ry="1.358"/><path fill="none" d="M11.031 17.961c-.021-.008-.041-.016-.063-.023-.072-.028-.144-.06-.215-.094-.03-.015-.062-.029-.092-.045-.079-.041-.157-.086-.232-.136-.041-.024-.078-.054-.117-.081-.023-.018-.049-.034-.073-.053-.014-.01-.024-.021-.038-.032-.028-.022-.057-.04-.087-.065-.03-.026-.056-.055-.085-.082-.034-.031-.068-.064-.102-.098-.044-.045-.089-.094-.128-.139-.038-.045-.075-.09-.11-.136-.031-.041-.061-.081-.09-.122-.041-.061-.08-.121-.116-.184-.019-.031-.036-.063-.054-.094-.041-.077-.078-.154-.113-.236-.006-.012-.012-.023-.018-.035L8.342 17.47l1.32.321c.082.02.149.078.183.156l.54 1.27.957-1.164-.002-.001C11.235 18.027 11.133 17.997 11.031 17.961z"
		/><path fill="none" d="M4.533 14.869H9.08c.127-1.439 1.246-2.58 2.658-2.709 1.612-.146 3.037 1.065 3.182 2.709h4.547V4.543H4.533V14.869zM17.6 5.087h1.066c.148.0.268.122.268.271v1.087H18.4V5.631H17.6V5.087zm0 8.695H18.4v-.815h.533v1.087c0 .149-.119.271-.268.271H17.6V13.782zM8.8 6.988h6.4v.544H8.8V6.988zM7.2 8.619h9.6v.543H7.2V8.619zM5.066 5.358c0-.149.119-.271.268-.271H6.4v.544H5.6v.814H5.066V5.358zM5.066 12.967H5.6v.815H6.4v.543H5.334c-.148.0-.268-.122-.268-.271V12.967z"/><path d="M19.733 4H4.267C4.119 4 4 4.121 4 4.271V15.14c0 .15.119.271.267.271h4.815c.008.091.021.18.037.268l-1.463 1.777c-.095.114-.08.285.032.383.032.026.069.046.11.056l1.609.392.658 1.549c.059.138.216.201.352.142.037-.017.071-.042.098-.075l1.461-1.773c.008.0.016.0.023.0s.016.0.023.0l1.461 1.773c.094.115.263.131.375.034.032-.027.057-.062.074-.101l.658-1.549 1.609-.392c.144-.034.232-.181.198-.327-.01-.041-.028-.08-.056-.111l-1.463-1.777c.016-.088.029-.177.037-.268h4.815c.147.0.267-.121.267-.271V4.271C20 4.121 19.881 4 19.733 4zM10.385 19.217l-.54-1.27c-.033-.078-.101-.137-.183-.156l-1.32-.321.957-1.163c.006.012.012.023.018.035.035.082.072.159.113.236.018.031.035.063.054.094.036.063.075.123.116.184.029.041.059.081.09.122.035.046.072.091.11.136.039.045.084.094.128.139.033.033.067.066.102.098.029.027.055.056.085.082.03.025.059.043.087.065.014.011.024.022.038.032.024.019.05.035.073.053.039.027.076.057.117.081.075.05.153.095.232.136.03.016.062.03.092.045.071.034.143.065.215.094.021.008.041.016.063.023.102.036.204.066.309.091l.002.001L10.385 19.217zM12.501 17.528c-.122.026-.247.043-.371.05h-.004c-.042.002-.084.006-.126.006-.043.0-.085-.004-.127-.006h-.004c-.125-.007-.248-.023-.37-.049l-.022-.006c-.047-.01-.095-.023-.141-.037-.02-.005-.039-.01-.059-.017-.033-.011-.066-.022-.1-.035-.032-.012-.063-.023-.095-.037-.02-.009-.038-.017-.058-.026-.044-.021-.088-.041-.13-.063l-.021-.013c-.11-.059-.215-.128-.314-.204-.056-.042-.106-.089-.157-.135-.06-.054-.116-.111-.17-.171-.021-.023-.045-.046-.064-.07-.075-.09-.143-.184-.203-.283-.01-.015-.018-.03-.027-.045-.057-.098-.106-.197-.149-.301-.003-.01-.008-.02-.011-.027-.048-.119-.086-.242-.114-.367.0-.004-.004-.008-.005-.014C9.619 15.502 9.6 15.321 9.6 15.141c0-1.351 1.073-2.446 2.398-2.447 1.326.0 2.401 1.094 2.402 2.444.0.183-.021.365-.061.544-.001.004-.004.008-.005.013-.028.125-.065.247-.113.366-.003.01-.008.02-.012.027-.043.104-.093.203-.149.299-.008.016-.016.031-.026.047-.061.099-.128.193-.202.283-.021.023-.043.045-.064.068-.055.061-.112.118-.172.174-.051.045-.102.092-.156.134-.056.042-.105.077-.159.112l-.003.002c-.049.031-.098.06-.147.087-.011.005-.02.011-.03.017-.039.021-.079.041-.121.059-.021.01-.043.021-.064.029-.03.013-.061.023-.091.035s-.067.025-.103.036c-.019.007-.037.011-.056.017-.048.014-.095.027-.144.037L12.501 17.528zM15.658 17.469l-1.32.322c-.082.02-.149.077-.183.156l-.54 1.27-.957-1.163h.002c.104-.024.208-.055.309-.091.021-.008.04-.016.06-.023.075-.029.147-.061.22-.096.029-.014.059-.027.088-.042.08-.042.16-.089.236-.139.037-.024.072-.051.109-.077.026-.018.053-.035.08-.055.014-.012.025-.023.04-.035.026-.022.058-.041.085-.064s.055-.055.083-.08c.035-.032.069-.065.104-.1.044-.045.086-.09.128-.138.038-.044.074-.09.111-.136.03-.04.061-.082.088-.122.042-.06.08-.12.117-.183.018-.031.036-.063.053-.096.041-.076.079-.154.113-.234.005-.014.012-.025.018-.037L15.658 17.469zM19.467 14.869H14.92c-.145-1.644-1.569-2.855-3.182-2.709-1.412.129-2.531 1.27-2.658 2.709H4.533V4.543h14.934V14.869z"/><path d="M5.6 5.631H6.4V5.087H5.334c-.148.0-.268.122-.268.271v1.087H5.6V5.631z"/><path d="M18.4 6.445h.533V5.358c0-.149-.119-.271-.268-.271H17.6v.544H18.4V6.445z"/><path d="M18.934 14.054v-1.087H18.4v.815H17.6v.543h1.066C18.814 14.325 18.934 14.203 18.934 14.054z"/><path d="M5.334 14.325H6.4v-.543H5.6v-.815H5.066v1.087C5.066 14.203 5.186 14.325 5.334 14.325z"/><path d="M8.8 6.988h6.4v.544H8.8z"/><path d="M7.2 8.619h9.6v.543H7.2z"/><path d="M13.867 15.141c0-1.051-.836-1.902-1.867-1.902s-1.867.852-1.867 1.902c.002 1.05.837 1.9 1.867 1.902C13.031 17.043 13.867 16.191 13.867 15.141zM12 16.499c-.736.0-1.334-.608-1.334-1.358.002-.75.598-1.357 1.334-1.358.736.0 1.334.608 1.334 1.358S12.736 16.499 12 16.499z"/></g></svg>