<?xml version="1.0" encoding="utf-8"?>
<!-- Generator: Adobe Illustrator 16.0.0, SVG Export Plug-In . SVG Version: 6.00 Build 0)  -->
<!DOCTYPE svg PUBLIC "-//W3C//DTD SVG 1.1//EN" "http://www.w3.org/Graphics/SVG/1.1/DTD/svg11.dtd">
<svg version="1.1" id="Layer_1" xmlns="http://www.w3.org/2000/svg" xmlns:xlink="http://www.w3.org/1999/xlink" x="0px" y="0px"
	 width="24px" height="24px" viewBox="0 0 24 24" enable-background="new 0 0 24 24" xml:space="preserve">
<path d="M13.2,15.2v1.68c0,0.16-0.16,0.32-0.32,0.32H11.2c-0.16,0-0.32-0.16-0.32-0.32V15.2c0-0.16,0.16-0.32,0.32-0.32h1.68
	C13.04,14.8,13.2,14.96,13.2,15.2z M15.84,10c0,1.44-1.04,2.08-1.76,2.479c-0.56,0.32-0.88,0.48-0.88,0.881v0.319
	c0,0.16-0.16,0.32-0.32,0.32H11.2c-0.16,0-0.32-0.16-0.32-0.32v-0.72c0-1.28,0.88-1.68,1.681-2C13.2,10.64,13.6,10.48,13.6,10
	c0-0.64-0.8-1.04-1.439-1.04c-0.4,0-0.72,0.08-0.96,0.32c-0.24,0.16-0.48,0.4-0.8,0.88c-0.24,0-0.32,0-0.4,0s-0.16,0-0.16-0.08
	l-1.2-0.8C8.48,9.2,8.48,8.96,8.56,8.8c0.88-1.36,2.08-2,3.6-2l0,0C13.92,6.8,15.84,8.16,15.84,10L15.84,10z M12,5.36
	C8.32,5.36,5.36,8.32,5.36,12c0,3.68,2.959,6.64,6.64,6.64c3.68,0,6.64-2.96,6.64-6.64C18.64,8.32,15.68,5.36,12,5.36z M20,12
	c0,4.4-3.6,8-8,8c-4.4,0-8-3.6-8-8c0-4.4,3.6-8,8-8l0,0C16.4,4,20,7.6,20,12z"/>
</svg>
