<?xml version="1.0" encoding="utf-8"?>
<!-- Generator: Adobe Illustrator 16.0.0, SVG Export Plug-In . SVG Version: 6.00 Build 0)  -->
<!DOCTYPE svg PUBLIC "-//W3C//DTD SVG 1.1//EN" "http://www.w3.org/Graphics/SVG/1.1/DTD/svg11.dtd">
<svg version="1.1" id="Layer_1" xmlns="http://www.w3.org/2000/svg" xmlns:xlink="http://www.w3.org/1999/xlink" x="0px" y="0px"
	 width="24px" height="24px" viewBox="0 0 24 24" enable-background="new 0 0 24 24" xml:space="preserve">
<path d="M12,4c4.4,0,8,3.6,8,8c0,4.4-3.6,8-8,8c-4.4,0-8-3.6-8-8C4,7.6,7.6,4,12,4z M13.36,16.96v-2c0-0.16-0.16-0.32-0.32-0.32h-2
	c-0.16,0-0.32,0.16-0.32,0.32v2c0,0.16,0.16,0.319,0.32,0.319h2C13.2,17.36,13.36,17.2,13.36,16.96z M13.279,13.439l0.16-6.479
	c0-0.08,0-0.16-0.079-0.16c-0.081-0.08-0.16-0.08-0.24-0.08H10.8c-0.08,0-0.16,0-0.24,0.08c-0.08,0.08-0.08,0.08-0.08,0.16
	l0.16,6.479c0,0.16,0.16,0.24,0.32,0.24h1.92c0.16,0,0.32-0.08,0.32-0.24H13.279z"/>
</svg>
