<svg xmlns="http://www.w3.org/2000/svg" width="136" height="40" viewBox="0 0 136 40"><g transform="translate(54.585)"><g transform="translate(0)"><path d="M209.454,101.2l-3.016,3.32v8.217h-5.8V83.977h5.8V97.015l2.552-3.575,7.174-9.463H223.3l-10,12.781,10.285,15.981h-6.9L209.454,101.2" transform="translate(-186.866 -78.359)" fill="#efefef"/><path d="M260.593,100.275H249.455v7.7h13.071v4.76H243.654V83.977H262.49v4.8H249.455v6.854h11.138v4.643" transform="translate(-205.832 -78.359)" fill="#efefef"/><path d="M285.18,107.979H297.5v4.76H279.379V83.977h5.8v24" transform="translate(-221.582 -78.359)" fill="#efefef"/><path d="M253.023,114.145a4.45,4.45,0,0,0,4.4-4.495h0V78.64a4.45,4.45,0,0,0-4.4-4.5H176.008l13.2,4.5h62.715a1.111,1.111,0,0,1,1.1,1.123h0v28.762a1.113,1.113,0,0,1-1.1,1.125H205.709l-13.2,4.495Z" transform="translate(-176.008 -74.145)" fill="#efefef"/></g></g><path d="M167.241,96.935,173.1,83.977h6.343L170.2,102.31v10.429h-5.9V102.31l-9.243-18.334h6.362l5.821,12.959" transform="translate(-112.186 -78.359)" fill="#00477b"/><path d="M137.152,83.977h-5.375L121.3,112.739h6.168l1.934-5.926H139.57l1.952,5.926h6.169Zm-6.187,18.037,3.5-10.768L138,102.014Z" transform="translate(-97.302 -78.359)" fill="#00477b"/><path d="M101.275,108.525h-5.8L84.182,89.6v18.924a1.114,1.114,0,0,0,1.1,1.125h77.386l-13.2,4.495H82.782a4.45,4.45,0,0,1-4.4-4.495h0V79.763h5.8L95.494,98.727V78.64a4.45,4.45,0,0,1,4.4-4.5h33.072l13.2,4.5H102.376a1.112,1.112,0,0,0-1.1,1.123h0Z" transform="translate(-78.381 -74.145)" fill="#00477b"/></svg>
