<?xml version="1.0" encoding="utf-8"?>
<!-- Generator: Adobe Illustrator 16.0.0, SVG Export Plug-In . SVG Version: 6.00 Build 0)  -->
<!DOCTYPE svg PUBLIC "-//W3C//DTD SVG 1.1//EN" "http://www.w3.org/Graphics/SVG/1.1/DTD/svg11.dtd">
<svg version="1.1" id="Layer_1" xmlns="http://www.w3.org/2000/svg" xmlns:xlink="http://www.w3.org/1999/xlink" x="0px" y="0px"
	 width="257.14px" height="74px" viewBox="0 0 257.14 74" enable-background="new 0 0 257.14 74" xml:space="preserve">
<g>
	<polyline fill="#F2F2F2" points="145.912,42.261 140.209,48.402 140.209,63.604 129.242,63.604 129.242,10.394 140.209,10.394 
		140.209,34.514 145.035,27.9 158.598,10.394 172.093,10.394 153.191,34.039 172.639,63.604 159.588,63.604 145.912,42.261 	"/>
	<polyline fill="#F2F2F2" points="206.744,40.545 185.686,40.545 185.686,54.797 210.398,54.797 210.398,63.604 174.718,63.604 
		174.718,10.394 210.33,10.394 210.33,19.276 185.686,19.276 185.686,31.956 206.744,31.956 206.744,40.545 	"/>
	<polyline fill="#F2F2F2" points="223.45,54.797 246.74,54.797 246.74,63.604 212.482,63.604 212.482,10.394 223.45,10.394 
		223.45,54.797 	"/>
	<polyline fill="#00588C" points="104.093,34.366 115.169,10.394 127.161,10.394 109.686,44.31 109.686,63.604 98.535,63.604 
		98.535,44.31 81.059,10.394 93.088,10.394 104.093,34.366 	"/>
	<path fill="#00588C" d="M75.346,10.394H65.184L45.367,63.604h11.662l3.657-10.963h19.229l3.693,10.963h11.662L75.346,10.394z
		 M63.646,43.761l6.619-19.919l6.69,19.919H63.646z"/>
	<path fill="#F2F2F2" d="M248.818,74c4.59,0,8.318-3.726,8.318-8.316l0,0V8.316c0-4.593-3.729-8.316-8.318-8.316l0,0H103.206
		l24.96,8.316H246.74c1.147,0,2.078,0.931,2.078,2.078l0,0v26.604v26.605c0,1.147-0.931,2.081-2.078,2.081l0,0h-87.379L134.402,74
		H248.818z"/>
	<path fill="#00588C" d="M43.287,63.604H32.318L10.968,28.594v35.009c0,1.147,0.933,2.081,2.079,2.081l0,0h146.314L134.402,74H8.319
		C3.727,74,0,70.274,0,65.684l0,0v-55.29h10.968l21.388,35.083V8.316c0-4.593,3.729-8.316,8.32-8.316l0,0h62.53l24.96,8.316H45.367
		c-1.147,0-2.08,0.931-2.08,2.078l0,0V63.604z"/>
</g>
</svg>
