<svg xmlns="http://www.w3.org/2000/svg" width="24" height="24" viewBox="0 0 24 24"><path d="M12 4c-4.4 0-8 3.6-8 8s3.6 8 8 8c4.4 0 8-3.6 8-8S16.4 4 12 4zM13.9 16.8c-0.4 0.2-0.7 0.3-1 0.4 -0.2 0.1-0.5 0.1-0.9 0.1 -0.5 0-0.9-0.1-1.2-0.4 -0.3-0.3-0.4-0.6-0.4-1 0-0.2 0-0.3 0-0.5 0-0.2 0.1-0.3 0.1-0.6l0.5-2c0-0.2 0.1-0.4 0.1-0.5 0-0.2 0-0.3 0-0.5 0-0.3 0-0.4-0.1-0.5 -0.1-0.1-0.3-0.1-0.6-0.1 -0.1 0-0.3 0-0.4 0.1 -0.1 0-0.3 0.1-0.4 0.1l0.1-0.6c0.3-0.1 0.7-0.3 1-0.4 0.3-0.1 0.6-0.2 0.9-0.2 0.5 0 0.9 0.1 1.1 0.4 0.3 0.3 0.4 0.6 0.4 1 0 0.1 0 0.2 0 0.5 0 0.2-0.1 0.4-0.1 0.6l-0.5 2c0 0.2-0.1 0.3-0.1 0.5 0 0.2 0 0.4 0 0.5 0 0.3 0.1 0.4 0.2 0.5 0.1 0.1 0.3 0.1 0.6 0.1 0.1 0 0.3 0 0.4-0.1 0.2 0 0.3-0.1 0.3-0.1L13.9 16.8zM13.8 8.8c-0.2 0.2-0.5 0.4-0.9 0.4s-0.6-0.1-0.9-0.4 -0.4-0.5-0.4-0.9c0-0.3 0.1-0.6 0.4-0.9C12.3 6.8 12.6 6.7 12.9 6.7s0.6 0.1 0.9 0.4c0.2 0.2 0.4 0.5 0.4 0.9C14.2 8.3 14.1 8.6 13.8 8.8z"/></svg>
