<?xml version="1.0" encoding="utf-8"?>
<!-- Generator: Adobe Illustrator 16.0.0, SVG Export Plug-In . SVG Version: 6.00 Build 0)  -->
<!DOCTYPE svg PUBLIC "-//W3C//DTD SVG 1.1//EN" "http://www.w3.org/Graphics/SVG/1.1/DTD/svg11.dtd">
<svg version="1.1" id="Layer_1" xmlns="http://www.w3.org/2000/svg" xmlns:xlink="http://www.w3.org/1999/xlink" x="0px" y="0px"
	 width="24px" height="24px" viewBox="0 0 24 24" enable-background="new 0 0 24 24" xml:space="preserve">
<path d="M13.36,17.04v-2c0-0.16-0.16-0.319-0.32-0.319h-2c-0.16,0-0.32,0.159-0.32,0.319v2c0,0.16,0.16,0.32,0.32,0.32h2
	C13.2,17.36,13.36,17.2,13.36,17.04z M16,10c0-1.92-2-3.36-3.76-3.36c-1.68,0-2.959,0.721-3.84,2.24c-0.16,0.16-0.08,0.32,0,0.48
	l1.36,1.04c0.08,0.08,0.16,0.08,0.16,0.08c0.08,0,0.16-0.08,0.24-0.16c0.479-0.64,0.72-0.8,0.88-0.959
	c0.16-0.16,0.56-0.24,0.88-0.24c0.641,0,1.28,0.4,1.28,0.88c0,0.56-0.32,0.8-0.88,1.12c-0.72,0.32-1.76,1.2-1.76,2.24v0.399
	c0,0.16,0.16,0.32,0.32,0.32h2c0.16,0,0.32-0.16,0.32-0.32l0,0c0-0.239,0.32-0.72,0.8-1.039C14.88,12.16,16,11.6,16,10L16,10z
	 M20,12c0,4.4-3.6,8-8,8c-4.4,0-8-3.6-8-8c0-4.4,3.6-8,8-8C16.4,4,20,7.6,20,12z"/>
</svg>
