<?xml version="1.0" encoding="utf-8"?>
<!-- Generator: Adobe Illustrator 16.0.0, SVG Export Plug-In . SVG Version: 6.00 Build 0)  -->
<!DOCTYPE svg PUBLIC "-//W3C//DTD SVG 1.1//EN" "http://www.w3.org/Graphics/SVG/1.1/DTD/svg11.dtd">
<svg version="1.1" id="Layer_1" xmlns="http://www.w3.org/2000/svg" xmlns:xlink="http://www.w3.org/1999/xlink" x="0px" y="0px"
	 width="24px" height="24px" viewBox="0 0 24 24" enable-background="new 0 0 24 24" xml:space="preserve">
<path d="M13.118,16.87v-1.753c0-0.16-0.159-0.319-0.318-0.319h-1.674c-0.159,0-0.318,0.159-0.318,0.319v1.673
	c0,0.16,0.159,0.319,0.318,0.319H12.8C13.038,17.109,13.118,17.029,13.118,16.87z M13.118,13.522l0.159-4.065
	c0-0.079,0-0.159-0.079-0.159c-0.08-0.08-0.16-0.08-0.239-0.08h-1.993c-0.08,0-0.159,0.08-0.239,0.08
	c-0.08,0.08-0.08,0.159-0.08,0.159l0.16,4.065c0,0.08,0.159,0.239,0.318,0.239H12.8C12.959,13.762,13.118,13.682,13.118,13.522
	L13.118,13.522z M13.038,5.233l6.855,12.514c0.158,0.318,0.158,0.797,0,1.115c-0.24,0.319-0.559,0.558-0.957,0.558H5.148
	c-0.398,0-0.797-0.238-0.956-0.558c-0.239-0.318-0.239-0.797,0-1.115l6.854-12.514c0.16-0.398,0.558-0.558,1.037-0.558
	C12.401,4.596,12.8,4.835,13.038,5.233z"/>
</svg>
