 <svg style="margin-right: -4px;" xmlns="http://www.w3.org/2000/svg" fill="currentColor" viewBox="0 0 33 50">
  <path fill="url(#a)" d="M24.64 47.966c-.32.96-1.728 1.216-2.624 1.152-6.336-.64-12.544-1.984-18.752-3.264-.96-.192-2.688-.64-2.88-1.728v-.128C-.192 42.846 0 41.31.192 39.966c.384-3.264.896-6.592 1.088-9.92 0-.704.064-2.944.448-3.52.32-.448.896-.64 1.408-.576.64.128 1.28.384 1.92.512.64.128 1.28.192 1.92.128 2.112-.256 4.224-1.024 6.272-1.664.512-.128 1.088.192 1.152.768.064.448-.128.96-.32 1.344-1.152 2.24-2.496 4.288-3.84 6.4 1.856 1.536 3.84 2.88 5.952 4.096.064 0 0-.384 0-.576.128-7.488 0-14.976.128-22.528-.64.448-1.28 1.024-1.92 1.536-.576.448-1.472.384-1.792-.384-.448-.896-.32-2.048-.384-3.136-.256.064-.512.128-.768.256-1.536.512-2.944 1.152-4.416 1.792-.448.256-.896.448-1.344.448-.96.128-1.536-1.152-1.664-2.24-.256-2.048-.256-4.096-.32-6.144 0-.64-.064-1.28 0-1.92-.32-.256-.32-.832.128-.832 1.792-.064 3.52-.448 5.248-.704 6.72-1.216 13.504-1.984 20.288-2.816C29.888.222 32-.098 32.512.03c.704.256.576 1.152.064 1.728-1.088 1.216-2.176 2.368-3.264 3.584-.832.96-1.664 1.984-2.048 3.264-.32 1.024-.256 2.24-.064 3.264.256 1.536.64 3.008 1.024 4.48.256.96.64 1.92.512 2.88-.256 1.472-1.28 2.688-2.048 3.968-.064.192-.064.512-.064.768.576 6.848.448 13.824-.832 20.544-.256 1.216-.512 2.496-1.152 3.456Z"/>
  <defs>
    <radialGradient id="a" cx="0" cy="0" r="1" gradientTransform="matrix(0 24.5636 -16.5002 0 16.5 24.564)" gradientUnits="userSpaceOnUse">
      <stop stop-color="#A40A0A"/>
      <stop offset="1" stop-color="#3E0404"/>
    </radialGradient>
  </defs>
</svg>
