<svg id="naykel" xmlns="http://www.w3.org/2000/svg" width="24" height="24" viewBox="0 0 24 24">
  <path id="Path_38271" data-name="Path 38271" d="M6.13,24l10.245-2.7H3.185c-.282,0-.507-.3-.507-.675h0V9.273L7.887,20.627h2.676V3.372c0-.372.226-.675.508-.675h6.317L12.428,0h-2.5C8.8,0,7.895,1.208,7.895,2.7h0V14.75L2.676,3.372H0V21.305C0,22.79.909,24,2.029,24h4.1Z" fill="#13365b"/>
  <path id="Path_38272" data-name="Path 38272" d="M14.9,13.708,13.591,15.7v4.93H11.068V3.372h2.523v7.821L14.7,9.048,17.82,3.372h3.1L16.576,11.04l4.472,9.589h-3L14.9,13.708" fill="#d72538"/>
  <path id="Path_38273" data-name="Path 38273" d="M21.97,0H12.428l4.958,2.7h3.449a.608.608,0,0,1,.51.673V20.629a.611.611,0,0,1-.507.674H16.375L6.13,24H21.97C23.092,24,24,22.79,24,21.3V2.7C24,1.208,23.092,0,21.97,0Z" fill="#d72538"/>
</svg>
