<?xml version="1.0" encoding="utf-8"?>
<!-- Generator: Adobe Illustrator 16.0.0, SVG Export Plug-In . SVG Version: 6.00 Build 0)  -->
<!DOCTYPE svg PUBLIC "-//W3C//DTD SVG 1.1//EN" "http://www.w3.org/Graphics/SVG/1.1/DTD/svg11.dtd">
<svg version="1.1" id="Layer_1" xmlns="http://www.w3.org/2000/svg" xmlns:xlink="http://www.w3.org/1999/xlink" x="0px" y="0px"
	 width="97.295px" height="28px" viewBox="0.002 0 97.295 28" enable-background="new 0.002 0 97.295 28" xml:space="preserve">
<g>
	<polyline fill="#D72638" points="55.212,15.991 53.054,18.314 53.054,24.066 48.904,24.066 48.904,3.933 53.054,3.933 
		53.054,13.06 54.88,10.557 60.012,3.933 65.118,3.933 57.966,12.88 65.325,24.066 60.386,24.066 55.212,15.991 	"/>
	<polyline fill="#D72638" points="78.229,15.341 70.261,15.341 70.261,20.734 79.612,20.734 79.612,24.066 66.112,24.066 
		66.112,3.933 79.586,3.933 79.586,7.293 70.261,7.293 70.261,12.091 78.229,12.091 78.229,15.341 	"/>
	<polyline fill="#D72638" points="84.551,20.734 93.363,20.734 93.363,24.066 80.401,24.066 80.401,3.933 84.551,3.933 
		84.551,20.734 	"/>
	<polyline fill="#13365B" points="39.388,13.003 43.579,3.933 48.117,3.933 41.504,16.766 41.504,24.066 37.285,24.066 
		37.285,16.766 30.673,3.933 35.224,3.933 39.388,13.003 	"/>
	<polygon fill="none" points="24.084,16.559 29.12,16.559 26.589,9.021 	"/>
	<path fill="#13365B" d="M28.511,3.933h-3.846l-7.498,20.133h4.413l1.384-4.148h7.276l1.397,4.148h4.413L28.511,3.933z
		 M24.084,16.559l2.504-7.538l2.531,7.538H24.084z"/>
	<path fill="#D72638" d="M94.149,28c1.737,0,3.147-1.41,3.147-3.147l0,0V3.146C97.297,1.409,95.885,0,94.149,0l0,0H39.052
		l9.444,3.146h44.866c0.434,0,0.786,0.353,0.786,0.787l0,0v10.066v10.067c0,0.434-0.352,0.787-0.786,0.787l0,0H60.301L50.857,28
		H94.149z"/>
	<path fill="#13365B" d="M16.38,24.066h-4.15L4.152,10.819v13.247c0,0.434,0.353,0.787,0.786,0.787l0,0h55.362L50.857,28H3.15
		c-1.738,0-3.148-1.41-3.148-3.147l0,0V3.933h4.15l8.093,13.274V3.146C12.245,1.409,13.656,0,15.393,0l0,0h23.66l9.444,3.146H17.168
		c-0.434,0-0.788,0.353-0.788,0.787l0,0V24.066z"/>
</g>
</svg>
