<svg xmlns="http://www.w3.org/2000/svg" style="display: none;">

    <symbol id="moon" viewBox="0 0 16 16" fill="none" stroke="currentColor" stroke-width="1.5">
        <path d="M14.438 10.148c.19-.425-.321-.787-.748-.601A5.5 5.5 0 0 1 6.453 2.31c.186-.427-.176-.938-.6-.748a6.501 6.501 0 1 0 8.585 8.586Z" />
    </symbol>
    <!-- <symbol id="moon" viewBox="0 0 24 24" fill="none" stroke="currentColor" stroke-width="1.5">
        <path stroke-linecap="round" stroke-linejoin="round" d="M21.752 15.002A9.72 9.72 0 0 1 18 15.75c-5.385 0-9.75-4.365-9.75-9.75 0-1.33.266-2.597.748-3.752A9.753 9.753 0 0 0 3 11.25C3 16.635 7.365 21 12.75 21a9.753 9.753 0 0 0 9.002-5.998Z"/>
    </symbol> -->

    <symbol id="cog" viewBox="0 0 24 24" fill="none" stroke="currentColor" stroke-width="1.5" stroke-linecap="round" stroke-linejoin="round">
        <path d="M9.594 3.94c.09-.542.56-.94 1.11-.94h2.593c.55 0 1.02.398 1.11.94l.213 1.281c.063.374.313.686.645.87.074.04.147.083.22.127.325.196.72.257 1.075.124l1.217-.456a1.125 1.125 0 0 1 1.37.49l1.296 2.247a1.125 1.125 0 0 1-.26 1.431l-1.003.827c-.293.241-.438.613-.43.992a7.723 7.723 0 0 1 0 .255c-.008.378.137.75.43.991l1.004.827c.424.35.534.955.26 1.43l-1.298 2.247a1.125 1.125 0 0 1-1.369.491l-1.217-.456c-.355-.133-.75-.072-1.076.124a6.47 6.47 0 0 1-.22.128c-.331.183-.581.495-.644.869l-.213 1.281c-.09.543-.56.94-1.11.94h-2.594c-.55 0-1.019-.398-1.11-.94l-.213-1.281c-.062-.374-.312-.686-.644-.87a6.52 6.52 0 0 1-.22-.127c-.325-.196-.72-.257-1.076-.124l-1.217.456a1.125 1.125 0 0 1-1.369-.49l-1.297-2.247a1.125 1.125 0 0 1 .26-1.431l1.004-.827c.292-.24.437-.613.43-.991a6.932 6.932 0 0 1 0-.255c.007-.38-.138-.751-.43-.992l-1.004-.827a1.125 1.125 0 0 1-.26-1.43l1.297-2.247a1.125 1.125 0 0 1 1.37-.491l1.216.456c.356.133.751.072 1.076-.124.072-.044.146-.086.22-.128.332-.183.582-.495.644-.869l.214-1.28Z" />
        <path d="M15 12a3 3 0 1 1-6 0 3 3 0 0 1 6 0Z" />
    </symbol>

    <symbol id="chevron-right" viewBox="0 0 24 24" fill="none" stroke="currentColor" stroke-width="2" stroke-linecap="round" stroke-linejoin="round">
        <path d="m9 18 6-6-6-6" />
    </symbol>

    <symbol id="chevron-left" viewBox="0 0 24 24" fill="none" stroke="currentColor" stroke-width="2" stroke-linecap="round" stroke-linejoin="round">
        <path d="m15 18-6-6 6-6" />
    </symbol>

    <symbol id="chevron-up" viewBox="0 0 24 24" fill="none" stroke="currentColor" stroke-width="2" stroke-linecap="round" stroke-linejoin="round">
        <path d="m18 15-6-6-6 6" />
    </symbol>

    <symbol id="chevron-down" viewBox="0 0 24 24" fill="none" stroke="currentColor" stroke-width="2" stroke-linecap="round" stroke-linejoin="round">
        <path d="m6 9 6 6 6-6" />
    </symbol>

</svg>