<svg width="0" height="0" class="hidden"> <symbol fill="none" xmlns="http://www.w3.org/2000/svg" viewBox="0 0 24 24" id="arrow-down"> <path d="M19.5 13.5L12 21M12 21L4.5 13.5M12 21V3" stroke="#0F172A" stroke-width="1.5" stroke-linecap="round" stroke-linejoin="round"></path> </symbol> <symbol fill="none" xmlns="http://www.w3.org/2000/svg" viewBox="0 0 24 24" id="arrow-left"> <path d="M10.5 19.5L3 12M3 12L10.5 4.5M3 12H21" stroke="#0F172A" stroke-width="1.5" stroke-linecap="round" stroke-linejoin="round"></path> </symbol> <symbol fill="none" xmlns="http://www.w3.org/2000/svg" viewBox="0 0 24 24" id="arrow-right"> <path d="M13.5 4.5L21 12M21 12L13.5 19.5M21 12H3" stroke="#0F172A" stroke-width="1.5" stroke-linecap="round" stroke-linejoin="round"></path> </symbol> <symbol fill="none" xmlns="http://www.w3.org/2000/svg" viewBox="0 0 24 24" id="arrow-up"> <path d="M4.5 10.5L12 3M12 3L19.5 10.5M12 3V21" stroke="#0F172A" stroke-width="1.5" stroke-linecap="round" stroke-linejoin="round"></path> </symbol> <symbol fill="none" xmlns="http://www.w3.org/2000/svg" viewBox="0 0 24 24" id="check"> <path d="M4.5 12.75L10.5 18.75L19.5 5.25" stroke="#0F172A" stroke-width="1.5" stroke-linecap="round" stroke-linejoin="round"></path> </symbol> <symbol fill="none" xmlns="http://www.w3.org/2000/svg" viewBox="0 0 24 24" id="check-circle"> <path d="M9 12.75L11.25 15L15 9.75M21 12C21 16.9706 16.9706 21 12 21C7.02944 21 3 16.9706 3 12C3 7.02944 7.02944 3 12 3C16.9706 3 21 7.02944 21 12Z" stroke="#0F172A" stroke-width="1.5" stroke-linecap="round" stroke-linejoin="round"></path> </symbol> <symbol fill="none" xmlns="http://www.w3.org/2000/svg" viewBox="0 0 24 24" id="chevron-down"> <path fill-rule="evenodd" clip-rule="evenodd" d="M12.5303 16.2803C12.2374 16.5732 11.7626 16.5732 11.4697 16.2803L3.96967 8.78033C3.67678 8.48744 3.67678 8.01256 3.96967 7.71967C4.26256 7.42678 4.73744 7.42678 5.03033 7.71967L12 14.6893L18.9697 7.71967C19.2626 7.42678 19.7374 7.42678 20.0303 7.71967C20.3232 8.01256 20.3232 8.48744 20.0303 8.78033L12.5303 16.2803Z" fill="#0F172A"></path> </symbol> <symbol fill="none" xmlns="http://www.w3.org/2000/svg" viewBox="0 0 24 24" id="chevron-left"> <path fill-rule="evenodd" clip-rule="evenodd" d="M7.71967 12.5303C7.42678 12.2374 7.42678 11.7626 7.71967 11.4697L15.2197 3.96967C15.5126 3.67678 15.9874 3.67678 16.2803 3.96967C16.5732 4.26256 16.5732 4.73744 16.2803 5.03033L9.31066 12L16.2803 18.9697C16.5732 19.2626 16.5732 19.7374 16.2803 20.0303C15.9874 20.3232 15.5126 20.3232 15.2197 20.0303L7.71967 12.5303Z" fill="#0F172A"></path> </symbol> <symbol fill="none" xmlns="http://www.w3.org/2000/svg" viewBox="0 0 24 24" id="chevron-right"> <path fill-rule="evenodd" clip-rule="evenodd" d="M16.2803 11.4697C16.5732 11.7626 16.5732 12.2374 16.2803 12.5303L8.78033 20.0303C8.48744 20.3232 8.01256 20.3232 7.71967 20.0303C7.42678 19.7374 7.42678 19.2626 7.71967 18.9697L14.6893 12L7.71967 5.03033C7.42678 4.73744 7.42678 4.26256 7.71967 3.96967C8.01256 3.67678 8.48744 3.67678 8.78033 3.96967L16.2803 11.4697Z" fill="#0F172A"></path> </symbol> <symbol fill="none" xmlns="http://www.w3.org/2000/svg" viewBox="0 0 24 24" id="chevron-up"> <path fill-rule="evenodd" clip-rule="evenodd" d="M11.4697 7.71967C11.7626 7.42678 12.2374 7.42678 12.5303 7.71967L20.0303 15.2197C20.3232 15.5126 20.3232 15.9874 20.0303 16.2803C19.7374 16.5732 19.2626 16.5732 18.9697 16.2803L12 9.31066L5.03033 16.2803C4.73744 16.5732 4.26256 16.5732 3.96967 16.2803C3.67678 15.9874 3.67678 15.5126 3.96967 15.2197L11.4697 7.71967Z" fill="#0F172A"></path> </symbol> <symbol fill="none" xmlns="http://www.w3.org/2000/svg" viewBox="0 0 24 24" id="x-circle"> <path d="M9.75 9.75L14.25 14.25M14.25 9.75L9.75 14.25M21 12C21 16.9706 16.9706 21 12 21C7.02944 21 3 16.9706 3 12C3 7.02944 7.02944 3 12 3C16.9706 3 21 7.02944 21 12Z" stroke="#0F172A" stroke-width="1.5" stroke-linecap="round" stroke-linejoin="round"></path> </symbol> <symbol fill="none" xmlns="http://www.w3.org/2000/svg" viewBox="0 0 24 24" id="x-mark"> <path d="M6 18L18 6M6 6L18 18" stroke="#0F172A" stroke-width="1.5" stroke-linecap="round" stroke-linejoin="round"></path> </symbol> </svg>