<svg width="0" height="0" class="hidden"> <symbol xmlns="http://www.w3.org/2000/svg" viewBox="0 0 20 18" id="redo-o"> <g transform="translate(0 -32.109)"> <g transform="translate(0 32.109)"> <path d="M19.756,40.075l-7.5-7.713a.83.83,0,0,0-1.422.606V36.4A11.315,11.315,0,0,0,.527,44.7,13.81,13.81,0,0,0,.006,49c0,.165.006.213.006.247a.829.829,0,0,0,1.549.438A13.072,13.072,0,0,1,4.7,45.929a8.388,8.388,0,0,1,6.142-1.942v4.407A.83.83,0,0,0,12.26,49l7.5-7.713A.875.875,0,0,0,19.756,40.075ZM12.5,46.325V43.252a.853.853,0,0,0-.629-.831,4.853,4.853,0,0,0-.5-.094,9.931,9.931,0,0,0-7.7,2.245,13.068,13.068,0,0,0-1.823,1.772l.013-.069c.066-.352.151-.715.259-1.1a9.619,9.619,0,0,1,9.382-7.071l.133,0a.844.844,0,0,0,.862-.856V35.037l5.485,5.644Z" transform="translate(0 -32.109)"></path> </g> </g> </symbol> <symbol xmlns="http://www.w3.org/2000/svg" viewBox="0 0 20 20" id="save"> <g transform="translate(-0.5)"> <rect width="2.5" height="4.082" transform="translate(11.75 2.041)"></rect> <path d="M16.923,0H.5V20h20V3.5ZM4.667.816H15.5V7.347H4.667ZM16.75,19.184H3.833V10.612H16.75Z"></path> <path d="M12.917,30.816h2.917a.408.408,0,1,0,0-.816H12.917a.408.408,0,1,0,0,.816Z" transform="translate(-7 -17.755)"></path> <path d="M12.917,34.816h4.167a.408.408,0,1,0,0-.816H12.917a.408.408,0,1,0,0,.816Z" transform="translate(-7 -20.122)"></path> <path d="M25.917,34.824a.435.435,0,0,0,.3-.118.408.408,0,0,0,0-.58.438.438,0,0,0-.588,0,.4.4,0,0,0-.125.29.415.415,0,0,0,.121.29A.433.433,0,0,0,25.917,34.824Z" transform="translate(-14.583 -20.13)"></path> </g> </symbol> <symbol xmlns="http://www.w3.org/2000/svg" viewBox="0 0 20 20" id="save-o"> <g transform="translate(-0.5)"> <path d="M16.922,0H.5V20h20V3.5ZM15.083.816V6.531h-10V.816ZM4.25,19.184V11.429H16.333v7.755Zm15.417,0h-2.5V10.612H3.417v8.571H1.333V.816H4.25V7.347H15.917V.816h.661l3.089,3.026Z"></path> <path d="M12.917,31.816h2.917a.408.408,0,1,0,0-.816H12.917a.408.408,0,1,0,0,.816Z" transform="translate(-7 -18.347)"></path> <path d="M17.083,35H12.917a.408.408,0,1,0,0,.816h4.167a.408.408,0,1,0,0-.816Z" transform="translate(-7 -20.714)"></path> <path d="M25.621,35.126a.408.408,0,0,0,0,.58.433.433,0,0,0,.3.118.443.443,0,0,0,.3-.118.408.408,0,0,0,0-.58A.443.443,0,0,0,25.621,35.126Z" transform="translate(-14.583 -20.722)"></path> <path d="M30,4H27.5V8.082H30Zm-.833,3.265h-.833V4.816h.833Z" transform="translate(-15.75 -2.367)"></path> </g> </symbol> <symbol xmlns="http://www.w3.org/2000/svg" viewBox="0 0 20 20" id="search"> <path d="M17.294,15.579h-.9l-.32-.308a7.455,7.455,0,1,0-.8.8l.309.32v.9L21.3,23,23,21.3Zm-6.861,0a5.146,5.146,0,1,1,5.146-5.146A5.139,5.139,0,0,1,10.433,15.579Z" transform="translate(-3 -3)"></path> </symbol> <symbol xmlns="http://www.w3.org/2000/svg" viewBox="0 0 20 20" id="search-o"> <path d="M20,18.418l-5.9-5.9A7.862,7.862,0,1,0,12.513,14.1l5.9,5.9ZM.746,7.832a7.086,7.086,0,1,1,7.086,7.086A7.094,7.094,0,0,1,.746,7.832Zm12.519,5.629q.1-.1.2-.2c.054-.056.113-.108.166-.166l5.319,5.319-.528.528L13.1,13.626C13.157,13.574,13.208,13.515,13.265,13.461Z"></path> </symbol> <symbol xmlns="http://www.w3.org/2000/svg" viewBox="0 0 20 20" id="settings"> <path d="M18.97,7.778H17.1a.718.718,0,0,1-.508-1.226l1.323-1.323a1.031,1.031,0,0,0,0-1.457L16.228,2.086a1.054,1.054,0,0,0-1.457,0L13.449,3.409a.7.7,0,0,1-.5.213.747.747,0,0,1-.505-.2.694.694,0,0,1-.22-.521V1.03A1.031,1.031,0,0,0,11.193,0H8.807a1.031,1.031,0,0,0-1.03,1.03V2.9a.716.716,0,0,1-.726.72.7.7,0,0,1-.5-.213L5.229,2.086a1.054,1.054,0,0,0-1.457,0L2.086,3.772a1.031,1.031,0,0,0,0,1.457L3.409,6.551A.718.718,0,0,1,2.9,7.778H1.03A1.031,1.031,0,0,0,0,8.807v2.384a1.031,1.031,0,0,0,1.03,1.03H2.9a.718.718,0,0,1,.508,1.226L2.086,14.771a1.031,1.031,0,0,0,0,1.457l1.686,1.686a1.054,1.054,0,0,0,1.457,0l1.323-1.323a.7.7,0,0,1,.5-.213.717.717,0,0,1,.726.72V18.97A1.031,1.031,0,0,0,8.807,20h2.385a1.031,1.031,0,0,0,1.03-1.03V17.1a.716.716,0,0,1,.726-.72.7.7,0,0,1,.5.213l1.323,1.323a1.054,1.054,0,0,0,1.457,0l1.686-1.686a1.031,1.031,0,0,0,0-1.457l-1.323-1.323a.718.718,0,0,1,.508-1.226H18.97A1.031,1.031,0,0,0,20,11.192V8.807A1.031,1.031,0,0,0,18.97,7.778ZM12.593,10A2.593,2.593,0,1,1,10,7.407,2.6,2.6,0,0,1,12.593,10Z"></path> </symbol> <symbol xmlns="http://www.w3.org/2000/svg" viewBox="0 0 20 20" id="settings-o"> <path d="M18.97,7.778H17.1a.718.718,0,0,1-.508-1.226l1.323-1.323a1.031,1.031,0,0,0,0-1.457L16.228,2.086a1.054,1.054,0,0,0-1.457,0L13.449,3.409A.718.718,0,0,1,12.222,2.9V1.03A1.031,1.031,0,0,0,11.193,0H8.807a1.031,1.031,0,0,0-1.03,1.03V2.9a.718.718,0,0,1-1.226.508L5.229,2.086a1.054,1.054,0,0,0-1.457,0L2.086,3.772a1.031,1.031,0,0,0,0,1.457L3.409,6.551A.718.718,0,0,1,2.9,7.778H1.03A1.031,1.031,0,0,0,0,8.807v2.385a1.031,1.031,0,0,0,1.03,1.03H2.9a.718.718,0,0,1,.508,1.226L2.086,14.771a1.031,1.031,0,0,0,0,1.457l1.686,1.686a1.054,1.054,0,0,0,1.457,0l1.323-1.323a.718.718,0,0,1,1.226.508V18.97A1.031,1.031,0,0,0,8.807,20h2.385a1.031,1.031,0,0,0,1.03-1.03V17.1a.718.718,0,0,1,1.226-.508l1.323,1.323a1.054,1.054,0,0,0,1.457,0l1.686-1.686a1.031,1.031,0,0,0,0-1.457l-1.323-1.323a.718.718,0,0,1,.509-1.226H18.97A1.031,1.031,0,0,0,20,11.193V8.807A1.031,1.031,0,0,0,18.97,7.778Zm.289,3.415a.289.289,0,0,1-.289.289H17.1a1.459,1.459,0,0,0-1.032,2.491L17.39,15.3a.289.289,0,0,1,0,.409L15.7,17.39a.289.289,0,0,1-.409,0l-1.323-1.323A1.459,1.459,0,0,0,11.481,17.1V18.97a.289.289,0,0,1-.289.289H8.807a.289.289,0,0,1-.289-.289V17.1a1.436,1.436,0,0,0-.9-1.348,1.476,1.476,0,0,0-.568-.115,1.439,1.439,0,0,0-1.023.431L4.7,17.39a.289.289,0,0,1-.409,0L2.61,15.7a.289.289,0,0,1,0-.409l1.323-1.323A1.459,1.459,0,0,0,2.9,11.481H1.03a.289.289,0,0,1-.289-.289V8.807a.289.289,0,0,1,.289-.289H2.9A1.459,1.459,0,0,0,3.933,6.027L2.61,4.7a.289.289,0,0,1,0-.409L4.3,2.61a.289.289,0,0,1,.409,0L6.027,3.932A1.459,1.459,0,0,0,8.519,2.9V1.03A.289.289,0,0,1,8.807.741h2.385a.289.289,0,0,1,.289.289V2.9a1.459,1.459,0,0,0,2.491,1.032L15.3,2.61a.289.289,0,0,1,.409,0L17.39,4.3a.289.289,0,0,1,0,.409L16.067,6.028A1.459,1.459,0,0,0,17.1,8.519H18.97a.289.289,0,0,1,.289.289Z"></path> <path d="M21.333,18a3.333,3.333,0,1,0,3.333,3.333A3.337,3.337,0,0,0,21.333,18Zm0,5.926a2.593,2.593,0,1,1,2.593-2.593A2.6,2.6,0,0,1,21.333,23.926Z" transform="translate(-11.333 -11.333)"></path> </symbol> <symbol xmlns="http://www.w3.org/2000/svg" viewBox="0 0 20 20" id="star"> <path d="M19.983,8.93a.364.364,0,0,0-.289-.256l-6.476-.988-2.9-6.159a.35.35,0,0,0-.642,0l-2.9,6.159L.307,8.674a.364.364,0,0,0-.289.256.388.388,0,0,0,.091.385l4.686,4.794L3.688,20.878a.385.385,0,0,0,.142.367.341.341,0,0,0,.377.029L10,18.079l5.792,3.2a.344.344,0,0,0,.377-.029.384.384,0,0,0,.142-.367l-1.106-6.769,4.686-4.794A.389.389,0,0,0,19.983,8.93Z" transform="translate(0 -1.318)"></path> </symbol> <symbol xmlns="http://www.w3.org/2000/svg" viewBox="0 0 20 20" id="star-o"> <path d="M4.041,21.316a.346.346,0,0,1-.21-.072.384.384,0,0,1-.142-.367l1.107-6.769L.108,9.314a.389.389,0,0,1-.091-.385.364.364,0,0,1,.289-.256l6.476-.988,2.9-6.159A.356.356,0,0,1,10,1.317h0a.355.355,0,0,1,.321.21l2.9,6.159,6.476.988a.364.364,0,0,1,.289.256.388.388,0,0,1-.091.385l-4.686,4.794,1.106,6.769a.385.385,0,0,1-.142.367.342.342,0,0,1-.377.029L10,18.078l-5.793,3.2A.347.347,0,0,1,4.041,21.316ZM1.128,9.307l4.3,4.4a.387.387,0,0,1,.1.332L4.516,20.254,9.834,17.32a.342.342,0,0,1,.333,0l5.317,2.933L14.469,14.04a.388.388,0,0,1,.1-.332l4.3-4.4L12.929,8.4a.36.36,0,0,1-.27-.206L10,2.542,7.342,8.2a.36.36,0,0,1-.27.206Z" transform="translate(0 -1.317)"></path> </symbol> <symbol xmlns="http://www.w3.org/2000/svg" viewBox="0 0 20 20" id="success"> <path d="M-2166,810a9.993,9.993,0,0,1,10-10,9.995,9.995,0,0,1,10,10,9.994,9.994,0,0,1-10,10A9.993,9.993,0,0,1-2166,810Zm1.562,0a8.432,8.432,0,0,0,8.438,8.438,8.433,8.433,0,0,0,8.438-8.437,8.433,8.433,0,0,0-8.438-8.437A8.433,8.433,0,0,0-2164.438,810Zm6.573,4.294-3.847-3.077a.77.77,0,0,1-.12-1.082.767.767,0,0,1,.6-.288.772.772,0,0,1,.48.168l3.276,2.62,5.669-6.377a.769.769,0,0,1,.574-.257.771.771,0,0,1,.511.193.772.772,0,0,1,.064,1.087l-6.153,6.923a.771.771,0,0,1-.575.258A.763.763,0,0,1-2157.865,814.294Z" transform="translate(2166 -800)"></path> </symbol> <symbol xmlns="http://www.w3.org/2000/svg" viewBox="0 0 20 20" id="tick-round"> <path d="M10,0A10,10,0,1,0,20,10,10.011,10.011,0,0,0,10,0Zm5.575,6.665L9.421,13.588a.77.77,0,0,1-1.056.09L4.519,10.6A.769.769,0,0,1,5.48,9.4l3.276,2.62,5.669-6.377a.769.769,0,0,1,1.15,1.023Z"></path> </symbol> <symbol xmlns="http://www.w3.org/2000/svg" viewBox="0 0 20 20" id="tick-round-o"> <path d="M10,0A10,10,0,1,0,20,10,10.011,10.011,0,0,0,10,0Zm0,19.231A9.231,9.231,0,1,1,19.231,10,9.242,9.242,0,0,1,10,19.231Z"></path> <path d="M22.1,15.129l-5.911,6.65L12.625,18.93a.385.385,0,0,0-.48.6l3.846,3.077a.385.385,0,0,0,.528-.045l6.154-6.923a.385.385,0,0,0-.575-.511Z" transform="translate(-7.385 -9.23)"></path> </symbol> <symbol xmlns="http://www.w3.org/2000/svg" viewBox="0 0 20 20" id="tick-square"> <path d="M0,0V20H20V0ZM14.832,7.443l-5.333,6a.667.667,0,0,1-.915.078L5.25,10.854a.667.667,0,0,1,.833-1.041l2.839,2.271,4.913-5.527a.667.667,0,0,1,1,.886Z"></path> </symbol> <symbol xmlns="http://www.w3.org/2000/svg" viewBox="0 0 20 20" id="tick-square-o"> <path d="M19.459,26.594a.334.334,0,0,0,.458-.039l5.333-6a.333.333,0,0,0-.5-.443l-5.123,5.763-3.086-2.469a.333.333,0,0,0-.416.521Z" transform="translate(-10.667 -13.333)"></path> <path d="M0,0V20H20V0ZM19.333,19.333H.667V.667H19.333Z"></path> </symbol> <symbol xmlns="http://www.w3.org/2000/svg" viewBox="0 0 16.272 20" id="trash"> <path d="M18.169,2.034H13.408A2.7,2.7,0,0,0,12.8.437,1.439,1.439,0,0,0,11.729,0H8.339A1.439,1.439,0,0,0,7.273.437a2.688,2.688,0,0,0-.614,1.6H2.576a.339.339,0,1,0,0,.678h.692l.649,15.6A1.645,1.645,0,0,0,5.581,20h9.583a1.644,1.644,0,0,0,1.664-1.681l.65-15.607h.691a.339.339,0,1,0,0-.678ZM7.322,16.949a.339.339,0,1,1-.678,0V5.763a.339.339,0,1,1,.678,0Zm3.39,0a.339.339,0,1,1-.678,0V5.763a.339.339,0,1,1,.678,0Zm3.39,0a.339.339,0,1,1-.678,0V5.763a.339.339,0,1,1,.678,0ZM7.76.909A.767.767,0,0,1,8.339.678h3.39a.765.765,0,0,1,.578.231,2,2,0,0,1,.421,1.125H7.34A1.994,1.994,0,0,1,7.76.909Z" transform="translate(-2.237)"></path> </symbol> <symbol xmlns="http://www.w3.org/2000/svg" viewBox="0 0 16.271 20" id="trash-o"> <g transform="translate(-5.5)"> <path d="M28.839,27.864a.339.339,0,0,0,.339-.339V16.339a.339.339,0,1,0-.678,0V27.525A.339.339,0,0,0,28.839,27.864Z" transform="translate(-15.203 -10.576)"></path> <path d="M18.839,27.864a.339.339,0,0,0,.339-.339V16.339a.339.339,0,1,0-.678,0V27.525A.339.339,0,0,0,18.839,27.864Z" transform="translate(-8.593 -10.576)"></path> <path d="M38.839,27.864a.339.339,0,0,0,.339-.339V16.339a.339.339,0,1,0-.678,0V27.525A.339.339,0,0,0,38.839,27.864Z" transform="translate(-21.814 -10.576)"></path> <path d="M21.432,2.034H16.672a2.694,2.694,0,0,0-.615-1.6A1.434,1.434,0,0,0,14.991,0H11.6a1.434,1.434,0,0,0-1.066.437,2.694,2.694,0,0,0-.615,1.6H5.839a.339.339,0,1,0,0,.678h.692l.649,15.6A1.645,1.645,0,0,0,8.844,20h9.584a1.643,1.643,0,0,0,1.663-1.681L20.74,2.712h.692a.339.339,0,1,0,0-.678ZM11.023.909A.768.768,0,0,1,11.6.678h3.389a.768.768,0,0,1,.579.231,2,2,0,0,1,.42,1.125H10.6A2,2,0,0,1,11.023.909ZM19.413,18.3a.984.984,0,0,1-.986,1.024H8.844a1,1,0,0,1-.986-1.031L7.209,2.712H20.062Z"></path> </g> </symbol> <symbol xmlns="http://www.w3.org/2000/svg" viewBox="0 0 20 18" id="undo"> <g transform="translate(0 -32.446)"> <g transform="translate(0 32.446)"> <path d="M19.381,44.967A11.254,11.254,0,0,0,9.166,36.749V33.305a.859.859,0,0,0-.514-.793.814.814,0,0,0-.908.186l-7.5,7.729a.876.876,0,0,0,0,1.214l7.5,7.729a.814.814,0,0,0,.908.186.859.859,0,0,0,.514-.793V44.344c1.618-.169,5.984,0,9.283,5.718a.773.773,0,0,0,.685.385.947.947,0,0,0,.252-.035A.905.905,0,0,0,20,49.544,15.883,15.883,0,0,0,19.381,44.967Z" transform="translate(0 -32.446)"></path> </g> </g> </symbol> <symbol xmlns="http://www.w3.org/2000/svg" viewBox="0 0 20 18" id="undo-o"> <g transform="translate(-0.001 -31.986)"> <g transform="translate(0.001 31.986)"> <path d="M19.929,47.359a15.941,15.941,0,0,0-.548-2.877A11.257,11.257,0,0,0,9.166,36.277V32.845a.831.831,0,0,0-1.422-.606l-7.5,7.713a.874.874,0,0,0,0,1.212l7.5,7.713a.831.831,0,0,0,1.422-.606V43.863a8.4,8.4,0,0,1,6.145,1.942,13.073,13.073,0,0,1,3.138,3.76A.83.83,0,0,0,20,49.128c0-.039,0-.039,0-.109A14.644,14.644,0,0,0,19.929,47.359Zm-3.6-2.911a9.939,9.939,0,0,0-7.7-2.245,4.858,4.858,0,0,0-.5.094.853.853,0,0,0-.63.831V46.2L2.012,40.558,7.5,34.914V37.13a.844.844,0,0,0,.862.856l.13,0a9.556,9.556,0,0,1,9.291,6.986q.166.576.278,1.144A13.006,13.006,0,0,0,16.33,44.449Z" transform="translate(-0.001 -31.986)"></path> </g> </g> </symbol> <symbol xmlns="http://www.w3.org/2000/svg" viewBox="0 0 16.296 20" id="unlocked"> <path d="M19.074,7.449V5.37A5.675,5.675,0,0,0,13.148,0,5.675,5.675,0,0,0,7.222,5.37a.37.37,0,0,0,.741,0A4.937,4.937,0,0,1,13.148.741a4.937,4.937,0,0,1,5.185,4.63V7.407H7.677A2.68,2.68,0,0,0,5,10.085v7.238A2.68,2.68,0,0,0,7.677,20H18.619A2.68,2.68,0,0,0,21.3,17.323V10.085A2.68,2.68,0,0,0,19.074,7.449ZM14.63,14.074a1.481,1.481,0,0,1-2.963,0V11.852a1.481,1.481,0,1,1,2.963,0Z" transform="translate(-5)"></path> </symbol> <symbol xmlns="http://www.w3.org/2000/svg" viewBox="0 0 16.296 20" id="unlocked-o"> <g transform="translate(-5)"> <path d="M19.074,7.449V5.37A5.675,5.675,0,0,0,13.148,0,5.675,5.675,0,0,0,7.222,5.37a.37.37,0,0,0,.741,0A4.937,4.937,0,0,1,13.148.741a4.937,4.937,0,0,1,5.185,4.63V7.407H7.677A2.68,2.68,0,0,0,5,10.085v7.238A2.68,2.68,0,0,0,7.677,20H18.619A2.68,2.68,0,0,0,21.3,17.323V10.085A2.68,2.68,0,0,0,19.074,7.449Zm1.481,9.873a1.939,1.939,0,0,1-1.937,1.937H7.677a1.939,1.939,0,0,1-1.937-1.937V10.085A1.939,1.939,0,0,1,7.677,8.148H18.619a1.939,1.939,0,0,1,1.937,1.937Z"></path> <path d="M24.481,28A1.483,1.483,0,0,0,23,29.481V31.7a1.481,1.481,0,0,0,2.963,0V29.481A1.483,1.483,0,0,0,24.481,28Zm.741,3.7a.741.741,0,0,1-1.481,0V29.481a.741.741,0,0,1,1.481,0Z" transform="translate(-11.333 -17.63)"></path> </g> </symbol> <symbol xmlns="http://www.w3.org/2000/svg" viewBox="0 0 14.915 20" id="upload"> <g transform="translate(-7.5 0.001)"> <path d="M18.177,4.752a.675.675,0,0,0,.479-.2L20.9,2.314V13.22a.678.678,0,1,0,1.356,0V2.314l2.225,2.225a.678.678,0,0,0,.959-.959L22.054.2a.663.663,0,0,0-.1-.085C21.934.1,21.916.095,21.9.085a.62.62,0,0,0-.066-.035A.681.681,0,0,0,21.765.03a.582.582,0,0,0-.059-.017.673.673,0,0,0-.265,0c-.02,0-.039.012-.059.017a.681.681,0,0,0-.068.021.62.62,0,0,0-.066.035c-.017.009-.034.017-.05.027a.7.7,0,0,0-.1.085l-3.4,3.4a.678.678,0,0,0,.48,1.157Z" transform="translate(-6.61 0)"></path> <path d="M16.314,16v7.8a1.356,1.356,0,0,1-2.712,0V16H7.5V30.575H22.415V16Z" transform="translate(0 -10.576)"></path> </g> </symbol> <symbol xmlns="http://www.w3.org/2000/svg" viewBox="0 0 14.916 20" id="upload-o"> <g transform="translate(-7.499 0)"> <path d="M18.818,4.074a.338.338,0,0,0,.24-.1l2.818-2.818V13.22a.339.339,0,0,0,.678,0V1.157l2.8,2.8a.339.339,0,1,0,.479-.479L22.455.1a.334.334,0,0,0-.111-.074A.34.34,0,0,0,21.974.1l-3.4,3.4a.339.339,0,0,0,.24.579Z" transform="translate(-7.258 0)"></path> <path d="M17.33,16a.339.339,0,1,0,0,.678h4.407V29.9H8.177V16.677h4.407a.339.339,0,0,0,0-.678H7.5V30.576H22.415V16Z" transform="translate(0 -10.575)"></path> </g> </symbol> <symbol xmlns="http://www.w3.org/2000/svg" viewBox="0 0 20 20" id="user"> <path d="M20,10A10,10,0,1,0,3.246,17.367l-.009.008.324.273c.021.018.044.032.065.05.172.143.351.279.533.41.059.043.118.085.178.127q.291.2.6.381l.134.077c.223.127.451.247.684.356l.052.023a9.91,9.91,0,0,0,2.419.765l.067.012c.263.045.529.082.8.106l.1.008c.268.022.54.036.815.036s.541-.014.808-.036l.1-.008q.4-.037.792-.1l.068-.012a9.909,9.909,0,0,0,2.384-.747l.083-.038q.337-.158.659-.34l.16-.092c.2-.115.388-.236.575-.364.067-.046.133-.094.2-.142.16-.115.316-.233.469-.357.034-.027.07-.051.1-.079l.333-.278-.01-.008A9.974,9.974,0,0,0,20,10ZM.727,10a9.273,9.273,0,1,1,15.422,6.932,2.725,2.725,0,0,0-.325-.2L12.746,15.2a.806.806,0,0,1-.448-.725V13.4c.071-.088.147-.188.224-.3a7.41,7.41,0,0,0,.951-1.863,1.32,1.32,0,0,0,.758-1.2V8.752a1.323,1.323,0,0,0-.323-.861v-1.7a2.933,2.933,0,0,0-.685-2.132A4.093,4.093,0,0,0,10,2.909,4.094,4.094,0,0,0,6.776,4.061a2.933,2.933,0,0,0-.685,2.132v1.7a1.325,1.325,0,0,0-.323.861v1.289a1.323,1.323,0,0,0,.487,1.026A6.833,6.833,0,0,0,7.38,13.39v1.052a.811.811,0,0,1-.423.712L4.083,16.723a2.628,2.628,0,0,0-.273.173A9.25,9.25,0,0,1,.727,10Z"></path> </symbol> <symbol xmlns="http://www.w3.org/2000/svg" viewBox="0 0 20 20" id="user-o"> <path d="M20,10A10,10,0,1,0,3.246,17.367l-.009.008.324.273c.021.018.044.032.065.05.172.143.351.279.533.41.059.043.118.085.178.127q.291.2.6.381l.134.077c.223.127.451.247.684.356l.052.023a9.91,9.91,0,0,0,2.419.765l.067.012c.263.045.529.082.8.106l.1.008c.268.022.54.036.815.036s.541-.014.808-.036l.1-.008q.4-.037.792-.1l.068-.012a9.909,9.909,0,0,0,2.384-.747l.083-.038q.337-.158.659-.34l.16-.092c.2-.115.388-.236.575-.364.067-.046.133-.094.2-.142.16-.115.316-.233.469-.357.034-.027.07-.051.1-.079l.333-.278-.01-.008A9.974,9.974,0,0,0,20,10ZM.727,10a9.273,9.273,0,1,1,15.422,6.932,2.725,2.725,0,0,0-.325-.2L12.746,15.2a.806.806,0,0,1-.448-.725V13.4c.071-.088.147-.188.224-.3a7.41,7.41,0,0,0,.951-1.863,1.32,1.32,0,0,0,.758-1.2V8.752a1.323,1.323,0,0,0-.323-.861v-1.7a2.933,2.933,0,0,0-.685-2.132A4.093,4.093,0,0,0,10,2.909,4.094,4.094,0,0,0,6.776,4.061a2.933,2.933,0,0,0-.685,2.132v1.7a1.325,1.325,0,0,0-.323.861v1.289a1.323,1.323,0,0,0,.487,1.026A6.833,6.833,0,0,0,7.38,13.39v1.052a.811.811,0,0,1-.423.712L4.083,16.723a2.628,2.628,0,0,0-.273.173A9.25,9.25,0,0,1,.727,10ZM15.44,17.5c-.127.092-.257.182-.388.267-.06.039-.12.079-.182.117-.172.106-.346.207-.524.3l-.119.061a9.266,9.266,0,0,1-1.268.537l-.046.016q-.342.113-.692.2h0c-.236.058-.474.107-.714.146l-.02,0c-.226.037-.453.063-.682.083l-.121.009c-.226.017-.453.028-.681.028s-.46-.011-.689-.028l-.119-.009c-.231-.02-.46-.048-.687-.085l-.031-.005a9.238,9.238,0,0,1-1.415-.353l-.043-.015q-.343-.117-.677-.259l0,0c-.21-.091-.416-.191-.62-.3l-.08-.041c-.186-.1-.368-.207-.547-.319l-.158-.1c-.165-.108-.328-.22-.487-.339L4.4,17.381l.035-.02,2.875-1.568a1.538,1.538,0,0,0,.8-1.351v-1.31l-.084-.1a6.072,6.072,0,0,1-1.091-2.26L6.9,10.627l-.124-.08a.6.6,0,0,1-.28-.506V8.752a.594.594,0,0,1,.2-.445l.12-.108V6.173l0-.048A2.19,2.19,0,0,1,7.323,4.54,3.427,3.427,0,0,1,10,3.636a3.435,3.435,0,0,1,2.671.9,2.227,2.227,0,0,1,.514,1.593l0,2.073.12.108a.6.6,0,0,1,.2.445v1.289a.607.607,0,0,1-.429.573l-.181.056-.058.18a6.727,6.727,0,0,1-.908,1.83c-.1.135-.188.254-.268.345l-.09.1v1.345a1.529,1.529,0,0,0,.85,1.375L15.5,17.387l.058.03C15.519,17.447,15.479,17.474,15.44,17.5Z"></path> </symbol> <symbol xmlns="http://www.w3.org/2000/svg" viewBox="0 0 20 11.466" id="view"> <g transform="translate(0 -12.63)"> <path d="M17.25,15.647a10.3,10.3,0,0,0-14.568,0L0,18.33l2.749,2.749a10.3,10.3,0,0,0,14.568,0L20,18.4ZM16.839,20.6a9.625,9.625,0,0,1-13.612,0L.956,18.33l2.205-2.205a9.625,9.625,0,0,1,13.612,0L19.044,18.4Z"></path> <path d="M20.964,16.57a4.392,4.392,0,1,0,4.392,4.392A4.4,4.4,0,0,0,20.964,16.57Zm0,2.7a1.691,1.691,0,0,0-1.689,1.689.338.338,0,0,1-.676,0A2.367,2.367,0,0,1,20.964,18.6a.338.338,0,1,1,0,.676Z" transform="translate(-10.973 -2.609)"></path> </g> </symbol> <symbol xmlns="http://www.w3.org/2000/svg" viewBox="0 0 20 11.456" id="view-o"> <g transform="translate(0 -12.644)"> <path d="M17.25,15.657a10.312,10.312,0,0,0-14.568,0L0,18.339l2.749,2.749a10.312,10.312,0,0,0,14.568,0L20,18.406Zm-.411,4.954a9.637,9.637,0,0,1-13.612,0L.955,18.339,3.16,16.134a9.637,9.637,0,0,1,13.612,0l2.272,2.272Z"></path> <path d="M23.937,21.57a2.367,2.367,0,0,0-2.365,2.365.338.338,0,0,0,.676,0,1.691,1.691,0,0,1,1.689-1.689.338.338,0,1,0,0-.676Z" transform="translate(-14.284 -5.91)"></path> <path d="M20.964,16.57a4.392,4.392,0,1,0,4.392,4.392A4.4,4.4,0,0,0,20.964,16.57Zm0,8.108a3.716,3.716,0,1,1,3.716-3.716A3.721,3.721,0,0,1,20.964,24.678Z" transform="translate(-10.973 -2.6)"></path> </g> </symbol> <symbol xmlns="http://www.w3.org/2000/svg" viewBox="0 0 20 20" id="warning"> <path d="M4000.026,1689a2.024,2.024,0,0,1-1.81-2.929l7.974-15.951a2.024,2.024,0,0,1,3.621,0l7.975,15.951a2.025,2.025,0,0,1-1.811,2.929Zm7.561-18.183-7.974,15.952a.462.462,0,0,0,.413.669h15.948a.462.462,0,0,0,.412-.669l-7.973-15.952a.462.462,0,0,0-.826,0Zm-.642,13.659a1.055,1.055,0,1,1,1.055,1.055A1.055,1.055,0,0,1,4006.945,1684.476Zm.274-2.735v-4.926a.781.781,0,1,1,1.562,0v4.926a.781.781,0,1,1-1.562,0Z" transform="translate(-3998 -1669)"></path> </symbol> <symbol xmlns="http://www.w3.org/2000/svg" viewBox="0 0 20 20" id="warning-round"> <path d="M5004,1998a10,10,0,1,1,10,10A9.994,9.994,0,0,1,5004,1998Zm1.562,0a8.438,8.438,0,1,0,8.438-8.438A8.433,8.433,0,0,0,5005.563,1998Zm7.382,3.639a1.055,1.055,0,1,1,1.055,1.055A1.055,1.055,0,0,1,5012.945,2001.639Zm.273-2.793v-5.031a.781.781,0,0,1,1.563,0v5.031a.781.781,0,1,1-1.562,0Z" transform="translate(-5004 -1988)"></path> </symbol> <symbol xmlns="http://www.w3.org/2000/svg" viewBox="0 0 14.762 20" id="back"> <path d="M20.007.054a.478.478,0,0,0-.492.03L6.452,9.093V.476a.476.476,0,0,0-.952,0V19.524a.476.476,0,0,0,.952,0V10.907l13.063,9.009a.479.479,0,0,0,.492.03.477.477,0,0,0,.255-.422V.476A.477.477,0,0,0,20.007.054Z" transform="translate(-5.5)"></path> </symbol> <symbol xmlns="http://www.w3.org/2000/svg" viewBox="0 0 14.762 20" id="back-o"> <path d="M20.007.054a.478.478,0,0,0-.492.03L6.452,9.093V.476a.476.476,0,0,0-.952,0V19.524a.476.476,0,0,0,.952,0V10.907l13.063,9.009a.479.479,0,0,0,.492.03.477.477,0,0,0,.255-.422V.476A.477.477,0,0,0,20.007.054Zm-.7,18.563L6.815,10,19.31,1.383Z" transform="translate(-5.5)"></path> </symbol> <symbol xmlns="http://www.w3.org/2000/svg" viewBox="0 0 10 6" id="caret-down"> <path d="M9.139,54.253,5,58.763.862,54.252a.476.476,0,0,0-.714,0,.587.587,0,0,0,0,.778l4.5,4.9h0a.475.475,0,0,0,.713,0l4.5-4.9a.587.587,0,0,0,0-.779A.475.475,0,0,0,9.139,54.253Z" transform="translate(0 -54.091)"></path> </symbol> <symbol xmlns="http://www.w3.org/2000/svg" viewBox="0 0 6 10" id="caret-left"> <path d="M9.139,54.253,5,58.763.862,54.252a.476.476,0,0,0-.714,0,.587.587,0,0,0,0,.778l4.5,4.9h0a.475.475,0,0,0,.713,0l4.5-4.9a.587.587,0,0,0,0-.779A.475.475,0,0,0,9.139,54.253Z" transform="translate(60.091) rotate(90)"></path> </symbol> <symbol xmlns="http://www.w3.org/2000/svg" viewBox="0 0 6 10" id="caret-right"> <path d="M9.139,54.253,5,58.763.862,54.252a.476.476,0,0,0-.714,0,.587.587,0,0,0,0,.778l4.5,4.9h0a.475.475,0,0,0,.713,0l4.5-4.9a.587.587,0,0,0,0-.779A.475.475,0,0,0,9.139,54.253Z" transform="translate(-54.091 10) rotate(-90)"></path> </symbol> <symbol xmlns="http://www.w3.org/2000/svg" viewBox="0 0 10 6" id="caret-up"> <path d="M9.139,54.253,5,58.763.862,54.252a.476.476,0,0,0-.714,0,.587.587,0,0,0,0,.778l4.5,4.9h0a.475.475,0,0,0,.713,0l4.5-4.9a.587.587,0,0,0,0-.779A.475.475,0,0,0,9.139,54.253Z" transform="translate(10 60.091) rotate(180)"></path> </symbol> <symbol xmlns="http://www.w3.org/2000/svg" viewBox="0 0 20 20" id="cart"> <path d="M4015.014,1690a2.037,2.037,0,0,1-1.9-2.149,2.362,2.362,0,0,1,.187-.928l.116-.273h-4.367l.116.273a2.362,2.362,0,0,1,.187.928,1.911,1.911,0,1,1-3.792,0,2.36,2.36,0,0,1,.187-.928l.116-.273H4004.7a1.8,1.8,0,0,1-1.67-1.863,2.017,2.017,0,0,1,.488-1.372,1.577,1.577,0,0,1,1.122-.555l.238-.01L4002.1,1671.3a.45.45,0,0,0-.43-.355H3999.4a.481.481,0,0,1,0-.948h2.269a1.29,1.29,0,0,1,1.2,1.045l.744,3.1h.154l3.386.016,2.288.011c4.126.02,7.885.038,8.547.038a.961.961,0,0,1,.782.43,1.277,1.277,0,0,1,.2.992l-1.451,7.042a1.338,1.338,0,0,1-1.261,1.14h-6.7c-2.421,0-3.966,0-4.861-.005h-.011a.91.91,0,0,0-.847.951.9.9,0,0,0,.847.944h12.01a.443.443,0,0,1,.4.474.471.471,0,0,1-.28.451l-.194.073.084.19a2.356,2.356,0,0,1,.2.961A2.037,2.037,0,0,1,4015.014,1690Zm-7.555-3.351h0a1.207,1.207,0,1,0,1.094,1.2,1.153,1.153,0,0,0-1.094-1.2Zm7.571,0H4015a1.1,1.1,0,1,0,.036,0h0Zm-6.736-7.172.4,3.384h2.139v-3.384h-2.541Zm6.692,0-.4,3.384h1.672a.5.5,0,0,0,.481-.414l.612-2.97h-2.367Zm-3.348,0v3.384h2.138l.4-3.384Zm-6.737,0h0l.713,2.967a.528.528,0,0,0,.5.417h1.766l-.4-3.384Zm-1.055-4.387h0l.827,3.439h2.7l-.406-3.425-3.118-.014Zm11.65.052-.4,3.387h2.45l.644-3.123v0a.209.209,0,0,0-.2-.25l-2.5-.011Zm-3.858-.017v3.4h2.648l.4-3.39-3.048-.014Zm-3.863-.018.406,3.422h2.653v-3.408l-3.06-.014Z" transform="translate(-3999 -1670)"></path> </symbol> <symbol xmlns="http://www.w3.org/2000/svg" viewBox="0 0 20 20" id="close"> <path d="M4.488,4.488a1.667,1.667,0,0,1,2.357,0L14,11.643l7.155-7.155a1.667,1.667,0,1,1,2.357,2.357L16.357,14l7.155,7.155a1.667,1.667,0,1,1-2.357,2.357L14,16.357,6.845,23.512a1.667,1.667,0,1,1-2.357-2.357L11.643,14,4.488,6.845a1.667,1.667,0,0,1,0-2.357Z" transform="translate(-4 -4)"></path> </symbol> <symbol xmlns="http://www.w3.org/2000/svg" viewBox="0 0 20 20" id="cross-round"> <g transform="translate(0 0)"> <path d="M17.074,2.926a10,10,0,1,0,0,14.149A10.016,10.016,0,0,0,17.074,2.926Zm-3.129,11.02a.769.769,0,0,1-1.088,0L10,11.088,7.007,14.081a.769.769,0,0,1-1.088-1.088L8.912,10,6.055,7.143A.769.769,0,0,1,7.143,6.055L10,8.912l2.721-2.721a.769.769,0,0,1,1.088,1.088L11.088,10l2.857,2.857A.769.769,0,0,1,13.945,13.945Z" transform="translate(0 0)"></path> </g> </symbol> <symbol xmlns="http://www.w3.org/2000/svg" viewBox="0 0 20 20" id="cross-round-o"> <path d="M10,0A10,10,0,1,0,20,10,10.011,10.011,0,0,0,10,0Zm0,19.231A9.231,9.231,0,1,1,19.231,10,9.242,9.242,0,0,1,10,19.231Z"></path> <path d="M23.579,16.113a.384.384,0,0,0-.544,0l-3.19,3.19-3.19-3.19a.385.385,0,1,0-.544.544l3.19,3.19-3.19,3.19a.385.385,0,1,0,.544.544l3.19-3.19,3.19,3.19a.385.385,0,0,0,.544-.544l-3.19-3.19,3.19-3.19A.384.384,0,0,0,23.579,16.113Z" transform="translate(-9.846 -9.846)"></path> </symbol> <symbol xmlns="http://www.w3.org/2000/svg" viewBox="0 0 20 20" id="cross-square"> <path d="M0,0V20H20V0ZM15.471,14.428l-.943.943L10.05,10.892,5.572,15.371l-.943-.943L9.108,9.95,4.629,5.471l.943-.943L10.05,9.007l4.478-4.478.943.943L10.993,9.95Z"></path> </symbol> <symbol xmlns="http://www.w3.org/2000/svg" viewBox="0 0 20 20" id="cross-square-o"> <path d="M0,0V20H20V0ZM19.333,19.333H.667V.667H19.333Z"></path> <path d="M15.066,24.664,19.78,19.95l4.714,4.714.471-.471-4.714-4.714,4.714-4.714-.471-.471L19.78,19.007l-4.714-4.714-.471.471,4.714,4.714L14.6,24.192Z" transform="translate(-9.73 -9.529)"></path> </symbol> <symbol xmlns="http://www.w3.org/2000/svg" viewBox="0 0 14.915 20" id="download"> <g transform="translate(-7.499)"> <path d="M18.637,9.358a.678.678,0,1,0-.959.959L21.062,13.7a.676.676,0,0,0,.479.2h.014a.675.675,0,0,0,.547-.28L25.417,10.3a.678.678,0,0,0-.959-.959l-2.225,2.225V.678a.678.678,0,1,0-1.356,0V11.6Z" transform="translate(-6.598)"></path> <path d="M16.313,16v4.509l1.068-1.068A1.356,1.356,0,1,1,19.3,21.359l-3.315,3.315a1.346,1.346,0,0,1-1.026.479h-.014a1.355,1.355,0,0,1-.959-.4L10.6,21.373a1.356,1.356,0,1,1,1.917-1.917L13.6,20.537V16H7.5V30.576H22.414V16Z" transform="translate(0 -10.576)"></path> </g> </symbol> <symbol xmlns="http://www.w3.org/2000/svg" viewBox="0 0 14.915 20" id="download-o"> <g transform="translate(-7.5)"> <path d="M19.058,9.6a.339.339,0,0,0-.479.479l3.383,3.383a.335.335,0,0,0,.239.1h.014a.333.333,0,0,0,.269-.143l3.353-3.353a.339.339,0,0,0-.479-.479l-2.8,2.8V.339a.339.339,0,0,0-.678,0V12.416Z" transform="translate(-7.258)"></path> <path d="M17.331,16a.339.339,0,0,0,0,.678h4.407V29.9H8.178V16.678h4.407a.339.339,0,0,0,0-.678H7.5V30.576H22.415V16Z" transform="translate(0 -10.576)"></path> </g> </symbol> <symbol xmlns="http://www.w3.org/2000/svg" viewBox="0 0 20 20" id="exit"> <g transform="translate(-1.001)"> <path d="M37.783,15.588a.371.371,0,0,0-.082-.119l-4.528-4.363a.387.387,0,0,0-.534,0,.354.354,0,0,0,0,.514l3.884,3.743H28.378a.364.364,0,1,0,0,.727h8.146L32.64,19.834a.354.354,0,0,0,0,.514.387.387,0,0,0,.534,0L37.7,15.985a.359.359,0,0,0,.082-.119A.352.352,0,0,0,37.783,15.588Z" transform="translate(-16.811 -7)"></path> <path d="M14.209,10.545a.37.37,0,0,0-.377.364v5.818H10.058V2.909a.365.365,0,0,0-.263-.347L3.809.727H13.831V6.545a.378.378,0,0,0,.755,0V.364A.37.37,0,0,0,14.209,0H1.378c-.012,0-.023.005-.034.007a.359.359,0,0,0-.06.012.374.374,0,0,0-.1.039c-.01.006-.022.006-.031.012S1.135.089,1.124.1L1.105.115a.378.378,0,0,0-.069.1c0,.007-.005.015-.008.022A.351.351,0,0,0,1,.364V17.091a.347.347,0,0,0,.027.129.36.36,0,0,0,.02.037.349.349,0,0,0,.05.071c.011.012.022.022.034.033a.374.374,0,0,0,.073.047.34.34,0,0,0,.042.02l.018.009,8.3,2.545A.4.4,0,0,0,9.68,20a.388.388,0,0,0,.223-.07.359.359,0,0,0,.155-.294V17.455h4.151a.37.37,0,0,0,.377-.364V10.909A.371.371,0,0,0,14.209,10.545Z"></path> </g> </symbol> <symbol xmlns="http://www.w3.org/2000/svg" viewBox="0 0 20 20" id="exit-o"> <g transform="translate(-1.001)"> <path d="M37.783,15.866a.352.352,0,0,0,0-.278.371.371,0,0,0-.082-.119l-4.528-4.363a.387.387,0,0,0-.534,0,.354.354,0,0,0,0,.514l3.884,3.743H28.378a.364.364,0,1,0,0,.727h8.146L32.64,19.834a.354.354,0,0,0,0,.514.387.387,0,0,0,.534,0L37.7,15.985A.365.365,0,0,0,37.783,15.866Z" transform="translate(-16.811 -7)"></path> <path d="M14.209,10.545a.37.37,0,0,0-.377.364v5.818H10.058V2.909a.365.365,0,0,0-.263-.347L3.809.727H13.831V6.545a.378.378,0,0,0,.755,0V.364A.37.37,0,0,0,14.209,0H1.378c-.012,0-.023.005-.034.007a.359.359,0,0,0-.06.012.374.374,0,0,0-.1.039c-.01.006-.022.006-.031.012S1.135.089,1.124.1L1.105.115a.378.378,0,0,0-.069.1c0,.007-.005.015-.008.022A.351.351,0,0,0,1,.364V17.091a.347.347,0,0,0,.027.129.36.36,0,0,0,.02.037.349.349,0,0,0,.05.071c.011.012.022.022.034.033a.374.374,0,0,0,.073.047.34.34,0,0,0,.042.02l.018.009,8.3,2.545A.4.4,0,0,0,9.68,20a.388.388,0,0,0,.223-.07.359.359,0,0,0,.155-.294V17.455h4.151a.37.37,0,0,0,.377-.364V10.909A.371.371,0,0,0,14.209,10.545ZM9.3,19.139,1.756,16.825V.861L9.3,3.175Z"></path> </g> </symbol> <symbol xmlns="http://www.w3.org/2000/svg" viewBox="0 0 10.789 20" id="facebook"> <g transform="translate(-145.408 -51.712)"> <path d="M148.412,63h-2.478c-.4,0-.526-.15-.526-.525V59.447c0-.4.151-.526.526-.526h2.478v-2.2a5.555,5.555,0,0,1,.676-2.828,4.15,4.15,0,0,1,2.227-1.853,5.579,5.579,0,0,1,1.928-.325H155.7c.35,0,.5.15.5.5v2.854c0,.351-.151.5-.5.5-.676,0-1.352,0-2.028.025a.9.9,0,0,0-1.026,1.026c-.025.751,0,1.477,0,2.253h2.9c.4,0,.551.15.551.55V62.45c0,.4-.126.526-.551.526h-2.9v8.16c0,.426-.125.576-.576.576h-3.128c-.376,0-.526-.15-.526-.526V63Z"></path> </g> </symbol> <symbol xmlns="http://www.w3.org/2000/svg" viewBox="0 0 20 20" id="facebook-round"> <path d="M17.383,7.758a9.913,9.913,0,0,1,5.048,1.373,10.1,10.1,0,0,1,2.526,15.257,10.193,10.193,0,0,1-5.643,3.37V20.569h1.961l.444-2.824h-2.97V15.9a1.607,1.607,0,0,1,.342-1.063,1.563,1.563,0,0,1,1.255-.477h1.793V11.88q-.039-.012-.733-.1a14.614,14.614,0,0,0-1.58-.1,3.948,3.948,0,0,0-2.836,1.011,3.913,3.913,0,0,0-1.066,2.9v2.147H13.665v2.824h2.259v7.189a9.942,9.942,0,0,1-6.115-3.37A10.09,10.09,0,0,1,12.335,9.131a9.91,9.91,0,0,1,5.048-1.373Z" transform="translate(-7.383 -7.758)"></path> </symbol> <symbol xmlns="http://www.w3.org/2000/svg" viewBox="0 0 40 40" id="favicon"> <path d="M10.217,40,27.29,35.5H5.308c-.47,0-.843-.5-.843-1.123h0V15.453l8.682,18.925H17.6V5.62c0-.62.377-1.123.847-1.123H28.98L20.713,0H16.547c-1.88,0-3.388,2.013-3.388,4.5h0V24.583L4.46,5.62H0V35.5C0,37.983,1.513,40,3.382,40Z" fill="#090806"></path> <path d="M17.453,20.6l-2.183,3.32v8.217h-4.2V3.374h4.2V16.407l1.86-3.578,5.2-9.46H27.5L20.25,16.149,27.7,32.131h-5L17.463,20.6" transform="translate(7.38 2.246)" fill="#fcc23b"></path> <path d="M32.53,0h-15.9L24.89,4.5h5.748a1.012,1.012,0,0,1,.85,1.122V34.388a1.018,1.018,0,0,1-.843,1.123H23.2L6.13,40h26.4c1.87,0,3.383-2.017,3.383-4.5V4.5C35.913,2.013,34.4,0,32.53,0Z" transform="translate(4.087)" fill="#fcc23b"></path> </symbol> <symbol xmlns="http://www.w3.org/2000/svg" viewBox="0 0 19.263 20" id="funnel"> <path d="M20.22,2.7C20.22.926,15.375,0,10.588,0S.957.926.957,2.7a1.367,1.367,0,0,0,.692,1.073l6.628,9.07v6.752L8.3,20h.385l.176-.007L12.9,15.955V12.839l6.628-9.07A1.366,1.366,0,0,0,20.22,2.7ZM10.588.771C16,.771,19.449,1.911,19.449,2.7S16,4.623,10.588,4.623,1.728,3.482,1.728,2.7,5.179.771,10.588.771Z" transform="translate(-0.957)"></path> </symbol> <symbol xmlns="http://www.w3.org/2000/svg" viewBox="0 0 19.203 20" id="funnel-o"> <path d="M20.242,2.688C20.242.923,15.411,0,10.64,0s-9.6.923-9.6,2.688a1.361,1.361,0,0,0,.69,1.069L8.336,12.8V19.53a.406.406,0,0,0,.25.376L8.85,20l4.095-4.1V12.8l6.6-9.032v0A1.368,1.368,0,0,0,20.242,2.688ZM10.64.768c5.392,0,8.833,1.137,8.833,1.92,0,.162-.155.339-.436.518l-.02,0,.007.01C17.935,3.9,14.9,4.609,10.64,4.609s-7.3-.711-8.387-1.4L2.26,3.2,2.1,3.108c-.189-.145-.294-.288-.294-.42C1.807,1.905,5.248.768,10.64.768Zm1.536,14.819L9.1,18.66v-5.6h3.072Zm.19-3.3H8.915L3.18,4.442a25.777,25.777,0,0,0,7.46.934,25.794,25.794,0,0,0,7.46-.934Z" transform="translate(-1.039)"></path> </symbol> <symbol xmlns="http://www.w3.org/2000/svg" viewBox="0 0 20 20" id="heart"> <path d="M19.967,7.79c-.292-3.456-2.566-5.963-5.413-5.963a5.322,5.322,0,0,0-4.61,2.857,5.138,5.138,0,0,0-4.5-2.857C2.6,1.826.325,4.333.034,7.789A6.6,6.6,0,0,0,.2,10.056a9.883,9.883,0,0,0,2.769,4.97l6.968,6.8,7.087-6.8a9.885,9.885,0,0,0,2.769-4.97A6.616,6.616,0,0,0,19.967,7.79Z" transform="translate(0 -1.826)"></path> </symbol> <symbol xmlns="http://www.w3.org/2000/svg" viewBox="0 0 20 20" id="heart-o"> <g transform="translate(0 -1.826)"> <path d="M19.967,7.79c-.292-3.456-2.566-5.963-5.413-5.963a5.322,5.322,0,0,0-4.61,2.857,5.138,5.138,0,0,0-4.5-2.857C2.6,1.826.325,4.333.034,7.789A6.6,6.6,0,0,0,.2,10.056a9.883,9.883,0,0,0,2.769,4.97l6.968,6.8,7.087-6.8a9.885,9.885,0,0,0,2.769-4.97A6.616,6.616,0,0,0,19.967,7.79Zm-.919,2.076a9.039,9.039,0,0,1-2.535,4.544l-6.568,6.3-6.455-6.3A9.045,9.045,0,0,1,.953,9.866a5.768,5.768,0,0,1-.16-1.945L.8,7.879C1.048,4.851,3,2.653,5.446,2.653A4.532,4.532,0,0,1,9.589,5.762l.354.9.354-.9a4.661,4.661,0,0,1,4.258-3.108c2.443,0,4.4,2.2,4.653,5.265A5.761,5.761,0,0,1,19.048,9.866Z" transform="translate(0)"></path> </g> </symbol> <symbol xmlns="http://www.w3.org/2000/svg" viewBox="0 0 20 20" id="help"> <path d="M5004,1998a10,10,0,1,1,10,10A9.994,9.994,0,0,1,5004,1998Zm1.4,0a8.6,8.6,0,1,0,8.6-8.6A8.614,8.614,0,0,0,5005.4,1998Zm7.308,3.667a1.012,1.012,0,0,1,1-1.014,1.014,1.014,0,0,1,0,2.027A1.011,1.011,0,0,1,5012.7,2001.667Zm.264-2.8a2.408,2.408,0,0,1,.881-2c.435-.369,1.171-.777,1.171-1.488,0-.605-.525-.9-1.184-.9-1.343,0-1.054,1.014-1.764,1.014a.756.756,0,0,1-.791-.75c0-.711.817-1.764,2.594-1.764,1.685,0,2.8.934,2.8,2.172a3.371,3.371,0,0,1-1.474,2.408,1.652,1.652,0,0,0-.738,1.646c0,.25-.132.54-.776.54C5013.152,1999.745,5012.968,1999.548,5012.968,1998.864Z" transform="translate(-5004 -1988)"></path> </symbol> <symbol xmlns="http://www.w3.org/2000/svg" viewBox="0 0 20 16.385" id="hide"> <g transform="translate(0 -5.35)"> <path d="M17.251,10.921a10.345,10.345,0,0,0-2.361-1.769l3.226-3.226a.338.338,0,1,0-.478-.478L14.252,8.834a10.314,10.314,0,0,0-11.57,2.087L0,13.6l2.749,2.749a10.344,10.344,0,0,0,2.268,1.716l-3.09,3.09a.338.338,0,1,0,.478.478l3.241-3.241a10.32,10.32,0,0,0,11.671-2.042L20,13.67ZM5.514,17.572a9.659,9.659,0,0,1-2.287-1.7L.955,13.6,3.16,11.4A9.639,9.639,0,0,1,13.74,9.346Zm11.326-1.7a9.635,9.635,0,0,1-10.68,2.008l8.23-8.23A9.645,9.645,0,0,1,16.773,11.4l2.272,2.272Z"></path> <path d="M20.964,16.85a4.384,4.384,0,0,0-3.712,6.728L23.3,17.53A4.361,4.361,0,0,0,20.964,16.85Z" transform="translate(-10.973 -7.615)"></path> <path d="M22.459,28.811a4.387,4.387,0,0,0,6.075-6.075Z" transform="translate(-14.871 -11.513)"></path> </g> </symbol> <symbol xmlns="http://www.w3.org/2000/svg" viewBox="0 0 20 16.427" id="hide-o"> <g transform="translate(0 -5.274)"> <path d="M3.822,22.464a.339.339,0,1,0,.422-.53,9.27,9.27,0,0,1-.781-.7L.958,18.731l2.584-2.584a9.144,9.144,0,0,1,9.429-2.213.339.339,0,0,0,.216-.643A9.818,9.818,0,0,0,3.063,15.668L0,18.731l2.985,2.985A10,10,0,0,0,3.822,22.464Z" transform="translate(0 -4.958)"></path> <path d="M29.515,18.822A9.949,9.949,0,0,0,28.027,17.6a.339.339,0,1,0-.378.563A9.261,9.261,0,0,1,29.036,19.3l2.506,2.506-2.584,2.584a9.233,9.233,0,0,1-9.6,2.153.339.339,0,1,0-.229.638,9.907,9.907,0,0,0,10.311-2.312L32.5,21.807Z" transform="translate(-12.499 -8.111)"></path> <path d="M25.514,28.915a3.886,3.886,0,0,1-2.056-.586.339.339,0,0,0-.358.575,4.573,4.573,0,0,0,6.216-6.425.339.339,0,0,0-.563.377,3.9,3.9,0,0,1-3.239,6.059Z" transform="translate(-15.171 -11.278)"></path> <path d="M21.611,17.451a3.889,3.889,0,0,1,1.983.542.339.339,0,1,0,.345-.583A4.574,4.574,0,0,0,17.5,23.359a.339.339,0,0,0,.608-.3,3.859,3.859,0,0,1-.4-1.714A3.9,3.9,0,0,1,21.611,17.451Z" transform="translate(-11.267 -7.605)"></path> <path d="M22.742,5.373a.338.338,0,0,0-.479,0L6.513,21.123a.339.339,0,1,0,.479.479l15.75-15.75A.338.338,0,0,0,22.742,5.373Z" transform="translate(-4.241)"></path> </g> </symbol> <symbol xmlns="http://www.w3.org/2000/svg" viewBox="0 0 20 20" id="home"> <path d="M20.573,8.972,17.234,5.944v-3.8H14.476v1.3L10.683,0,.793,8.972a.332.332,0,0,0-.018.476.351.351,0,0,0,.488.018L2.752,8.115V20H8.269V11.893a.66.66,0,0,1,.668-.653h3.492a.66.66,0,0,1,.668.653V20h5.517V8.115L20.1,9.466a.351.351,0,0,0,.487-.018A.332.332,0,0,0,20.573,8.972Z" transform="translate(-0.683)"></path> </symbol> <symbol xmlns="http://www.w3.org/2000/svg" viewBox="0 0 20 20" id="home-o"> <path d="M20.073,9.126,17.079,6.364V1.838H13.631V3.182L10.183,0,.293,9.126a.342.342,0,0,0-.018.485.347.347,0,0,0,.488.018L1.907,8.572V20H18.459V8.572L19.6,9.628a.344.344,0,1,0,.469-.5Zm-5.752-6.6H16.39v3.2L14.321,3.818ZM8.114,19.315V12.1a.322.322,0,0,1,.323-.321h3.492a.322.322,0,0,1,.323.321v7.218H8.114Zm9.655,0H12.941V12.1a1.011,1.011,0,0,0-1.013-1.006H8.437A1.011,1.011,0,0,0,7.424,12.1v7.218H2.6V7.936l7.586-7,4.924,4.544L17.079,7.3h0l.69.636Z" transform="translate(-0.183)"></path> </symbol> <symbol xmlns="http://www.w3.org/2000/svg" viewBox="0 0 20 20" id="info"> <path d="M5004,1998a10,10,0,1,1,10,10A9.994,9.994,0,0,1,5004,1998Zm1.562,0a8.438,8.438,0,1,0,8.438-8.438A8.433,8.433,0,0,0,5005.563,1998Zm7.656,4.185v-5.031a.781.781,0,1,1,1.563,0v5.031a.781.781,0,0,1-1.562,0Zm-.273-7.824a1.055,1.055,0,1,1,1.055,1.054A1.056,1.056,0,0,1,5012.945,1994.361Z" transform="translate(-5004 -1988)"></path> </symbol> <symbol xmlns="http://www.w3.org/2000/svg" viewBox="0 0 20 20" id="instagram"> <path d="M13.75,0H6.25A6.251,6.251,0,0,0,0,6.25v7.5A6.251,6.251,0,0,0,6.25,20h7.5A6.251,6.251,0,0,0,20,13.75V6.25A6.251,6.251,0,0,0,13.75,0Zm4.375,13.75a4.38,4.38,0,0,1-4.375,4.375H6.25A4.38,4.38,0,0,1,1.875,13.75V6.25A4.379,4.379,0,0,1,6.25,1.875h7.5A4.38,4.38,0,0,1,18.125,6.25Z"></path> <path d="M10,5a5,5,0,1,0,5,5A5,5,0,0,0,10,5Zm0,8.125A3.125,3.125,0,1,1,13.125,10,3.129,3.129,0,0,1,10,13.125Z"></path> <path d="M15.375,3.959a.667.667,0,1,1-.666.666A.667.667,0,0,1,15.375,3.959Z"></path> </symbol> <symbol xmlns="http://www.w3.org/2000/svg" viewBox="0 0 20 20" id="internet"> <g transform="translate(0 -0.069)"> <path d="M29.975,19.824h4.132a12.11,12.11,0,0,0-.919-4.316,12.7,12.7,0,0,1-3.212.5Z" transform="translate(-19.63 -10.098)"></path> <path d="M33.946,4.562A12.007,12.007,0,0,0,36.82,3.12l.225-.173A9.967,9.967,0,0,0,30.732.069l-.179.146A12.8,12.8,0,0,1,33.946,4.562Z" transform="translate(-20.008 0)"></path> <path d="M29.975,2.628V6.89A12.044,12.044,0,0,0,32.9,6.446,12.1,12.1,0,0,0,29.975,2.628Z" transform="translate(-19.63 -1.674)"></path> <path d="M41.531,34.212a12.712,12.712,0,0,1,3.066,1.6l.3.225a10,10,0,0,0,2.3-6.056H42.365A12.8,12.8,0,0,1,41.531,34.212Z" transform="translate(-27.198 -19.567)"></path> <path d="M8.788,3.12a12.026,12.026,0,0,0,2.874,1.442A12.8,12.8,0,0,1,15.055.215L14.876.069A9.97,9.97,0,0,0,8.551,2.958Z" transform="translate(-5.6)"></path> <path d="M22.426,2.628A12.1,12.1,0,0,0,19.5,6.446a12.027,12.027,0,0,0,2.924.444Z" transform="translate(-12.771 -1.674)"></path> <path d="M4.833,29.985H0a10,10,0,0,0,2.3,6.056l.293-.22a12.757,12.757,0,0,1,3.074-1.609A12.788,12.788,0,0,1,4.833,29.985Z" transform="translate(0 -19.567)"></path> <path d="M5.782,11.624A12.711,12.711,0,0,1,2.8,10.119L2.475,9.9A10,10,0,0,0,0,16.155H4.833A12.8,12.8,0,0,1,5.782,11.624Z" transform="translate(0 -6.428)"></path> <path d="M16,19.826h4.132V16.007a12.721,12.721,0,0,1-3.213-.5A12.1,12.1,0,0,0,16,19.826Z" transform="translate(-10.48 -10.099)"></path> <path d="M14.663,48.665a12.831,12.831,0,0,1-3.49-4.615,12.044,12.044,0,0,0-2.931,1.529l-.238.178a9.973,9.973,0,0,0,6.421,3.078Z" transform="translate(-5.242 -28.766)"></path> <path d="M20.135,33.458V29.985H16a12.1,12.1,0,0,0,.8,4.006A12.682,12.682,0,0,1,20.135,33.458Z" transform="translate(-10.48 -19.567)"></path> <path d="M37.067,45.574a11.994,11.994,0,0,0-2.923-1.524,12.786,12.786,0,0,1-3.49,4.616l.236.168a9.973,9.973,0,0,0,6.421-3.077Z" transform="translate(-20.075 -28.766)"></path> <path d="M44.195,10.079a12.785,12.785,0,0,1-3,1.515,12.807,12.807,0,0,1,.949,4.531h4.833A10,10,0,0,0,44.49,9.852Z" transform="translate(-26.978 -6.399)"></path> <path d="M22.158,46.631V42.023a12,12,0,0,0-3.065.484A12.085,12.085,0,0,0,22.158,46.631Z" transform="translate(-12.504 -27.44)"></path> <path d="M34.107,29.985H29.975v3.473a12.69,12.69,0,0,1,3.335.533A12.142,12.142,0,0,0,34.107,29.985Z" transform="translate(-19.63 -19.567)"></path> <path d="M33.041,42.507a12.02,12.02,0,0,0-3.066-.484v4.609A12.048,12.048,0,0,0,33.041,42.507Z" transform="translate(-19.63 -27.44)"></path> </g> </symbol> <symbol xmlns="http://www.w3.org/2000/svg" viewBox="0 0 20 20" id="internet-o"> <path d="M17.479,16.628a9.973,9.973,0,0,0-.193-13.468h0l0,0A9.972,9.972,0,0,0,10.347.009h0L10.151,0c-.05,0-.1,0-.151,0s-.1,0-.151,0L9.654.009h0A9.972,9.972,0,0,0,2.72,3.156s0,0,0,0h0a9.972,9.972,0,0,0-.193,13.467s0,.007,0,.01.015.013.022.021a9.977,9.977,0,0,0,7.106,3.333h0L9.848,20c.051,0,.1,0,.152,0s.1,0,.151,0l.194-.005h0a9.977,9.977,0,0,0,7.112-3.34c0-.006.012-.008.016-.014S17.477,16.631,17.479,16.628ZM.7,10.345H4.837a12.743,12.743,0,0,0,.833,4.213,12.715,12.715,0,0,0-2.8,1.424A9.267,9.267,0,0,1,.7,10.345ZM3.061,3.8A12.684,12.684,0,0,0,5.786,5.14a12.733,12.733,0,0,0-.948,4.516H.7A9.27,9.27,0,0,1,3.061,3.8ZM19.3,9.655H15.163a12.733,12.733,0,0,0-.948-4.516A12.684,12.684,0,0,0,16.939,3.8,9.27,9.27,0,0,1,19.3,9.655ZM9.655,5.16a12.055,12.055,0,0,1-2.921-.442A12.065,12.065,0,0,1,9.655.912Zm0,.69V9.655H5.527a12.043,12.043,0,0,1,.919-4.3A12.741,12.741,0,0,0,9.655,5.849Zm.69,0a12.73,12.73,0,0,0,3.209-.5,12.043,12.043,0,0,1,.919,4.3H10.345Zm0-.69V.912a12.065,12.065,0,0,1,2.921,3.806A12.055,12.055,0,0,1,10.345,5.16Zm3.589-.652A12.734,12.734,0,0,0,11.214.771,9.284,9.284,0,0,1,16.45,3.295,11.994,11.994,0,0,1,13.934,4.508Zm-7.868,0A11.983,11.983,0,0,1,3.551,3.295,9.282,9.282,0,0,1,8.786.771,12.729,12.729,0,0,0,6.066,4.508Zm-.539,5.837H9.655v3.461a12.718,12.718,0,0,0-3.331.531A12.043,12.043,0,0,1,5.527,10.345ZM9.655,14.5v4.592a12.059,12.059,0,0,1-3.063-4.109A12.023,12.023,0,0,1,9.655,14.5Zm.69,4.592V14.5a12.023,12.023,0,0,1,3.063.483A12.057,12.057,0,0,1,10.345,19.088Zm0-5.282V10.345h4.128a12.038,12.038,0,0,1-.8,3.993A12.7,12.7,0,0,0,10.345,13.806Zm4.818-3.461H19.3a9.265,9.265,0,0,1-2.175,5.637,12.715,12.715,0,0,0-2.8-1.424A12.735,12.735,0,0,0,15.163,10.345ZM3.342,16.5a12.018,12.018,0,0,1,2.592-1.3,12.724,12.724,0,0,0,2.852,4.034A9.291,9.291,0,0,1,3.342,16.5Zm7.872,2.73a12.716,12.716,0,0,0,2.852-4.034,12.025,12.025,0,0,1,2.592,1.3A9.291,9.291,0,0,1,11.214,19.229Z"></path> </symbol> <symbol xmlns="http://www.w3.org/2000/svg" viewBox="0 0 11.333 20" id="lightning"> <g transform="translate(-110.933)"> <g transform="translate(110.933)"> <path d="M122.235,6.859a.333.333,0,0,0-.3-.193h-3.95l3.9-6.155A.333.333,0,0,0,121.6,0h-5.333a.334.334,0,0,0-.3.184l-5,10a.333.333,0,0,0,.3.482h3.428l-3.735,8.871a.334.334,0,0,0,.562.344L122.188,7.215A.334.334,0,0,0,122.235,6.859Z" transform="translate(-110.933)"></path> </g> </g> </symbol> <symbol xmlns="http://www.w3.org/2000/svg" viewBox="0 0 11.353 20" id="lightning-o"> <g transform="translate(-110.682)"> <g transform="translate(110.682)"> <path d="M122,6.867a.32.32,0,0,0-.3-.2h-3.933L121.665.5a.3.3,0,0,0,0-.333.35.35,0,0,0-.3-.167h-5.333a.35.35,0,0,0-.3.167l-5,10a.3.3,0,0,0,0,.333.4.4,0,0,0,.3.167h3.433l-3.733,8.9a.333.333,0,0,0,.133.4.25.25,0,0,0,.167.033.378.378,0,0,0,.267-.1L121.965,7.233A.358.358,0,0,0,122,6.867Zm-9.8,10.9,3.067-7.333a.324.324,0,0,0-.033-.3.412.412,0,0,0-.267-.133h-3.4L116.232.667h4.533l-3.933,6.167a.3.3,0,0,0,0,.333.35.35,0,0,0,.3.167H121Z" transform="translate(-110.682)"></path> </g> </g> </symbol> <symbol xmlns="http://www.w3.org/2000/svg" viewBox="0 0 20 20" id="linkedin"> <path d="M15.833,0H4.167A4.167,4.167,0,0,0,0,4.167V15.833A4.167,4.167,0,0,0,4.167,20H15.833A4.167,4.167,0,0,0,20,15.833V4.167A4.167,4.167,0,0,0,15.833,0ZM6.667,15.833h-2.5V6.667h2.5ZM5.417,5.61A1.47,1.47,0,1,1,6.875,4.14,1.465,1.465,0,0,1,5.417,5.61Zm11.25,10.223h-2.5v-4.67c0-2.807-3.333-2.594-3.333,0v4.67h-2.5V6.667h2.5V8.137C12,5.983,16.667,5.823,16.667,10.2Z"></path> </symbol> <symbol xmlns="http://www.w3.org/2000/svg" viewBox="0 0 14.008 20" id="location"> <path d="M20.16,2.052a7,7,0,0,0-9.906,0A7.978,7.978,0,0,0,9.6,11.9L15.207,20l5.6-8.093A7.981,7.981,0,0,0,20.16,2.052ZM15.272,9.5A2.557,2.557,0,1,1,17.829,6.94,2.56,2.56,0,0,1,15.272,9.5Z" transform="translate(-8.203)"></path> </symbol> <symbol xmlns="http://www.w3.org/2000/svg" viewBox="0 0 14.008 20" id="location-o"> <g transform="translate(-8.203)"> <path d="M23.114,12a2.557,2.557,0,1,0,2.557,2.557A2.56,2.56,0,0,0,23.114,12Zm0,4.383a1.826,1.826,0,1,1,1.826-1.826A1.828,1.828,0,0,1,23.114,16.383Z" transform="translate(-7.842 -7.617)"></path> <path d="M20.16,2.052a7,7,0,0,0-9.906,0A7.978,7.978,0,0,0,9.6,11.9L15.207,20l5.6-8.093A7.981,7.981,0,0,0,20.16,2.052Zm.058,9.429-5.011,7.236-5.019-7.248a7.208,7.208,0,0,1,.583-8.9,6.274,6.274,0,0,1,8.872,0A7.211,7.211,0,0,1,20.218,11.48Z"></path> </g> </symbol> <symbol xmlns="http://www.w3.org/2000/svg" viewBox="0 0 16.296 20" id="locked"> <path d="M19.074,7.449V5.37A5.675,5.675,0,0,0,13.148,0,5.675,5.675,0,0,0,7.222,5.37V7.449A2.68,2.68,0,0,0,5,10.085v7.238A2.68,2.68,0,0,0,7.677,20H18.619A2.68,2.68,0,0,0,21.3,17.323V10.085A2.68,2.68,0,0,0,19.074,7.449ZM7.963,5.37A4.937,4.937,0,0,1,13.148.741a4.937,4.937,0,0,1,5.185,4.63V7.407H7.963Zm6.667,8.7a1.481,1.481,0,0,1-2.963,0V11.852a1.481,1.481,0,1,1,2.963,0Z" transform="translate(-5)"></path> </symbol> <symbol xmlns="http://www.w3.org/2000/svg" viewBox="0 0 16.296 20" id="locked-o"> <g transform="translate(-5)"> <path d="M19.074,7.449V5.37A5.675,5.675,0,0,0,13.148,0,5.675,5.675,0,0,0,7.222,5.37V7.449A2.68,2.68,0,0,0,5,10.085v7.238A2.68,2.68,0,0,0,7.677,20H18.619A2.68,2.68,0,0,0,21.3,17.323V10.085A2.68,2.68,0,0,0,19.074,7.449ZM7.963,5.37A4.937,4.937,0,0,1,13.148.741a4.937,4.937,0,0,1,5.185,4.63V7.407H7.963ZM20.556,17.323a1.939,1.939,0,0,1-1.937,1.937H7.677a1.939,1.939,0,0,1-1.937-1.937V10.085A1.939,1.939,0,0,1,7.677,8.148H18.619a1.939,1.939,0,0,1,1.937,1.937Z"></path> <path d="M24.481,28A1.483,1.483,0,0,0,23,29.481V31.7a1.481,1.481,0,0,0,2.963,0V29.481A1.483,1.483,0,0,0,24.481,28Zm.741,3.7a.741.741,0,0,1-1.481,0V29.481a.741.741,0,0,1,1.481,0Z" transform="translate(-11.333 -17.63)"></path> </g> </symbol> <symbol xmlns="http://www.w3.org/2000/svg" viewBox="0 0 136 40" id="logo"> <g transform="translate(54.585)"> <path d="M209.454,101.2l-3.016,3.32v8.217h-5.8V83.977h5.8V97.015l2.552-3.575,7.174-9.463H223.3l-10,12.781,10.285,15.981h-6.9L209.454,101.2" transform="translate(-186.866 -78.359)" fill="#fcc23b"></path> <path d="M260.593,100.275H249.455v7.7h13.071v4.76H243.654V83.977H262.49v4.8H249.455v6.854h11.138v4.643" transform="translate(-205.832 -78.359)" fill="#fcc23b"></path> <path d="M285.18,107.979H297.5v4.76H279.379V83.977h5.8v24" transform="translate(-221.582 -78.359)" fill="#fcc23b"></path> <path d="M253.023,114.145a4.45,4.45,0,0,0,4.4-4.495h0V78.64a4.45,4.45,0,0,0-4.4-4.5H176.008l13.2,4.5h62.715a1.111,1.111,0,0,1,1.1,1.123h0v28.762a1.113,1.113,0,0,1-1.1,1.125H205.709l-13.2,4.495Z" transform="translate(-176.008 -74.145)" fill="#fcc23b"></path> </g> <path d="M167.241,96.935,173.1,83.977h6.343L170.2,102.31v10.429h-5.9V102.31l-9.243-18.334h6.362l5.821,12.959" transform="translate(-112.186 -78.359)" fill="#090806"></path> <path d="M137.152,83.977h-5.375L121.3,112.739h6.168l1.934-5.926H139.57l1.952,5.926h6.169Zm-6.187,18.037,3.5-10.768L138,102.014Z" transform="translate(-97.302 -78.359)" fill="#090806"></path> <path d="M101.275,108.525h-5.8L84.182,89.6v18.924a1.114,1.114,0,0,0,1.1,1.125h77.386l-13.2,4.495H82.782a4.45,4.45,0,0,1-4.4-4.495h0V79.763h5.8L95.494,98.727V78.64a4.45,4.45,0,0,1,4.4-4.5h33.072l13.2,4.5H102.376a1.112,1.112,0,0,0-1.1,1.123h0Z" transform="translate(-78.381 -74.145)" fill="#090806"></path> </symbol> <symbol xmlns="http://www.w3.org/2000/svg" viewBox="0 0 20 14" id="mail"> <g transform="translate(0 -76)"> <g transform="translate(1.024 83.826)"> <path d="M38.161,277.251l-1.675,1.673a1.86,1.86,0,0,1-2.568,0l-1.675-1.673-6.016,6.009a1.747,1.747,0,0,0,.733.165H43.444a1.746,1.746,0,0,0,.733-.165Z" transform="translate(-26.226 -277.251)"></path> </g> <g transform="translate(1.025 76)"> <g transform="translate(0 0)"> <path d="M43.446,76H26.961a1.747,1.747,0,0,0-.733.165l6.429,6.421h0l2.09,2.088a.706.706,0,0,0,.909,0l2.09-2.088h0l6.429-6.421A1.745,1.745,0,0,0,43.446,76Z" transform="translate(-26.228 -76)"></path> </g> </g> <g transform="translate(0 76.98)"> <g transform="translate(0 0)"> <path d="M.187,101.212a1.722,1.722,0,0,0-.187.77v10.5a1.722,1.722,0,0,0,.187.77l6.027-6.019Z" transform="translate(0 -101.212)"></path> </g> </g> <g transform="translate(13.786 76.98)"> <g transform="translate(0 0)"> <path d="M358.96,101.21l-6.027,6.02,6.027,6.019a1.723,1.723,0,0,0,.187-.77v-10.5A1.723,1.723,0,0,0,358.96,101.21Z" transform="translate(-352.933 -101.21)"></path> </g> </g> </g> </symbol> <symbol xmlns="http://www.w3.org/2000/svg" viewBox="0 0 20 14" id="mail-o"> <path d="M5492.64,4213h-16.821a1.594,1.594,0,0,1-1.589-1.6v-10.809a1.594,1.594,0,0,1,1.589-1.6h16.821a1.6,1.6,0,0,1,1.59,1.6V4211.4A1.6,1.6,0,0,1,5492.64,4213Zm-11.43-6.44-5.609,5.651h17.256l-5.608-5.651-1.854,1.868a1.683,1.683,0,0,1-2.332,0l-1.853-1.868Zm-6.193-6.24v11.36l5.637-5.68-5.637-5.68Zm18.424,0L5487.8,4206l5.637,5.68v-11.36Zm-17.84-.531,8.021,8.082a.9.9,0,0,0,1.215,0l1.247-1.256,4.756-4.792,1.668-1.681.349-.352H5475.6Z" transform="translate(-5474.23 -4198.999)"></path> </symbol> <symbol xmlns="http://www.w3.org/2000/svg" viewBox="0 0 20 20" id="map-1"> <g transform="translate(0 -1)"> <path d="M19.821,1.055a.358.358,0,0,0-.364-.01L13.333,4.411,7.21,1.044,7.2,1.039a.363.363,0,0,0-.054-.021L7.11,1.009A.371.371,0,0,0,7.048,1H7.02a.346.346,0,0,0-.059.01.315.315,0,0,0-.033.007l-.007,0L.253,3.327A.383.383,0,0,0,0,3.692V20.231a.39.39,0,0,0,.154.312.363.363,0,0,0,.216.072.352.352,0,0,0,.117-.02l6.536-2.262,6.169,2.638c.005,0,.011,0,.016,0a.362.362,0,0,0,.125.025.358.358,0,0,0,.1-.015l.03-.012a.37.37,0,0,0,.044-.018l6.3-3.462a.387.387,0,0,0,.2-.34V1.384A.388.388,0,0,0,19.821,1.055ZM.741,3.969,6.667,1.918V12.3c-.159.03-.316.064-.468.105a.386.386,0,0,0-.263.47.366.366,0,0,0,.453.273c.089-.025.186-.037.278-.057v4.554L.741,19.7Zm6.667,9.015c.119-.01.234-.025.356-.028a.385.385,0,0,0-.008-.769H7.747c-.115,0-.228.009-.34.017V2.023l5.556,3.054v8.152a5.342,5.342,0,0,1-.815-.1.37.37,0,0,0-.434.3.384.384,0,0,0,.293.451,6.069,6.069,0,0,0,.956.111v6.047L7.407,17.665Zm11.852,3.937L13.7,19.976V13.953a.384.384,0,0,0,0-.693V5.078l5.556-3.054Z" transform="translate(0 0)"></path> <path d="M7.852,9A1.891,1.891,0,0,0,6,10.923a1.91,1.91,0,0,0,1.481,1.884v.808a.371.371,0,1,0,.741,0v-.808A1.91,1.91,0,0,0,9.7,10.923,1.891,1.891,0,0,0,7.852,9Zm0,3.077a1.155,1.155,0,1,1,1.111-1.154A1.134,1.134,0,0,1,7.852,12.077Z" transform="translate(-3.778 -4.923)"></path> <path d="M44.67,24.12a.356.356,0,0,0,.135.026.371.371,0,0,0,.345-.245,8.872,8.872,0,0,0,.416-1.548.384.384,0,0,0-.3-.449.375.375,0,0,0-.432.308,8.069,8.069,0,0,1-.377,1.409A.39.39,0,0,0,44.67,24.12Z" transform="translate(-27.978 -12.862)"></path> <path d="M10.62,32.248a5.2,5.2,0,0,0-1.2,1.085.4.4,0,0,0,.044.542.361.361,0,0,0,.522-.046,4.437,4.437,0,0,1,1.025-.928.394.394,0,0,0,.117-.53A.362.362,0,0,0,10.62,32.248Z" transform="translate(-5.877 -19.193)"></path> <path d="M6.973,38.22a.365.365,0,0,0-.491.188A6.317,6.317,0,0,0,6,39.984a.382.382,0,0,0,.316.433.33.33,0,0,0,.051,0,.376.376,0,0,0,.367-.331,5.592,5.592,0,0,1,.417-1.359A.392.392,0,0,0,6.973,38.22Z" transform="translate(-3.778 -22.883)"></path> <path d="M39.792,30.948a.359.359,0,0,0,.168-.042,3.894,3.894,0,0,0,1.253-1.072.4.4,0,0,0-.057-.541.362.362,0,0,0-.521.059,3.145,3.145,0,0,1-1.013.868.392.392,0,0,0-.161.518A.37.37,0,0,0,39.792,30.948Z" transform="translate(-24.821 -17.36)"></path> <path d="M25.867,30.776c-.163-.071-.259-.12-.265-.124a.361.361,0,0,0-.076-.03,11.68,11.68,0,0,0-1.175-.252.372.372,0,0,0-.422.322.383.383,0,0,0,.31.438c.343.055.7.131,1.066.227.05.025.144.071.277.128a.355.355,0,0,0,.143.03.37.37,0,0,0,.342-.236A.39.39,0,0,0,25.867,30.776Z" transform="translate(-15.064 -18.071)"></path> <path d="M46.334,16.242h.024a.377.377,0,0,0,.369-.36c.023-.37.034-.761.034-1.162,0-.133,0-.269,0-.407a.388.388,0,0,0-.377-.378.379.379,0,0,0-.364.392c0,.133,0,.265,0,.393,0,.385-.011.759-.033,1.113A.38.38,0,0,0,46.334,16.242Z" transform="translate(-28.955 -7.961)"></path> <path d="M8.108,25.195a.361.361,0,0,0,.524,0l.479-.5.479.5a.361.361,0,0,0,.524,0,.4.4,0,0,0,0-.544l-.479-.5.479-.5a.4.4,0,0,0,0-.544.36.36,0,0,0-.524,0l-.479.5-.479-.5a.36.36,0,0,0-.524,0,.4.4,0,0,0,0,.544l.479.5-.479.5A.4.4,0,0,0,8.108,25.195Z" transform="translate(-5.037 -13.538)"></path> </g> </symbol> <symbol xmlns="http://www.w3.org/2000/svg" viewBox="0 0 20 16.998" id="map-2"> <path d="M19.808,6.866l-5-2.333-.016-.005a.334.334,0,0,0-.043-.014l-.036-.008a.293.293,0,0,0-.045,0h-.037a.3.3,0,0,0-.042.008l-.04.011-.014,0L10,6.472,5.465,4.528l-.009,0a.3.3,0,0,0-.041-.012A.376.376,0,0,0,5.377,4.5a.348.348,0,0,0-.042,0,.293.293,0,0,0-.038,0,.368.368,0,0,0-.042.009.349.349,0,0,0-.037.01l-.008,0-5,2A.333.333,0,0,0,0,6.834V21.168a.334.334,0,0,0,.457.31l4.872-1.949,4.54,1.945s.01,0,.014,0a.3.3,0,0,0,.234,0s.01,0,.014,0l4.54-1.945,4.872,1.949a.333.333,0,0,0,.457-.31v-14A.333.333,0,0,0,19.808,6.866ZM.667,7.06,5,5.327V18.942L.667,20.675Zm5-1.72,4,1.714V20.662l-4-1.714Zm4.667,1.714,4-1.714V18.948l-4,1.714Zm9,13.621L15,18.942V5.358L19.333,7.38Z" transform="translate(0 -4.503)"></path> </symbol> <symbol xmlns="http://www.w3.org/2000/svg" viewBox="0 0 20 20" id="map-location"> <g transform="translate(0 -1.002)"> <path d="M18.79,23.013H14.828a.378.378,0,0,0,0,.755h3.309L19.19,33.954H.824L2.062,23.768H5.376a.378.378,0,0,0,0-.755H1.42L0,34.709H20Z" transform="translate(0 -13.707)"></path> <path d="M19.739,15.326c-.053.033-.111.062-.162.1-.08.054-.158.11-.235.168a.387.387,0,0,0-.078.527.356.356,0,0,0,.509.081c.065-.049.131-.1.2-.143a3.961,3.961,0,0,1,.369-.219.381.381,0,0,0,.168-.479l.009-.008A17.12,17.12,0,0,0,24.309,7.4a8.041,8.041,0,0,0,.124-2.61A3.93,3.93,0,0,0,20.139,1a3.931,3.931,0,0,0-4.294,3.792,8.051,8.051,0,0,0,.125,2.61A17.151,17.151,0,0,0,19.739,15.326ZM16.565,4.893a3.2,3.2,0,0,1,3.574-3.136,3.2,3.2,0,0,1,3.573,3.136A7.283,7.283,0,0,1,23.6,7.249a16.832,16.832,0,0,1-3.459,7.412,16.837,16.837,0,0,1-3.459-7.412A7.283,7.283,0,0,1,16.565,4.893Z" transform="translate(-10.05)"></path> <path d="M23.079,10.776A2.725,2.725,0,0,0,25.75,8a2.672,2.672,0,1,0-5.341,0A2.725,2.725,0,0,0,23.079,10.776Zm0-4.788A2.018,2.018,0,1,1,21.136,8,1.984,1.984,0,0,1,23.079,5.988Z" transform="translate(-12.99 -2.635)"></path> <path d="M30.924,36.952a.377.377,0,0,0-.28.448.367.367,0,0,0,.355.3.353.353,0,0,0,.076-.008c.213-.047.444-.086.686-.118a.374.374,0,0,0,.316-.421.363.363,0,0,0-.405-.328C31.41,36.857,31.158,36.9,30.924,36.952Z" transform="translate(-19.5 -22.304)"></path> <path d="M36.6,36.875a.37.37,0,0,0,.363.361h.016L37.7,37.2a.372.372,0,0,0,.346-.394.378.378,0,0,0-.38-.36l-.726.031A.371.371,0,0,0,36.6,36.875Z" transform="translate(-23.294 -22.074)"></path> <path d="M21.137,42.052c-.187.146-.38.287-.574.418a.386.386,0,0,0-.107.522.36.36,0,0,0,.305.172.354.354,0,0,0,.2-.061c.208-.14.416-.291.616-.448a.388.388,0,0,0,.071-.529A.356.356,0,0,0,21.137,42.052Z" transform="translate(-12.983 -25.515)"></path> <path d="M43.355,35.419a1.269,1.269,0,0,1-.489.2.377.377,0,0,0-.282.446.367.367,0,0,0,.356.3.353.353,0,0,0,.074-.008,1.96,1.96,0,0,0,.762-.322L43.824,36a.387.387,0,0,0,.071-.529.355.355,0,0,0-.509-.073Z" transform="translate(-27.099 -21.371)"></path> <path d="M7.483,42.616a.379.379,0,0,0-.256-.463.361.361,0,0,0-.446.266,2.611,2.611,0,0,0-.082.53c0,.043,0,.087,0,.133,0,.074,0,.148.011.221a.369.369,0,0,0,.361.339l.037,0a.375.375,0,0,0,.325-.414c-.005-.049-.007-.1-.007-.147,0-.031,0-.063,0-.094A1.819,1.819,0,0,1,7.483,42.616Z" transform="translate(-4.262 -25.617)"></path> <path d="M42.716,27.779a2.063,2.063,0,0,0-.867.068.378.378,0,0,0-.251.465.366.366,0,0,0,.349.275.343.343,0,0,0,.1-.014,1.369,1.369,0,0,1,.573-.046.365.365,0,0,0,.409-.323A.375.375,0,0,0,42.716,27.779Z" transform="translate(-26.467 -16.663)"></path> <path d="M46.63,31.1a.38.38,0,0,0,.24.472.344.344,0,0,0,.107.017.365.365,0,0,0,.347-.266,1.662,1.662,0,0,0,.067-.363c0-.031,0-.063,0-.094a1.556,1.556,0,0,0-.093-.525.36.36,0,0,0-.467-.223.381.381,0,0,0-.214.485.782.782,0,0,1,.047.263v.044A.88.88,0,0,1,46.63,31.1Z" transform="translate(-29.657 -18.118)"></path> <path d="M15.945,45.1c-.213.1-.43.2-.645.286a.382.382,0,0,0-.208.488.364.364,0,0,0,.339.241.348.348,0,0,0,.131-.025c.231-.092.463-.2.692-.307a.383.383,0,0,0,.174-.5A.357.357,0,0,0,15.945,45.1Z" transform="translate(-9.59 -27.441)"></path> <path d="M9.564,39.493a.353.353,0,0,0,.174-.046.866.866,0,0,1,.331-.109.568.568,0,0,1,.148,0,.363.363,0,0,0,.408-.324.375.375,0,0,0-.313-.423,1.294,1.294,0,0,0-.324,0,1.574,1.574,0,0,0-.6.2.384.384,0,0,0-.145.512A.361.361,0,0,0,9.564,39.493Z" transform="translate(-5.855 -23.4)"></path> <path d="M9.516,47.616a1.742,1.742,0,0,0,.238.047,2.239,2.239,0,0,0,.28.018,2.6,2.6,0,0,0,.342-.023.374.374,0,0,0,.315-.421.367.367,0,0,0-.406-.327,1.717,1.717,0,0,1-.442.006,1.172,1.172,0,0,1-.143-.028.362.362,0,0,0-.443.27A.379.379,0,0,0,9.516,47.616Z" transform="translate(-5.884 -28.565)"></path> </g> </symbol> <symbol xmlns="http://www.w3.org/2000/svg" viewBox="0 0 20 13.2" id="menu"> <g transform="translate(0 -2)"> <rect width="20" height="2" transform="translate(0 2)"></rect> <rect width="20" height="2" transform="translate(0 7.6)"></rect> <rect width="20" height="2" transform="translate(0 13.2)"></rect> </g> </symbol> <symbol xmlns="http://www.w3.org/2000/svg" viewBox="0 0 20 20" id="menu-square"> <path d="M0,0V20H20V0ZM16.9,16.207H3.1V14.828H16.9Zm0-5.517H3.1V9.31H16.9Zm0-5.517H3.1V3.793H16.9Z"></path> </symbol> <symbol xmlns="http://www.w3.org/2000/svg" viewBox="0 0 20 20" id="menu-square-o"> <rect width="13.793" height="0.69" transform="translate(3.103 4.138)"></rect> <rect width="13.793" height="0.69" transform="translate(3.103 9.655)"></rect> <rect width="13.793" height="0.69" transform="translate(3.103 15.172)"></rect> <path d="M0,0V20H20V0ZM19.31,19.31H.69V.69H19.31Z"></path> </symbol> <symbol xmlns="http://www.w3.org/2000/svg" viewBox="0 0 20 20" id="messenger"> <g transform="translate(-51.2 -51.2)"> <path d="M61.188,51.2c-5.519,0-9.988,4.156-9.988,9.286a9.029,9.029,0,0,0,3.72,7.235l.051,3.254a.24.24,0,0,0,.349.2l3.121-1.753a11.031,11.031,0,0,0,2.772.351c5.518,0,9.987-4.155,9.987-9.287S66.681,51.2,61.188,51.2Zm.723,12.315L59.79,61.288a.421.421,0,0,0-.475-.076L55.57,63.24a.145.145,0,0,1-.175-.225l4.42-4.706a.346.346,0,0,1,.474,0l2.122,2.278a.382.382,0,0,0,.474.075l3.671-2a.145.145,0,0,1,.175.225l-4.345,4.63a.346.346,0,0,1-.475,0Z"></path> </g> </symbol> <symbol xmlns="http://www.w3.org/2000/svg" viewBox="0 0 20 20" id="minus-round"> <path d="M10,0A10,10,0,1,0,20,10,10.011,10.011,0,0,0,10,0Zm4.808,10.769H5.192a.769.769,0,0,1,0-1.538h9.615a.769.769,0,1,1,0,1.538Z"></path> </symbol> <symbol xmlns="http://www.w3.org/2000/svg" viewBox="0 0 20 20" id="minus-round-o"> <path d="M10,0A10,10,0,1,0,20,10,10.011,10.011,0,0,0,10,0Zm0,19.231A9.231,9.231,0,1,1,19.231,10,9.242,9.242,0,0,1,10,19.231Z"></path> <path d="M22.385,25h-10a.385.385,0,1,0,0,.769h10a.385.385,0,1,0,0-.769Z" transform="translate(-7.385 -15.385)"></path> </symbol> <symbol xmlns="http://www.w3.org/2000/svg" viewBox="0 0 20 20" id="minus-square"> <path d="M0,0V20H20V0ZM17,10.667H3V9.333H17Z"></path> </symbol> <symbol xmlns="http://www.w3.org/2000/svg" viewBox="0 0 20 20" id="minus-square-o"> <path d="M0,0V20H20V0ZM19.333,19.333H.667V.667H19.333Z"></path> <rect width="14" height="0.667" transform="translate(3 9.667)"></rect> </symbol> <symbol xmlns="http://www.w3.org/2000/svg" viewBox="0 0 14.762 20" id="next"> <path d="M19.786,0a.476.476,0,0,0-.476.476V9.093L6.247.084A.476.476,0,0,0,5.5.476V19.524a.476.476,0,0,0,.747.392L19.31,10.907v8.617a.476.476,0,0,0,.952,0V.476A.476.476,0,0,0,19.786,0Z" transform="translate(-5.5)"></path> </symbol> <symbol xmlns="http://www.w3.org/2000/svg" viewBox="0 0 14.762 20" id="next-o"> <path d="M19.786,0a.476.476,0,0,0-.476.476V9.093L6.247.084A.476.476,0,0,0,5.5.476V19.524a.476.476,0,0,0,.747.392L19.31,10.907v8.617a.476.476,0,0,0,.952,0V.476A.476.476,0,0,0,19.786,0ZM6.452,18.617V1.383L18.947,10Z" transform="translate(-5.5)"></path> </symbol> <symbol xmlns="http://www.w3.org/2000/svg" viewBox="0 0 20 20" id="phone"> <g transform="translate(-478 -258)"> <path d="M15.479,21c-.08,0-.173,0-.255-.008h-.005a10.329,10.329,0,0,1-3.722-1.1,20.069,20.069,0,0,1-6.679-5.224A18.368,18.368,0,0,1,1.556,9.241a7.375,7.375,0,0,1-.54-3.112A2.991,2.991,0,0,1,1.9,4.237l1.46-1.471.009-.009a1.936,1.936,0,0,1,1.342-.58,1.87,1.87,0,0,1,1.32.581l0,0c.24.221.495.473.8.792.134.14.28.285.4.4l.007.007L8.415,5.136A1.931,1.931,0,0,1,9.044,6.5a1.937,1.937,0,0,1-.628,1.367l-.158.159-.024.024c-.068.069-.126.128-.179.181l-.16.161,0,0,0,0-.014.015c-.26.263-.529.535-.812.793l-.091.083.051.112A8.894,8.894,0,0,0,8.2,11.263v0a14.949,14.949,0,0,0,3.579,3.256h0c.123.076.264.149.439.235l.116.06.028.014,0,0,.181.094.11.059,1.447-1.441a1.91,1.91,0,0,1,1.349-.612,1.843,1.843,0,0,1,1.332.614l2.363,2.368a1.894,1.894,0,0,1,.61,1.353,1.975,1.975,0,0,1-.6,1.367c-.048.05-.153.153-.274.273l-.064.063c-.327.322-.822.809-.982,1a.225.225,0,0,0-.02.023A3.084,3.084,0,0,1,15.479,21Z" transform="translate(477 256.999)"></path> <path d="M-2160.882,809.544a5.688,5.688,0,0,0-1.593-3.069,5.663,5.663,0,0,0-3.073-1.593.529.529,0,0,1-.351-.218.551.551,0,0,1-.092-.417.55.55,0,0,1,.544-.454.5.5,0,0,1,.092.007,6.751,6.751,0,0,1,3.662,1.9,6.746,6.746,0,0,1,1.9,3.661.552.552,0,0,1-.1.416.541.541,0,0,1-.353.218h-.005a.728.728,0,0,1-.092.007A.545.545,0,0,1-2160.882,809.544Zm3.788-.18a10.027,10.027,0,0,0-2.826-5.45,10.075,10.075,0,0,0-5.449-2.824.548.548,0,0,1-.453-.634.545.545,0,0,1,.633-.448,11.163,11.163,0,0,1,6.045,3.134,11.141,11.141,0,0,1,3.137,6.043.533.533,0,0,1-.1.409.526.526,0,0,1-.348.216l-.014,0a.769.769,0,0,1-.085.007A.549.549,0,0,1-2157.094,809.365Z" transform="translate(2654 -542)"></path> </g> </symbol> <symbol xmlns="http://www.w3.org/2000/svg" viewBox="0 0 20 20.001" id="phone-o"> <path d="M15.479,21c-.08,0-.173,0-.255-.008h-.005a10.329,10.329,0,0,1-3.722-1.1,20.069,20.069,0,0,1-6.679-5.224A18.368,18.368,0,0,1,1.556,9.241a7.375,7.375,0,0,1-.54-3.112A2.991,2.991,0,0,1,1.9,4.237l1.46-1.471.009-.009a1.936,1.936,0,0,1,1.342-.58,1.87,1.87,0,0,1,1.32.581l0,0c.24.221.495.473.8.792.134.14.28.285.4.4l.007.007L8.415,5.136A1.931,1.931,0,0,1,9.044,6.5a1.937,1.937,0,0,1-.628,1.367l-.158.159-.024.024c-.068.069-.126.128-.179.181l-.16.161,0,0,0,0-.014.015c-.26.263-.529.535-.812.793l-.091.083.051.112A8.894,8.894,0,0,0,8.2,11.263v0a14.949,14.949,0,0,0,3.579,3.256h0c.123.076.264.149.439.235l.116.06.028.014,0,0,.181.094.11.059,1.447-1.441a1.91,1.91,0,0,1,1.349-.612,1.843,1.843,0,0,1,1.332.614l2.363,2.368a1.894,1.894,0,0,1,.61,1.353,1.975,1.975,0,0,1-.6,1.367c-.048.05-.153.153-.274.273l-.064.063c-.327.322-.822.809-.982,1a.225.225,0,0,0-.02.023A3.084,3.084,0,0,1,15.479,21ZM4.721,3a1.146,1.146,0,0,0-.77.351L2.481,4.814A2.132,2.132,0,0,0,1.842,6.2a6.231,6.231,0,0,0,.491,2.76,17.552,17.552,0,0,0,3.124,5.2,19.255,19.255,0,0,0,6.4,5.007,9.455,9.455,0,0,0,3.416,1.021c.07,0,.143,0,.207,0a2.237,2.237,0,0,0,1.742-.737l.005-.006c.163-.192.6-.628.921-.946.148-.147.287-.286.449-.451a1.012,1.012,0,0,0-.029-1.557L16.2,14.123l-.006-.006a1.037,1.037,0,0,0-.741-.366,1.119,1.119,0,0,0-.769.373l-1.472,1.466,0,0a.73.73,0,0,1-.53.243.769.769,0,0,1-.351-.091l0,0-.006,0-.005,0-.026-.015c-.129-.081-.274-.153-.428-.23l0,0a5.559,5.559,0,0,1-.517-.279,15.623,15.623,0,0,1-3.769-3.425l-.007-.009A9.237,9.237,0,0,1,6.2,9.559l-.011-.033a.7.7,0,0,1,.182-.8l.02-.02c.334-.3.667-.624,1.079-1.048.089-.085.175-.172.258-.256l.109-.11,0,0A1.121,1.121,0,0,0,8.23,6.5a1.12,1.12,0,0,0-.392-.785L6.667,4.545c-.067-.069-.139-.142-.233-.237l-.177-.179c-.254-.262-.5-.517-.773-.767l-.015-.016A1.077,1.077,0,0,0,4.721,3ZM16.9,10.478a.406.406,0,0,1-.4-.339A5.7,5.7,0,0,0,11.85,5.5a.39.39,0,0,1-.26-.161.414.414,0,0,1,.338-.651A.417.417,0,0,1,12,4.693,6.514,6.514,0,0,1,17.308,10a.411.411,0,0,1-.072.311.4.4,0,0,1-.261.163A.657.657,0,0,1,16.9,10.478Zm3.689-.175a.409.409,0,0,1-.406-.339,10,10,0,0,0-8.158-8.151A.409.409,0,0,1,12.084,1a.39.39,0,0,1,.072.007,10.841,10.841,0,0,1,8.838,8.825.4.4,0,0,1-.07.3.392.392,0,0,1-.258.16h-.011A.6.6,0,0,1,20.589,10.3Z" transform="translate(-1 -1)"></path> </symbol> <symbol xmlns="http://www.w3.org/2000/svg" viewBox="0 0 20 20" id="pinterest"> <g transform="translate(-51.192 -51.182)"> <path d="M71.188,61.481a10,10,0,1,0-14.372,8.7.273.273,0,0,0,.4-.275,7.55,7.55,0,0,1,.125-1.875c.125-.549.625-2.649.95-4.024a5.182,5.182,0,0,0,.05-2.049,3.541,3.541,0,0,1-.075-.775c0-1.475.849-2.575,1.924-2.575a1.341,1.341,0,0,1,1.35,1.5,21.963,21.963,0,0,1-.875,3.549A1.547,1.547,0,0,0,62.24,65.58c1.9,0,3.349-2,3.349-4.874a4.193,4.193,0,0,0-4.449-4.324,4.606,4.606,0,0,0-4.8,4.624,4.015,4.015,0,0,0,.8,2.424.347.347,0,0,1,.075.3c-.075.324-.25,1.049-.3,1.2-.05.2-.15.225-.35.15a4.891,4.891,0,0,1-2.174-4.149c0-3.349,2.424-6.424,7.023-6.424a6.242,6.242,0,0,1,6.549,6.149c0,3.674-2.3,6.6-5.524,6.6a3.092,3.092,0,0,1-2.125-.824.268.268,0,0,0-.45.125c-.175.625-.425,1.675-.525,2a8.464,8.464,0,0,1-.824,1.925.267.267,0,0,0,.174.4,9.626,9.626,0,0,0,2.55.3,10.165,10.165,0,0,0,9.948-9.7Z"></path> </g> </symbol> <symbol xmlns="http://www.w3.org/2000/svg" viewBox="0 0 20 20" id="plus-round"> <path d="M10,0A10,10,0,1,0,20,10,10.011,10.011,0,0,0,10,0Zm4.808,10.769H10.769V15a.769.769,0,0,1-1.538,0V10.769H5.192a.769.769,0,0,1,0-1.538H9.231V5.385a.769.769,0,1,1,1.538,0V9.231h4.038a.769.769,0,1,1,0,1.538Z"></path> </symbol> <symbol xmlns="http://www.w3.org/2000/svg" viewBox="0 0 20 20" id="plus-round-o"> <path d="M10,0A10,10,0,1,0,20,10,10.011,10.011,0,0,0,10,0Zm0,19.231A9.231,9.231,0,1,1,19.231,10,9.242,9.242,0,0,1,10,19.231Z"></path> <path d="M22.5,17.615H18.077V13.385a.385.385,0,1,0-.769,0v4.231H12.885a.385.385,0,0,0,0,.769h4.423V23a.385.385,0,1,0,.769,0V18.385H22.5a.385.385,0,1,0,0-.769Z" transform="translate(-7.692 -8)"></path> </symbol> <symbol xmlns="http://www.w3.org/2000/svg" viewBox="0 0 20 20" id="plus-square"> <path d="M0,0V20H20V0ZM17,10.667H10.667V17H9.333V10.667H3V9.333H9.333V3h1.333V9.333H17Z"></path> </symbol> <symbol xmlns="http://www.w3.org/2000/svg" viewBox="0 0 20 20" id="plus-square-o"> <path d="M0,0V20H20V0ZM19.333,19.333H.667V.667H19.333Z"></path> <path d="M15.667,23h.667V16.333H23v-.667H16.333V9h-.667v6.667H9v.667h6.667Z" transform="translate(-6 -6)"></path> </symbol> <symbol xmlns="http://www.w3.org/2000/svg" viewBox="0 0 580 250" id="Rectangle 161257"> <g fill="#f7f7f7" stroke="#bbb" stroke-width="1"> <rect width="580" height="250" rx="6" stroke="none"></rect> <rect x="0.5" y="0.5" width="579" height="249" rx="5.5" fill="none"></rect> </g> </symbol> <symbol xmlns="http://www.w3.org/2000/svg" viewBox="0 0 190 40" id="Rectangle 161371"> <g fill="#f7f7f7" stroke="#bbb" stroke-width="1"> <rect width="190" height="40" rx="6" stroke="none"></rect> <rect x="0.5" y="0.5" width="189" height="39" rx="5.5" fill="none"></rect> </g> </symbol> <symbol xmlns="http://www.w3.org/2000/svg" viewBox="0 0 190 70" id="Rectangle 161372"> <g fill="#f7f7f7" stroke="#bbb" stroke-width="1"> <rect width="190" height="70" rx="6" stroke="none"></rect> <rect x="0.5" y="0.5" width="189" height="69" rx="5.5" fill="none"></rect> </g> </symbol> <symbol xmlns="http://www.w3.org/2000/svg" viewBox="0 0 190 70" id="Rectangle 161373"> <g fill="#f7f7f7" stroke="#bbb" stroke-width="1"> <rect width="190" height="70" rx="6" stroke="none"></rect> <rect x="0.5" y="0.5" width="189" height="69" rx="5.5" fill="none"></rect> </g> </symbol> <symbol xmlns="http://www.w3.org/2000/svg" viewBox="0 0 20 18" id="redo"> <g transform="translate(0 -30.864)"> <g transform="translate(0 30.864)"> <path d="M19.756,38.829l-7.5-7.714a.817.817,0,0,0-.908-.186.857.857,0,0,0-.514.792v3.432a11.28,11.28,0,0,0-10.312,8.3A14.429,14.429,0,0,0,.008,47.84l0,.166a.854.854,0,0,0,.611.826.819.819,0,0,0,.937-.387c3.3-5.707,7.67-5.869,9.279-5.708V47.15a.857.857,0,0,0,.514.792.814.814,0,0,0,.908-.186l7.5-7.714A.874.874,0,0,0,19.756,38.829Z" transform="translate(0 -30.864)"></path> </g> </g> </symbol> </svg>
