<?xml version="1.0" encoding="utf-8"?>
<!-- Generator: Adobe Illustrator 16.0.0, SVG Export Plug-In . SVG Version: 6.00 Build 0)  -->
<!DOCTYPE svg PUBLIC "-//W3C//DTD SVG 1.1//EN" "http://www.w3.org/Graphics/SVG/1.1/DTD/svg11.dtd">
<svg version="1.1" id="Layer_1" xmlns="http://www.w3.org/2000/svg" xmlns:xlink="http://www.w3.org/1999/xlink" x="0px" y="0px"
	  viewBox="0 0 257.14 74"  xml:space="preserve">
<g>
	<polyline fill="#D72638" points="145.914,42.262 140.211,48.402 140.211,63.604 129.244,63.604 129.244,10.394 140.211,10.394
		140.211,34.514 145.037,27.9 158.6,10.394 172.095,10.394 153.193,34.039 172.641,63.604 159.59,63.604 145.914,42.262 	"/>
	<polyline fill="#D72638" points="206.746,40.545 185.688,40.545 185.688,54.797 210.4,54.797 210.4,63.604 174.72,63.604
		174.72,10.394 210.332,10.394 210.332,19.276 185.688,19.276 185.688,31.956 206.746,31.956 206.746,40.545 	"/>
	<polyline fill="#D72638" points="223.452,54.797 246.742,54.797 246.742,63.604 212.484,63.604 212.484,10.394 223.452,10.394
		223.452,54.797 	"/>
	<polyline fill="#13365B" points="104.095,34.366 115.171,10.394 127.163,10.394 109.687,44.311 109.687,63.604 98.536,63.604
		98.536,44.311 81.061,10.394 93.09,10.394 104.095,34.366 	"/>
	<polygon fill="none" points="63.648,43.761 76.958,43.761 70.268,23.842 	"/>
	<path fill="#13365B" d="M75.348,10.394H65.185L45.369,63.604h11.662l3.657-10.963h19.229l3.693,10.963h11.662L75.348,10.394z
		 M63.648,43.761l6.619-19.919l6.69,19.919H63.648z"/>
	<path fill="#D72638" d="M248.82,74c4.59,0,8.318-3.726,8.318-8.316l0,0V8.316c0-4.593-3.729-8.316-8.318-8.316l0,0H103.208
		l24.959,8.316h118.575c1.147,0,2.078,0.931,2.078,2.078l0,0v26.604v26.605c0,1.147-0.931,2.08-2.078,2.08l0,0h-87.379L134.404,74
		H248.82z"/>
	<path fill="#13365B" d="M43.288,63.604H32.32L10.97,28.594v35.009c0,1.147,0.932,2.08,2.079,2.08l0,0h146.314L134.404,74H8.321
		c-4.593,0-8.319-3.726-8.319-8.316l0,0v-55.29H10.97l21.388,35.083V8.316c0-4.593,3.729-8.316,8.32-8.316l0,0h62.53l24.959,8.316
		H45.369c-1.147,0-2.081,0.931-2.081,2.078l0,0V63.604z"/>
</g>
</svg>
