<svg xmlns="http://www.w3.org/2000/svg" width="24" height="24" viewBox="0 0 24 24"><path d="M7 17.6C7.5 17.6 8 18.2 8 18.8S7.5 20 7 20c-0.5 0-1-0.6-1-1.2S6.4 17.6 7 17.6zM18.1 17.6c0.6 0 1 0.6 1 1.2s-0.5 1.2-1 1.2c-0.5 0-1-0.6-1-1.2S17.6 17.6 18.1 17.6zM19.5 6.2C19.5 6 19.2 5.9 19.1 5.9H7.3 7.2V5.8L6.5 4H4.8C4.3 4 4 4.4 4 4.9c0 0.6 0.4 1 0.8 1h0.6H5.5L5.6 6l3.5 9.5 0.1 0.2 -0.1 0.1L8.5 16.3C8.2 16.6 8.2 17.2 8.5 17.6 8.6 17.8 8.9 18 9.1 18c0.2 0 0.4-0.1 0.5-0.2l0.9-0.8 0.1-0.1h0.1 7.8c0.4 0 0.8-0.4 0.8-0.9s-0.3-0.9-0.8-0.9H11h-0.1v-0.1c0-0.1-0.1-0.1-0.1-0.1l-0.1-0.1v-0.1L10.6 14.4v-0.2l0.2-0.1L19.2 12c0.3-0.1 0.5-0.4 0.5-0.7L20 6.9C19.7 6.6 19.6 6.4 19.5 6.2zM18.2 7.6v0.2l-0.1 1.6h-3L14.7 7.6h3.4H18.2L18.2 7.6zM12.3 11.8l-0.4-1.7h2.7l0.2 1L12.3 11.8zM14 7.6l0.5 1.8h-2.7L11.3 7.6H14zM7.8 7.6h0.3 2.5v0.1l0.5 1.8H8.5l0 0L7.9 7.9 7.8 7.6zM9.8 12.5l-0.2 0.1L9.6 12.4l-0.8-2.2h2.4l0.4 1.8L9.8 12.5zM18 10.5l-0.2 0.1 -2.4 0.6 -0.2-0.9h2.7v0.1V10.5z"/></svg>
