<svg xmlns="http://www.w3.org/2000/svg" width="24" height="24" viewBox="0 0 24 24"><path d="M16.3 17.5c0-0.3-0.3-0.6-0.6-0.6 -0.3 0-0.6 0.3-0.6 0.6 0 0.3 0.3 0.6 0.6 0.6C16 18.1 16.3 17.8 16.3 17.5zM18.8 17.5c0-0.3-0.3-0.6-0.6-0.6 -0.3 0-0.6 0.3-0.6 0.6 0 0.3 0.3 0.6 0.6 0.6C18.5 18.1 18.8 17.8 18.8 17.5zM20 15.4v3.1c0 0.5-0.4 0.9-0.9 0.9H4.9C4.4 19.3 4 18.9 4 18.4v-3.1c0-0.5 0.4-0.9 0.9-0.9h4.5l1.3 1.3c0.4 0.3 0.8 0.5 1.3 0.5s1-0.2 1.3-0.5l1.3-1.3h4.5C19.6 14.4 20 14.9 20 15.4zM16.9 9.9c0.1 0.2 0 0.5-0.1 0.7l-4.3 4.3c-0.1 0.1-0.3 0.2-0.4 0.2 -0.2 0-0.3-0.1-0.4-0.2L7.3 10.6c-0.2-0.2-0.2-0.4-0.1-0.7 0.1-0.2 0.3-0.4 0.6-0.4h2.5V5.3c0-0.3 0.3-0.6 0.6-0.6h2.5c0.3 0 0.6 0.3 0.6 0.6v4.3h2.5C16.6 9.6 16.8 9.7 16.9 9.9z"/></svg>
