<svg id="Layer_1" xmlns="http://www.w3.org/2000/svg" xmlns:xlink="http://www.w3.org/1999/xlink" width="24" height="24" viewBox="0 0 24 24" enable-background="new 0 0 24 24"><title>forward</title><path d="M20 10.24c0 .16-.08.24-.16.4l-4.561 4.081C15.2 14.8 15.04 14.88 14.88 14.88c-.319.0-.56-.24-.56-.479V12.32h-2c-3.84.0-6.4.64-6.4 4.48.0.32.0.64.08.96.0.08.0.24.0.4.0.08-.08.24-.32.24-.16.0-.16-.08-.24-.16-.16-.16-.24-.4-.32-.641C4.64 16.64 4 15.2 4 14.08c0-.88.08-1.84.48-2.64 1.28-2.72 4.88-3.2 7.84-3.2h2V6.08c0-.24.24-.48.56-.48.16.0.32.08.399.16l4.561 4.08C19.92 9.92 20 10.08 20 10.24v0z"/></svg>