<svg xmlns="http://www.w3.org/2000/svg" width="24" height="24" viewBox="0 0 24 24"><path d="M10 10.3v6c0 0.2-0.1 0.3-0.3 0.3H9c-0.2 0-0.3-0.1-0.3-0.3v-6C8.7 10.1 8.8 10 9 10h0.7C9.9 10 10 10.1 10 10.3zM12.7 10.3v6c0 0.2-0.1 0.3-0.3 0.3h-0.7c-0.2 0-0.3-0.1-0.3-0.3v-6c0-0.2 0.1-0.3 0.3-0.3h0.7C12.5 10 12.7 10.1 12.7 10.3zM15.3 10.3v6c0 0.2-0.1 0.3-0.3 0.3h-0.7c-0.2 0-0.3-0.1-0.3-0.3v-6C14 10.1 14.1 10 14.3 10H15C15.2 10 15.3 10.1 15.3 10.3zM16.7 17.9V8H7.3v9.9c0 0.5 0.3 0.8 0.3 0.8h8.7C16.4 18.7 16.7 18.4 16.7 17.9zM9.7 6.7h4.7l-0.5-1.2c0 0-0.1-0.1-0.2-0.1h-3.3c-0.1 0-0.1 0.1-0.2 0.1L9.7 6.7zM19.3 7v0.7C19.3 7.9 19.2 8 19 8h-1v9.9C18 19 17.3 20 16.3 20H7.7C6.8 20 6 19.1 6 17.9V8H5C4.8 8 4.7 7.9 4.7 7.7V7c0-0.2 0.1-0.3 0.3-0.3h3.2l0.7-1.7C9.2 4.4 9.8 4 10.3 4h3.3c0.6 0 1.2 0.4 1.4 0.9l0.7 1.7H19C19.2 6.7 19.3 6.8 19.3 7L19.3 7z"/></svg>
