<svg xmlns="http://www.w3.org/2000/svg" width="24" height="24" viewBox="0 0 24 24"><path d="M10 17V9.7c0-0.2-0.1-0.3-0.3-0.3H9c-0.2 0-0.3 0.1-0.3 0.3V17c0 0.2 0.1 0.3 0.3 0.3h0.7C9.9 17.3 10 17.2 10 17zM12.7 17V9.7c0-0.2-0.1-0.3-0.3-0.3h-0.7c-0.2 0-0.3 0.1-0.3 0.3V17c0 0.2 0.1 0.3 0.3 0.3h0.7C12.5 17.3 12.7 17.2 12.7 17zM15.3 17V9.7c0-0.2-0.1-0.3-0.3-0.3h-0.7c-0.2 0-0.3 0.1-0.3 0.3V17c0 0.2 0.1 0.3 0.3 0.3H15C15.2 17.3 15.3 17.2 15.3 17zM9.7 6.7h4.7l-0.5-1.2c0 0-0.1-0.1-0.2-0.1h-3.3c-0.1-0.1-0.2 0-0.2 0L9.7 6.7zM19.3 7v0.7C19.3 7.9 19.2 8 19 8h-1v9.9c0 1.1-0.7 2.1-1.7 2.1H7.7C6.8 20 6 19.1 6 17.9V8H5C4.8 8 4.7 7.9 4.7 7.7V7c0-0.2 0.1-0.3 0.3-0.3h3.2L8.9 5c0.3-0.6 0.9-1 1.4-1h3.3C14.2 4 14.8 4.4 15 4.9l0.7 1.7H19C19.2 6.7 19.3 6.8 19.3 7L19.3 7z"/></svg>
