<svg xmlns="http://www.w3.org/2000/svg" width="24" height="24" viewBox="0 0 24 24"><title>  upload</title><path d="M16.3 17.6c0-0.3-0.3-0.6-0.6-0.6 -0.3 0-0.6 0.3-0.6 0.6s0.3 0.6 0.6 0.6C16 18.2 16.3 17.9 16.3 17.6zM18.8 17.6c0-0.3-0.3-0.6-0.6-0.6 -0.3 0-0.6 0.3-0.6 0.6s0.3 0.6 0.6 0.6C18.5 18.2 18.8 17.9 18.8 17.6zM20 15.5v2.9c0 0.5-0.4 0.9-0.9 0.9H4.9C4.4 19.3 4 18.9 4 18.5v-2.9c0-0.5 0.4-0.9 0.9-0.9h4.1c0.3 0.7 0.9 1.2 1.7 1.2h2.5c0.8 0 1.5-0.5 1.7-1.2h4.1C19.6 14.6 20 15 20 15.5zM16.9 9.6c-0.1 0.2-0.3 0.4-0.6 0.4h-2.5v4.1c0 0.3-0.3 0.6-0.6 0.6h-2.5c-0.3 0-0.6-0.3-0.6-0.6V9.9H7.7c-0.2 0-0.5-0.1-0.6-0.4C7 9.4 7.1 9.1 7.3 8.9l4.3-4.1C11.7 4.7 11.8 4.7 12 4.7c0.2 0 0.3 0.1 0.4 0.2l4.3 4.1C16.9 9.1 17 9.4 16.9 9.6z"/></svg>
