<svg id="icon-user-circle-outline" xmlns="http://www.w3.org/2000/svg" xmlns:xlink="http://www.w3.org/1999/xlink" width="24" height="24" viewBox="0 0 24 24" enable-background="new 0 0 24 24"><path d="M12 4c4.4.0 8 3.6 8 8 0 4.4-3.6 8-8 8-4.4.0-8-3.6-8-8C4 7.6 7.6 4 12 4zM17.521 16.08c.8-1.12 1.359-2.56 1.359-4.08.0-3.76-3.12-6.88-6.88-6.88-3.76.0-6.88 3.12-6.88 6.88.0 1.521.48 2.88 1.36 4.08C6.8 14.479 7.6 13.2 9.2 13.2c.72.72 1.68 1.12 2.8 1.12s2.08-.4 2.8-1.12C16.4 13.12 17.2 14.479 17.521 16.08zM15.439 10.32c0-1.92-1.52-3.44-3.439-3.44S8.56 8.4 8.56 10.32s1.52 3.44 3.44 3.44S15.439 12.16 15.439 10.32z"/></svg>