<svg xmlns="http://www.w3.org/2000/svg" width="24" height="24" viewBox="0 0 24 24"><path d="M7.4 13.8c0-0.7-0.5-1.2-1.1-1.2 -0.6 0-1.1 0.5-1.1 1.2 0 0.7 0.5 1.2 1.1 1.2S7.4 14.5 7.4 13.8zM9.1 9.6c0-0.7-0.5-1.2-1.1-1.2s-1.1 0.5-1.1 1.2c0 0.7 0.5 1.2 1.1 1.2S9.1 10.2 9.1 9.6zM13 14.1l0.9-3.6c0.1-0.3-0.1-0.7-0.4-0.7l0 0c-0.3-0.1-0.6 0.1-0.7 0.4l-0.9 3.6c-0.7 0.1-1.3 0.6-1.5 1.3 -0.2 1 0.3 2 1.2 2.2 0.9 0.3 1.9-0.3 2.1-1.3C13.9 15.3 13.5 14.6 13 14.1zM18.9 13.8c0-0.7-0.5-1.2-1.1-1.2 -0.6 0-1.1 0.5-1.1 1.2 0 0.7 0.5 1.2 1.1 1.2C18.3 15 18.9 14.5 18.9 13.8zM13.1 7.8c0-0.7-0.5-1.2-1.1-1.2 -0.6 0-1.1 0.5-1.1 1.2S11.4 9 12 9C12.6 9 13.1 8.4 13.1 7.8zM17.1 9.6c0-0.7-0.5-1.2-1.1-1.2s-1.1 0.5-1.1 1.2c0 0.7 0.5 1.2 1.1 1.2S17.1 10.2 17.1 9.6zM20 13.8c0 1.6-0.4 3.2-1.3 4.6 -0.1 0.2-0.3 0.3-0.5 0.3H5.7c-0.2 0-0.4-0.1-0.5-0.3C4.4 17 4 15.4 4 13.8c0-4.7 3.6-8.5 8-8.5C16.4 5.3 20 9.1 20 13.8z"/></svg>