<svg id="Layer_1" xmlns="http://www.w3.org/2000/svg" xmlns:xlink="http://www.w3.org/1999/xlink" width="24" height="24" viewBox="0 0 24 24" enable-background="new 0 0 24 24"><path d="M17.439 15.84c.961-1.279.881-3.119-.319-4.32-.24-.24-.56-.48-.88-.64V8l-4-4H4v16h12.24v-3.12c.16-.08.399-.24.56-.319l2.479 2.56L20 18.4 17.439 15.84zM12.479 5.6l2.16 2.16h-2.16V5.6zM15.279 19.04H4.96V4.96h6.64v3.76h3.76v1.92c-.96-.16-2 .16-2.8.96-1.28 1.28-1.28 3.36.0 4.64.719.72 1.76 1.039 2.8.96v1.84H15.279zM16.479 15.521c-.88.88-2.399.88-3.279.0-.88-.881-.88-2.4.0-3.281.88-.879 2.399-.879 3.279.0C17.439 13.12 17.439 14.64 16.479 15.521z"/><path d="M5.84 9.68h6.64v.959H5.84z"/><path d="M5.84 11.52h4.72v.959H5.84z"/><path d="M5.84 15.279h4.72v.961H5.84z"/><path d="M5.84 13.439h4.72v.961H5.84z"/></svg>