<svg id="Layer_1" xmlns="http://www.w3.org/2000/svg" xmlns:xlink="http://www.w3.org/1999/xlink" width="24" height="24" viewBox="0 0 24 24" enable-background="new 0 0 24 24"><path d="M15.18 13.808h-.723l-.256-.246c.896-1.044 1.437-2.397 1.437-3.87.0-3.284-2.662-5.946-5.946-5.946S3.745 6.407 3.745 9.691s2.662 5.946 5.946 5.946c1.473.0 2.826-.54 3.87-1.437l.246.256v.723l4.574 4.565 1.363-1.363L15.18 13.808zM9.691 13.808c-2.278.0-4.117-1.838-4.117-4.116.0-2.278 1.839-4.117 4.117-4.117 2.277.0 4.116 1.838 4.116 4.117C13.808 11.969 11.969 13.808 9.691 13.808z"/></svg>