<svg id="icon-user-circle" xmlns="http://www.w3.org/2000/svg" xmlns:xlink="http://www.w3.org/1999/xlink" width="24" height="24" viewBox="0 0 24 24" enable-background="new 0 0 24 24"><path d="M17.6 15.92c-.239-1.68-.879-3.12-2.399-3.359C14.4 13.439 13.279 14 12 14c-1.28.0-2.4-.561-3.2-1.439C7.28 12.8 6.64 14.24 6.4 15.92c1.28 1.76 3.28 2.96 5.6 2.96C14.32 18.88 16.32 17.68 17.6 15.92zM15.439 9.68c0-1.92-1.52-3.44-3.439-3.44S8.56 7.76 8.56 9.68s1.52 3.44 3.44 3.44S15.439 11.6 15.439 9.68zM20 12c0 4.4-3.6 8-8 8-4.4.0-8-3.6-8-8 0-4.4 3.6-8 8-8C16.4 4 20 7.6 20 12z"/></svg>