<?xml version="1.0" encoding="utf-8"?>
<!-- Generator: Adobe Illustrator 16.0.0, SVG Export Plug-In . SVG Version: 6.00 Build 0)  -->
<!DOCTYPE svg PUBLIC "-//W3C//DTD SVG 1.1//EN" "http://www.w3.org/Graphics/SVG/1.1/DTD/svg11.dtd">
<svg version="1.1" id="Layer_1" xmlns="http://www.w3.org/2000/svg" xmlns:xlink="http://www.w3.org/1999/xlink" x="0px" y="0px"
	 width="24px" height="24px" viewBox="0 0 24 24" enable-background="new 0 0 24 24" xml:space="preserve">
<g>
	<path fill="#F42534" d="M19.698,11.288l-6.985-6.985c-0.402-0.403-1.055-0.403-1.457,0L9.805,5.753l1.841,1.84
		c0.428-0.145,0.918-0.047,1.259,0.293c0.343,0.343,0.438,0.837,0.29,1.267l1.774,1.773c0.429-0.148,0.924-0.052,1.267,0.291
		c0.479,0.479,0.479,1.255,0,1.734c-0.479,0.479-1.255,0.479-1.734,0c-0.36-0.361-0.449-0.89-0.267-1.333L12.58,9.964v4.353
		c0.116,0.058,0.227,0.135,0.324,0.231c0.479,0.479,0.479,1.255,0,1.734c-0.479,0.479-1.256,0.479-1.733,0
		c-0.479-0.479-0.479-1.256,0-1.734c0.118-0.118,0.255-0.208,0.4-0.268V9.888c-0.146-0.06-0.282-0.148-0.4-0.268
		c-0.363-0.363-0.451-0.895-0.265-1.34L9.092,6.465l-4.79,4.79c-0.402,0.402-0.402,1.055,0,1.458l6.986,6.985
		c0.402,0.402,1.055,0.402,1.457,0l6.953-6.953C20.101,12.343,20.101,11.69,19.698,11.288z"/>
</g>
</svg>
