<?xml version="1.0" encoding="utf-8"?>
<!-- Generator: Adobe Illustrator 16.0.0, SVG Export Plug-In . SVG Version: 6.00 Build 0)  -->
<!DOCTYPE svg PUBLIC "-//W3C//DTD SVG 1.1//EN" "http://www.w3.org/Graphics/SVG/1.1/DTD/svg11.dtd">
<svg version="1.1" id="Layer_1" xmlns="http://www.w3.org/2000/svg" xmlns:xlink="http://www.w3.org/1999/xlink" x="0px" y="0px"
	 width="24px" height="24px" viewBox="0 0 24 24" enable-background="new 0 0 24 24" xml:space="preserve">
<g>
	<path d="M12,4c-4.418,0-8,3.672-8,8.202c0,3.624,2.292,6.699,5.472,7.783c0.399,0.075,0.547-0.179,0.547-0.396
		c0-0.195-0.008-0.841-0.011-1.526c-2.227,0.496-2.696-0.967-2.696-0.967c-0.363-0.948-0.888-1.201-0.888-1.201
		c-0.727-0.51,0.056-0.499,0.056-0.499c0.803,0.058,1.226,0.847,1.226,0.847c0.714,1.254,1.872,0.891,2.328,0.681
		c0.071-0.53,0.278-0.892,0.508-1.097c-1.777-0.207-3.645-0.911-3.645-4.053c0-0.896,0.313-1.627,0.825-2.202
		C7.638,9.364,7.362,8.53,7.797,7.401c0,0,0.673-0.221,2.201,0.84c0.638-0.182,1.322-0.272,2.003-0.276
		c0.679,0.003,1.364,0.095,2.004,0.276c1.526-1.061,2.197-0.84,2.197-0.84c0.436,1.13,0.161,1.964,0.078,2.17
		c0.514,0.573,0.824,1.306,0.824,2.202c0,3.149-1.873,3.843-3.653,4.046c0.287,0.256,0.542,0.754,0.542,1.52
		c0,1.098-0.01,1.98-0.01,2.25c0,0.218,0.145,0.476,0.549,0.395C17.71,18.898,20,15.825,20,12.203C20,7.672,16.418,4,12,4z"/>
</g>
</svg>
