<?xml version="1.0" encoding="utf-8"?>
<!-- Generator: Adobe Illustrator 16.0.0, SVG Export Plug-In . SVG Version: 6.00 Build 0)  -->
<!DOCTYPE svg PUBLIC "-//W3C//DTD SVG 1.1//EN" "http://www.w3.org/Graphics/SVG/1.1/DTD/svg11.dtd">
<svg version="1.1" id="Layer_1" xmlns="http://www.w3.org/2000/svg" xmlns:xlink="http://www.w3.org/1999/xlink" x="0px" y="0px"
	 width="24px" height="24px" viewBox="0 0 24 24" enable-background="new 0 0 24 24" xml:space="preserve">
<g>
	<path fill="#E84631" d="M8.306,12.844l-4.26-7.117C4.239,4.737,5.099,4,6.129,4C6.13,4,6.132,4,6.134,4H17.88
		c0.881,0,1.633,0.534,1.954,1.293c-0.347-0.32-0.554-0.24-0.8-0.2c-0.307,0.04-3.8,0.627-4.2,0.7
		C14.42,5.86,14.167,6.021,14.42,6.374l3.021,4.282L8.306,12.844L8.306,12.844z M7.7,14.284L4,15.251v2.621
		C4.004,19.048,4.958,20,6.134,20l0,0h4.793c-0.627-1.021-2.333-4.102-3.22-5.708H7.7V14.284z M14.533,19.993h3.347
		c1.121,0,2.034-0.867,2.114-1.954L14.533,19.993z M6.96,12.903L4.014,7.815v6.069L6.9,13.19C7.134,13.137,7.073,13.11,6.96,12.903z
		 M19.58,6.074c-0.167-0.227-0.287-0.193-0.42-0.16c-0.134,0.034-3.181,0.58-3.367,0.6c-0.187,0.033-0.126,0.133-0.046,0.24
		l2.666,3.668L20,10.042V6.615c-0.106-0.129-0.243-0.303-0.378-0.478L19.58,6.081V6.074z M17.866,11.636L8.96,13.958
		c0,0,2.734,4.735,2.94,5.035c0.214,0.307,0.34,0.28,0.506,0.214c0.12-0.054,5.201-1.774,7.594-2.582v-2.54l-1.706-2.335
		C18.188,11.583,18.128,11.55,17.866,11.636L17.866,11.636z M19.167,11.396L20,12.517v-1.46l-0.899,0.247L19.167,11.396z"/>
</g>
</svg>
