<?xml version="1.0" encoding="utf-8"?>
<!-- Generator: Adobe Illustrator 16.0.0, SVG Export Plug-In . SVG Version: 6.00 Build 0)  -->
<!DOCTYPE svg PUBLIC "-//W3C//DTD SVG 1.1//EN" "http://www.w3.org/Graphics/SVG/1.1/DTD/svg11.dtd">
<svg version="1.1" id="Layer_1" xmlns="http://www.w3.org/2000/svg" xmlns:xlink="http://www.w3.org/1999/xlink" x="0px" y="0px"
	 width="24px" height="24px" viewBox="0 0 24 24" enable-background="new 0 0 24 24" xml:space="preserve">
<g>
	<path fill="#13365B" d="M8.087,20l6.83-1.798H6.123c-0.188,0-0.338-0.202-0.338-0.45l0,0v-7.57l3.473,7.57h1.784V6.248
		c0-0.248,0.151-0.45,0.339-0.45l0,0h4.211L12.285,4h-1.669C9.869,4,9.263,4.805,9.263,5.798l0,0v8.035L5.784,6.248H4v11.955
		C4,19.194,4.606,20,5.353,20l0,0H8.087z"/>
	<polyline fill="#D72538" points="13.935,13.138 13.061,14.466 13.061,17.753 11.379,17.753 11.379,6.248 13.061,6.248 
		13.061,11.462 13.801,10.032 15.88,6.248 17.949,6.248 15.051,11.36 18.032,17.753 16.031,17.753 13.935,13.138 	"/>
	<path fill="#D72538" d="M18.646,4h-6.361l3.306,1.798h1.703v0h0.597c0.188,0,0.339,0.201,0.339,0.449V12v5.753
		c0,0.247-0.151,0.448-0.338,0.449h-2.975L8.087,20h9.207l0,0h0.936c0.001,0,0.001,0,0.002,0h0.415C19.394,20,20,19.194,20,18.202
		V5.798C20,4.805,19.394,4,18.646,4z"/>
</g>
</svg>
