<svg id="Layer_1" xmlns="http://www.w3.org/2000/svg" xmlns:xlink="http://www.w3.org/1999/xlink" width="24" height="24" viewBox="0 0 24 24" enable-background="new 0 0 24 24"><path d="M19.914 7.97c0 .315-.079.552-.316.788l-8.748 9.459c-.158.236-.473.314-.709.314-.237.0-.473-.078-.709-.314l-5.044-5.518c-.157-.158-.236-.395-.236-.71.0-.315.079-.552.315-.788l1.419-1.498c.157-.236.472-.315.709-.315.236.0.473.079.709.315l2.995 3.232 6.7-7.251c.158-.236.474-.315.71-.315s.473.079.709.315l1.419 1.497c.157.237.315.473.315.789H19.914z"/></svg>