<svg id="Layer_1" xmlns="http://www.w3.org/2000/svg" xmlns:xlink="http://www.w3.org/1999/xlink" width="24" height="24" viewBox="0 0 24 24" enable-background="new 0 0 24 24"><path d="M14.96 13.841l2.96-2.945-4.08-.637L12 6.358l-1.84 3.821-4.08.637 2.96 2.946L8.32 17.98l3.6-1.99 3.601 1.99L14.96 13.841zM20 10.259c0 .159-.16.319-.239.478L16.24 14.32l.8 5.015c0 .079.0.159.0.238.0.239-.08.478-.399.478-.161.0-.241-.079-.4-.079L12 17.503l-4.32 2.389c-.161.0-.24.079-.4.079-.241.0-.4-.239-.4-.478.0-.08.0-.159.0-.239l.8-5.015-3.52-3.583c0-.079-.16-.239-.16-.398C4 9.94 4.32 9.861 4.56 9.781l4.8-.717 2.16-4.537C11.6 4.289 11.76 4.05 12 4.05s.4.239.48.398l2.16 4.538 4.801.716C19.68 9.781 20 9.94 20 10.259v0z"/></svg>