<svg id="Layer_1" xmlns="http://www.w3.org/2000/svg" xmlns:xlink="http://www.w3.org/1999/xlink" width="24" height="24" viewBox="0 0 24 24" enable-background="new 0 0 24 24"><path d="M15.445 13.36l2.482-2.561-4.084-.64-.319-.64-1.521-3.2V16l.561.32L15.605 18l-.561-3.6-.08-.641L15.445 13.36zM19.77 10.72l-3.523 3.601.801 5.04c.08.399.0.64-.32.64-.08.0-.24-.08-.4-.16l-4.323-2.319L7.679 19.92c-.16.0-.24.08-.4.08-.32.0-.48-.24-.4-.721l.8-5.039L4.236 10.72c-.4-.48-.24-.88.32-.959l4.804-.72 2.162-4.56c.16-.32.32-.48.48-.48v0c.16.0.32.16.48.4l2.162 4.56 4.804.72C20.089 9.84 20.17 10.24 19.77 10.72v0z"/></svg>